<svg id="Icon" xmlns="http://www.w3.org/2000/svg" width="138" height="138" viewBox="0 0 138 138">
  <defs>
    <style>
      .cls-1, .cls-2 {
        fill: #fff;
        stroke: #fff;
        stroke-linejoin: round;
        stroke-width: 4px;
      }

      .cls-1 {
        fill-opacity: 0;
      }

      .cls-3 {
        fill: #2e3f50;
        fill-rule: evenodd;
      }
    </style>
  </defs>
  <circle id="Ellipse_2_copy_2" data-name="Ellipse 2 copy 2" class="cls-1" cx="69" cy="69" r="65"/>
  <circle id="Ellipse_2_copy_2-2" data-name="Ellipse 2 copy 2" class="cls-2" cx="69" cy="69" r="53"/>
  <path id="Forma_1" data-name="Forma 1" class="cls-3" d="M1664.8,2582.19l12.68,25.89a1.229,1.229,0,0,1-1.2,1.92h-79.56a1.229,1.229,0,0,1-1.2-1.92l12.68-25.89a1.456,1.456,0,0,1,1.2-.74h10.87a1.487,1.487,0,0,1,1.01.46c0.74,0.84,1.49,1.67,2.24,2.49,0.71,0.78,1.43,1.57,2.14,2.37h-12.91a1.466,1.466,0,0,0-1.2.75l-8.4,17.15h66.7l-8.4-17.15a1.466,1.466,0,0,0-1.2-.75h-12.94c0.71-.8,1.43-1.59,2.14-2.37,0.75-.82,1.51-1.65,2.25-2.5a1.519,1.519,0,0,1,1-.45h10.9A1.456,1.456,0,0,1,1664.8,2582.19Zm-9.66-17.69c0,14.15-11.85,16.8-17.42,30.4a1.335,1.335,0,0,1-2.47-.01c-5.03-12.26-15.16-15.62-17.1-26.54-1.91-10.75,5.58-21.28,16.52-22.31A18.617,18.617,0,0,1,1655.14,2564.5Zm-8.8,0a9.855,9.855,0,1,0-9.85,9.79A9.818,9.818,0,0,0,1646.34,2564.5Z" transform="translate(-1567 -2508)"/>
</svg>
