<?xml version="1.0" encoding="utf-8"?>
<!-- Generator: Adobe Illustrator 24.2.3, SVG Export Plug-In . SVG Version: 6.00 Build 0)  -->
<svg version="1.1" id="Layer_1" xmlns="http://www.w3.org/2000/svg" xmlns:xlink="http://www.w3.org/1999/xlink" x="0px" y="0px"
	 viewBox="0 0 441 371.2" style="enable-background:new 0 0 441 371.2;" xml:space="preserve">
<style type="text/css">
	.st0{fill:#2D3E50;}
</style>
<path class="st0" d="M283.7,172.6l26.1,10.9c-1.4,0.4-2.7,0.8-4,1.2l-4,1.3c-2.7,0.9-5.3,1.8-7.9,2.7s-5.2,1.9-7.8,2.9
	c-2.6,1-5.1,2-7.6,3.1c-1.4-9-3.5-18.6-6.2-20.8L283.7,172.6z"/>
<path class="st0" d="M309.8,183.5V202c-4.8,2.2-15.6,5.8-29.2,9.8c0,0-0.7-8.3-2.1-17.1c2.7-0.7,5.3-1.6,7.9-2.4
	c2.6-0.9,5.3-1.8,7.9-2.7s5.2-1.9,7.8-2.9l3.9-1.5C307.2,184.6,308.5,184,309.8,183.5z"/>
<path class="st0" d="M122.8,193.3c1-0.3,2-0.6,2.9-1l-1.3,5.3c-1.3-1.3-2.7-2.5-4.1-3.6C121,193.7,121.9,193.5,122.8,193.3z"/>
<path class="st0" d="M211.2,213.5c-13.9-2.2-52-14.6-58.8-19.8c-5-3.8-10.8-10.1-11.6-25.1c-1.1,6.8-2.2,13.7-3.4,20.5v0.2
	c0.9-0.5,1.8-0.8,2.7-1c1.1-0.3,2.2-0.4,3.3-0.3c-0.9,0.6-2,1-3,1.2c-1,0.2-2,0.3-3,0.3l-2.7,15.9c2.5,1.7,5,3.4,7.4,5.1l3.8,2.7
	l3.8,2.8c2.5,1.9,5.1,3.7,7.6,5.6s5,3.8,7.5,5.7l0,0c0.1,0.1,0.1,0.1,0.1,0.2c1.9-0.5,3.9-1.1,5.8-1.6l6.2-1.6c4.1-1,8.2-2,12.4-3
	s8.3-1.9,12.4-2.8s8.3-1.8,12.5-2.5c-4.1,1.2-8.2,2.2-12.3,3.3s-8.2,2-12.4,3s-8.3,1.9-12.4,2.8l-6.2,1.3c-2,0.4-3.9,0.8-5.9,1.1
	l0,0c0.4,4,0.7,8.1,0.9,12.1c-0.6-3.9-1.2-7.9-1.7-11.9c-2.5-1.8-5-3.6-7.5-5.5s-5-3.8-7.6-5.6l-3.8-2.9l-3.7-2.9
	c-2.4-1.8-4.7-3.7-7-5.6l-0.8,4.7c0,0.2-0.3,0.4-0.5,0.4c0,0,0,0,0,0h-0.1l-10.9-3.7c-0.2-0.1-0.4-0.3-0.3-0.6l2.1-8.3
	c-1.9-1-3.6-2.2-5.3-3.4c-1.3,1-2.6,1.9-4,2.9s-2.9,2-4.4,3c1.4-1.1,2.7-2.3,4.1-3.4s2.6-2.1,3.9-3.1c0-0.1,0-0.1,0.1-0.2
	c-0.8-3-1.4-5.9-2.2-8.9s-1.4-6.2-2.1-9.3s-1.4-6.2-2-9.3s-1.2-6.2-1.8-9.4c0.9,3.1,1.7,6.1,2.4,9.2s1.5,6.2,2.3,9.3
	s1.5,6.2,2.1,9.3c0.6,2.9,1.3,5.9,1.9,8.8c1.1-0.2,2.1-0.5,3.2-0.7s2.1-0.3,3.1-0.4l1.2-4.6l4.8-18.5l0,0l0,0c0.6-1.6,1.1-3.3,1.4-5
	c0.4-1.6,0.4-3.4,0-5c-0.3-0.8-0.7-1.5-1.3-2c-0.3-0.3-0.6-0.5-1-0.7l-0.6-0.4l-0.3-0.3l-0.2-0.1c-1.7-0.4-3.4-0.6-5.1-0.8
	c-7-0.6-13.9-1-20.9-1.4c3.5,0,7,0.1,10.5,0.3s7,0.3,10.5,0.5c0.9,0.1,1.8,0.1,2.6,0.2c0.9,0.1,1.8,0.2,2.7,0.5
	c0.1,0,0.3,0.1,0.4,0.2l0.2,0.2l0.5,0.3c0.4,0.2,0.8,0.5,1.1,0.8c0.7,0.6,1.3,1.4,1.6,2.3c0.5,1.8,0.5,3.6,0.1,5.4
	c-0.3,1.7-0.8,3.4-1.4,5.1l-4.6,18.5l-4.6,18.1l9.9,3.5l3.8-20.4c1.3-6.8,2.6-13.6,4-20.5c-0.2-6.6,0.2-13.1,1.4-19.6l-18.3-1.9
	c-1.8-0.2-3.6-0.9-5-2.1c-1.5-0.2-3-0.5-4.4-0.9c-0.4-0.1-0.8-0.2-1.1-0.3l-0.6-0.2h-0.1l0,0h-0.2c-0.7,0.2-1.4,0.5-2,0.9
	c-1.4,0.7-2.7,1.4-4.1,2.1s-2.8,1.4-4.2,2.1c2.4-2,5.1-3.7,7.9-5.1c0.7-0.4,1.5-0.7,2.3-0.9c0.1,0,0.3,0,0.4,0c0.2,0,0.3,0,0.5,0.1
	c0.2,0.1,0.3,0.1,0.5,0.2l1.1,0.4c1.4,0.5,2.8,1,4.2,1.6c-1.4-1.4-2.5-3.6-1.9-7.2l0.9-24.7l-3.8-0.8c0,0-2.8,0.6,2.7-15.1l8.7-25
	c0,0-34.2,4.2-35.4,5.5s7.2,84.8,18.9,124.7c0,0,53.1,37.9,56.3,39.2c1.6,0.6,31-6.5,63.1-14.9C228.4,226.3,225.1,215.7,211.2,213.5
	z M99.1,96.1c-0.8-4.9-1.6-9.8-2.3-14.8c1.1,4.9,2.1,9.8,3,14.6s1.8,9.8,2.8,14.7s1.7,9.8,2.5,14.7l1.2,7.4c0.4,2.5,0.8,4.9,1.1,7.4
	c-0.6-2.4-1-4.9-1.6-7.3l-1.4-7.3c-1-4.9-1.8-9.8-2.8-14.7S99.9,101,99.1,96.1z"/>
<path class="st0" d="M191.5,38.2c-1.8,0-4.1,1-6.5,1.5s-7.6-0.5-8.1-2s-3.6-13.8-4.1-13.2s-1.5,1.6-1.5,1.6s-0.2,15,0.2,16.6
	s6.5,9.7,15.5,8.9S197.5,40,197.5,40S193.3,38.2,191.5,38.2z M193,42.6c-0.7,0.4-1.4,0.6-2.2,0.5c-0.8-0.1-1.5-0.3-2.1-0.7
	c-0.6-0.4-1.2-0.9-1.6-1.5c1.2,0.6,2.5,1,3.8,1.2c0.6,0,1.2,0,1.8-0.2c0.6-0.2,1.2-0.6,1.8-0.9C194.2,41.6,193.7,42.2,193,42.6
	L193,42.6z"/>
<path class="st0" d="M171.4,26.1c0,0,8.3-7.8,7.6-17.4c0,0,2.1-2,5.6,1.3c0,0,3,0.8,6.4-2.8s5.3,1.7,5.3,1.7s1.8,5.6,2.3,4.1
	s1.3-8.6-6.1-10.9c-5.8-1.7-11.8-2.4-17.9-2c-2,0.3-6.1,3.6-6.1,8.3s-2,10.4-1.8,12.2S171.4,26.1,171.4,26.1z"/>
<path class="st0" d="M178.8,24.1c1.6-0.6,3.3-0.8,5-0.7c0.9,0.1,1.7,0.3,2.5,0.6c0.8,0.3,1.6,0.7,2.2,1.3c-0.8-0.3-1.5-0.6-2.4-0.8
	c-0.8-0.2-1.6-0.3-2.4-0.4C182.1,24,180.4,24,178.8,24.1z"/>
<path class="st0" d="M192.9,24.5c0.7-0.7,1.5-1.3,2.4-1.7c0.9-0.4,1.9-0.5,2.9-0.3c-0.9,0.3-1.8,0.6-2.6,1
	C194.7,23.8,193.8,24.2,192.9,24.5z"/>
<path class="st0" d="M185.1,27.6c0.6,0,1-0.5,1-1s-0.5-1-1-1s-1,0.5-1,1S184.5,27.6,185.1,27.6z"/>
<path class="st0" d="M195.7,27c0.6,0,1-0.5,1-1s-0.5-1-1-1s-1,0.5-1,1S195.1,27,195.7,27z"/>
<path class="st0" d="M166.8,20.6c-0.7,0.3-1.3,0.9-1.5,1.7c-0.2,0.7-0.2,1.5,0,2.3c0.5,1.5,1,3,1.7,4.5c0.6,1.5,1,3.1,1.4,4.7
	c0.1,0.8,0.5,1.5,1.1,2c0.6,0.5,1.4,0.8,2.2,0.7c-0.8,0.2-1.7,0.1-2.4-0.4c-0.7-0.5-1.2-1.3-1.4-2.1c-0.4-1.5-0.9-3.1-1.5-4.5
	c-0.3-0.8-0.6-1.5-0.9-2.2c-0.3-0.8-0.6-1.5-0.7-2.4c-0.2-0.8-0.1-1.7,0.2-2.5C165.3,21.5,165.9,20.9,166.8,20.6z"/>
<path class="st0" d="M193.7,31.9c0.4,1,0.4,2.2,0,3.2c-0.2,0.6-0.7,1-1.2,1.3c-0.5,0.2-1.1,0.2-1.7,0c0.5-0.1,1-0.2,1.4-0.5
	c0.4-0.3,0.7-0.6,0.8-1.1C193.4,33.9,193.6,32.9,193.7,31.9z"/>
<path class="st0" d="M198.7,13c-0.1,2.3-0.1,4.5,0,6.8c0.1,1.1,0.2,2.2,0.4,3.4c0.2,1.1,0.5,2.2,0.7,3.3c0.4,2.3,0.4,4.6-0.1,6.9
	c-0.5,2.2-1.2,4.4-2.2,6.5c0.7-2.2,1.3-4.4,1.6-6.6c0.3-2.2,0.3-4.5-0.1-6.7c-0.2-1.1-0.5-2.2-0.6-3.3c-0.2-1.1-0.3-2.3-0.3-3.4
	C198.1,17.6,198.3,15.3,198.7,13z"/>
<path class="st0" d="M171.5,42.7c-0.1,1.3-0.6,2.6-1.4,3.6c-0.4,0.5-0.9,1-1.5,1.4c-0.6,0.4-1.2,0.5-1.9,0.6c0.6-0.3,1.1-0.6,1.6-1
	c0.5-0.4,0.9-0.9,1.2-1.4c0.4-0.5,0.7-1,1-1.6C170.9,43.8,171.2,43.2,171.5,42.7z"/>
<path class="st0" d="M170.9,44.4c-5,1-9.9,2.5-14.7,4.5c-2.5,0.9-5,1.4-7.6,1.6c-2.5,0.1-5.1,0.4-7.6,0.9c-0.6,0.1-1.1,0.3-1.6,0.6
	c-0.6,0.4-1.2,0.7-1.8,0.9c-1.1,0.4-2.2,1.1-3.1,1.9c-1.7,1.8-3.2,3.9-4.2,6.1c-0.6,1.1-1.1,2.3-1.6,3.5s-1,2.4-1.4,3.6
	s-0.9,2.4-1.3,3.6l-1.1,3.7l0,0c-2.4,6-4.6,12.1-6.5,18.2c-1,3.1-1.9,6.2-2.7,9.3c-0.4,1.6-0.8,3.1-1,4.7c-0.1,0.8-0.2,1.6-0.3,2.3
	c0,0.4,0,0.7,0,1.1c0,0.3,0.1,0.5,0.2,0.7l-0.3-0.1c5.7,1.1,11.4,2.2,17.1,3.3l8.5,1.6l4.3,0.7c1.4,0.2,2.9,0.4,4.2,0.5h0.4l0,0
	l0.1-0.1c0.2-0.2,0.4-0.5,0.5-0.7c0.3-0.6,0.5-1.3,0.7-1.9c0.4-1.4,0.7-2.8,0.9-4.2c0.5-2.8,0.8-5.7,0.9-8.6
	c0.2-2.9,0.2-5.8,0.2-8.6s-0.2-5.8-0.5-8.6c0,0,0-0.1,0.1-0.1s0.1,0,0.1,0.1c0.5,2.9,0.8,5.8,1,8.6s0.2,5.8,0.2,8.7
	c-0.1,2.9-0.3,5.8-0.7,8.7c-0.2,1.5-0.5,2.9-0.9,4.3c-0.2,0.7-0.4,1.5-0.8,2.2c-0.2,0.4-0.4,0.8-0.7,1.1c-0.1,0.1-0.2,0.2-0.3,0.3
	c-0.1,0.1-0.3,0.2-0.5,0.2h-0.7c-1.5-0.1-3-0.3-4.4-0.5l-4.3-0.7c-2.9-0.5-5.7-1-8.6-1.6c-5.7-1.1-11.4-2.3-17-3.5l0,0
	c-0.1,0-0.2-0.1-0.2-0.1c-0.4-0.4-0.6-0.9-0.6-1.5c0-0.4,0-0.9,0-1.3c0.1-0.8,0.2-1.6,0.4-2.4c0.3-1.6,0.7-3.2,1.2-4.7
	c0.9-3.1,1.9-6.2,3-9.2s2.2-6.1,3.3-9.1l3.4-9.1l0,0c1.3-5,3-9.9,5-14.6c1-2.4,2.5-4.7,4.3-6.6c1-0.9,2.2-1.6,3.4-2.1
	c0.6-0.2,1.1-0.5,1.6-0.8c0.6-0.4,1.3-0.6,2-0.8c2.6-0.4,5.2-0.7,7.8-0.8c1.3-0.1,2.5-0.2,3.8-0.5c1.2-0.2,2.5-0.5,3.7-0.9
	c4.8-1.8,9.9-3.1,15-3.8c0,0,0.1,0,0.1,0.1c0,0,0,0.1,0,0.1C171,44.5,170.9,44.5,170.9,44.4z"/>
<path class="st0" d="M187.1,58.8c-0.1,0.6-0.1,1.2-0.1,1.8c0,0.6,0.1,1.2,0.1,1.9l0.4,3.7c0.3,2.5,0.6,4.9,0.9,7.4l0.5,3.7
	c0.3,1.3,0.1,2.7-0.6,3.8c-0.9,1.2-2.6,1.4-3.7,0.4c0,0,0,0,0,0c-0.6-0.4-0.9-1.1-1-1.8l-0.2-1.9c-0.3-2.4-0.6-4.9-1-7.4
	c-0.2-1.2-0.4-2.4-0.7-3.6c-0.1-0.3-0.2-0.6-0.3-0.8c0-0.1-0.2-0.2-0.3-0.2l-0.4-0.1c-0.6-0.2-1.1-0.5-1.7-0.7
	c-2.3-0.9-4.6-1.8-7-2.5c-1.2-0.4-2.4-0.9-3.5-0.5c-1.1,0.5-1.7,1.6-1.6,2.8c0,0.1-0.1,0.2-0.2,0.2c-0.1,0-0.2,0-0.2-0.1
	c-0.6-1.1-1.4-2.2-2.2-3.2c-0.8-1-1.7-1.9-2.7-2.7c-0.5-0.4-1.1-0.7-1.6-0.9c-0.6-0.2-1.3-0.5-1.9-0.8c-1.2-0.7-2.2-1.7-3-2.8
	c0,0,0,0,0-0.1l0,0c-0.2-0.7-0.1-1.4,0.3-2c0.3-0.6,0.7-1.1,1.2-1.5c1-0.8,2-1.5,3.1-2.1c2.2-1.1,4.5-2,6.9-2.7c0.2,0,0.3,0,0.4,0.2
	c0,0.1,0,0.2,0,0.2l0,0c-0.4,0.6-0.6,1.4-0.7,2.1c-0.1,0.4-0.1,0.8-0.1,1.1c0.1,2,0.7,3.9,1.8,5.5c0.4,0.7,0.9,1.3,1.4,1.9
	c0.5,0.6,1,1.2,1.6,1.8s1.1,1.1,1.7,1.6l1.8,1.5c0,0,0,0,0,0.1 M174.4,62l-1.9-1.4c-0.6-0.5-1.2-1.1-1.8-1.6s-1.1-1.1-1.7-1.7
	c-0.5-0.6-1-1.3-1.4-1.9c-0.9-1.3-1.6-2.9-1.9-4.4c-0.1-0.4-0.1-0.8-0.1-1.2c0-0.4,0-0.8,0.1-1.2c0.1-0.8,0.4-1.7,0.8-2.4l0.3,0.5
	c-2.3,0.7-4.6,1.6-6.8,2.7c-1.1,0.5-2.1,1.2-3,2c-0.9,0.6-1.4,1.7-1.3,2.8V54c0.7,1.1,1.6,2,2.7,2.6c0.5,0.3,1.1,0.6,1.7,0.8
	c0.7,0.2,1.3,0.6,1.8,1c1.1,0.8,2,1.8,2.8,2.9c0.8,1.1,1.5,2.2,2.2,3.4l-0.5,0.1c0-0.7,0.2-1.3,0.5-1.9c0.3-0.6,0.8-1.1,1.5-1.3
	c1.3-0.4,2.6,0.2,3.7,0.6c2.3,0.8,4.6,1.7,6.9,2.6l1.7,0.7l0.4,0.2c0.2,0,0.3,0.2,0.4,0.3c0.1,0.3,0.3,0.6,0.3,0.9
	c0.4,1.2,0.6,2.4,0.8,3.6c0.5,2.4,0.8,4.9,1.2,7.3l0.2,1.8c0.1,0.5,0.3,1,0.8,1.4c0.9,0.7,2.2,0.5,2.9-0.3c0.3-0.5,0.5-1,0.5-1.6
	c0.1-0.6,0-1.2-0.1-1.8l-0.4-3.7c-0.3-2.5-0.5-4.9-0.7-7.4c-0.1-1.2-0.2-2.5-0.2-3.7c0-0.6,0-1.2,0-1.9c0-0.6,0-1.3,0.2-1.9l0,0l0,0
	L174.4,62z"/>
<path class="st0" d="M190.2,50.8c0.5,0.7,0.9,1.4,1.3,2.2c0.2,0.4,0.3,0.8,0.5,1.2c0.1,0.4,0.2,0.8,0.3,1.2c0.2,0.9,0.1,1.8-0.2,2.6
	c-0.3,0.9-0.9,1.6-1.8,2c-0.1,0.1-0.3,0-0.4-0.1c0,0,0-0.1,0-0.1l0,0c-0.1-1.2-0.4-2.4-0.8-3.5c-0.2-0.6-0.5-1.1-0.9-1.5
	c-0.2-0.2-0.5-0.3-0.7-0.4c-0.3,0-0.5,0.2-0.7,0.4c-0.7,1-1.2,2.1-1.5,3.3c-0.4,1.2-0.6,2.3-0.9,3.5v-0.1l0.3,2.2
	c0,0.2-0.1,0.4-0.3,0.4c0,0,0,0,0,0c-0.2,0-0.4-0.1-0.4-0.3l0,0c-0.2-1-0.3-2-0.3-3.1c-0.1-1-0.1-2,0-3.1c0.1-2,0.3-4,0.6-6l0,0l0,0
	c-0.1,2-0.1,4-0.1,6c0,2,0.1,4,0.4,6l-0.7,0.1l-0.2-2.2l0,0c0,0,0-0.1,0-0.1c0.3-1.2,0.6-2.4,1.1-3.5c0.4-1.2,1-2.3,1.7-3.3
	c0.2-0.3,0.5-0.4,0.9-0.5c0.3,0.1,0.6,0.2,0.9,0.4c0.4,0.5,0.8,1,1,1.6c0.5,1.1,0.8,2.3,1.1,3.6l-0.4-0.2c0.6-0.4,1.1-1,1.4-1.7
	c0.3-0.7,0.4-1.5,0.2-2.3c0-0.4-0.1-0.8-0.2-1.2s-0.2-0.8-0.4-1.2s-0.3-0.8-0.5-1.1l-0.5-1.1c0,0,0,0,0-0.1S190.2,50.8,190.2,50.8z"
	/>
<path class="st0" d="M185.2,67.2c0.6,0,1-0.5,1-1s-0.5-1-1-1s-1,0.5-1,1S184.7,67.2,185.2,67.2z"/>
<path class="st0" d="M186,72.9c0.6,0,1-0.5,1-1s-0.5-1-1-1s-1,0.5-1,1S185.4,72.9,186,72.9z"/>
<path class="st0" d="M186.6,78.4c0.6,0,1-0.5,1-1s-0.5-1-1-1s-1,0.5-1,1S186,78.4,186.6,78.4z"/>
<path class="st0" d="M193.2,48.8c4.1,0.1,8.2,0.4,12.4,0.8c2.1,0.2,4.1,0.5,6.1,0.8c2.1,0.3,4.1,0.8,6,1.6c0.3,0.1,0.5,0.3,0.7,0.5
	c0.2,0.2,0.4,0.4,0.6,0.6c0.3,0.4,0.7,0.7,1.1,1.1c0.8,0.7,1.5,1.5,2.1,2.4c1.2,1.8,2,3.7,2.5,5.7c1,4,1.7,8.1,1.9,12.2
	c-0.5-4.1-1.3-8.1-2.4-12.1c-0.6-2-1.4-3.8-2.5-5.5c-0.6-0.8-1.3-1.6-2-2.3c-0.4-0.4-0.8-0.7-1.1-1.1c-0.3-0.4-0.7-0.7-1.1-0.9
	c-1.9-0.8-3.8-1.3-5.8-1.6c-2-0.4-4.1-0.6-6.1-0.9C201.4,49.6,197.3,49.2,193.2,48.8z"/>
<path class="st0" d="M136.5,57.6c1.9-0.4,3.9-0.2,5.6,0.6c1.8,0.9,3.3,2.2,4.4,3.8c0.5,0.8,1,1.6,1.4,2.5c0.4,0.9,0.7,1.8,1,2.7
	s0.5,1.9,0.6,2.8s0.2,1.9,0.3,2.8c-0.2-0.9-0.4-1.9-0.6-2.8s-0.5-1.8-0.8-2.7s-0.7-1.8-1.1-2.6c-0.4-0.8-0.9-1.6-1.4-2.4
	c-1-1.5-2.4-2.8-4-3.7C140.3,57.8,138.4,57.4,136.5,57.6z"/>
<path class="st0" d="M161,101.1c0.5,1.3,1,2.5,1.5,3.7s1.2,2.4,1.8,3.6c1.3,2.4,2.7,4.6,4.3,6.8c1.6,2.2,3.4,4.1,5.4,5.9l1.5,1.3
	c0.5,0.4,1.1,0.8,1.6,1.2l0.8,0.6c0.3,0.2,0.6,0.3,0.9,0.5l1.7,1c-2.5-1.1-4.8-2.5-6.9-4.2c-2.1-1.7-4-3.7-5.6-5.9
	c-1.6-2.2-3-4.5-4.2-6.9C162.6,106.3,161.7,103.8,161,101.1z"/>
<path class="st0" d="M117.9,112.8c0,4.1-0.1,8.2-0.2,12.4s-0.2,8.2-0.3,12.4v0c-0.3,1.6,0,3.3,0.6,4.9c0.7,1.5,1.9,2.6,3.4,3.2
	c0.4,0.1,0.8,0.3,1.2,0.4l1.2,0.2c0.9,0.1,1.7,0.2,2.6,0.3c1.7,0.2,3.5,0.4,5.2,0.5c7,0.6,14,0.9,21,1.1c7,0.2,14-0.1,21-0.7
	c6.9-0.7,14-1.7,20.2-4.7c0.1-0.1,0.3,0,0.4,0.1c0.5,0.8,1.2,1.4,2,1.8c0.8,0.4,1.7,0.7,2.7,0.7c0.9,0,1.9-0.1,2.8-0.3l1.4-0.4
	l1.3-0.6l-1.3,0.6l-1.4,0.5c-0.9,0.3-1.9,0.4-2.9,0.4c-2,0-3.9-0.9-5.1-2.6l0.4,0.1c-3.1,1.6-6.5,2.9-10,3.6
	c-3.5,0.8-7,1.4-10.5,1.8c-7,0.7-14.1,1-21.1,0.9c-7,0-14.1-0.5-21.1-1.1c-1.8-0.1-3.5-0.3-5.2-0.5c-0.9-0.1-1.8-0.2-2.6-0.3
	l-1.4-0.3c-0.4-0.1-0.9-0.3-1.3-0.4c-1.8-0.7-3.2-2.1-4-3.9c-0.7-1.7-0.9-3.6-0.5-5.5v0.1c0.2-4.1,0.4-8.2,0.6-12.3
	S117.6,116.9,117.9,112.8z"/>
<path class="st0" d="M143.4,117.7c0.1,2.3,0.2,4.5,0.3,6.8l-0.2-0.2c8,2.9,16.3,4.5,24.8,4.7c4.2,0.1,8.4-0.2,12.5-1l3.1-0.7
	c1-0.2,2-0.6,3-0.9l1.5-0.5c0.5-0.2,1-0.4,1.5-0.6l2.9-1.2l-0.2,0.4c0.1-0.7,0.4-1.3,0.8-1.9c0.4-0.6,0.8-1,1.4-1.4
	c1.1-0.7,2.3-1.2,3.5-1.4c0.6-0.1,1.2-0.2,1.9-0.2c0.6,0,1.2-0.1,1.9,0s1.2,0.1,1.9,0.1l1.8,0.3l-1.9-0.1c-0.6,0-1.2,0-1.9,0
	s-1.2,0.1-1.8,0.1c-0.6,0.1-1.2,0.2-1.8,0.4c-1.2,0.3-2.3,0.8-3.2,1.5c-0.9,0.7-1.5,1.7-1.7,2.8l0,0c0,0.1-0.1,0.3-0.2,0.3
	c-3.8,2-7.9,3.5-12.1,4.4c-4.2,0.8-8.5,1.2-12.8,1c-4.3-0.2-8.6-0.7-12.8-1.7c-2.1-0.5-4.1-1-6.2-1.7c-2-0.6-4-1.4-6-2.2l0,0
	c-0.1,0-0.1-0.1-0.1-0.2C143.3,122.2,143.3,119.9,143.4,117.7z"/>
<path class="st0" d="M123.4,129.7c1.1-1.5,2.4-2.7,4-3.7c1.6-0.9,3.3-1.6,5.1-2.1c0.9-0.2,1.8-0.3,2.7-0.4c0.9-0.1,1.8-0.1,2.8,0
	c0.9,0,1.8,0.2,2.7,0.3s1.8,0.4,2.7,0.6c-0.9-0.1-1.8-0.2-2.7-0.3s-1.8-0.1-2.7-0.1c-1.8,0-3.5,0.1-5.2,0.5c-1.7,0.4-3.4,1-5,1.9
	C126.2,127.3,124.7,128.4,123.4,129.7z"/>
<path class="st0" d="M193,124.5c0.3,0.6,0.6,1.2,1,1.7c0.3,0.5,0.8,1,1.3,1.4c0.1,0.1,0.3,0.1,0.4,0.2c0.2,0.1,0.4,0.2,0.5,0.3
	c0.3,0.3,0.3,0.8,0.2,1.2c-0.2,0.7-0.6,1.3-1.1,1.8l0,0l0,0c-0.5,0.5-0.9,1.1-1.1,1.8c-0.2,0.6-0.1,1.3,0.2,1.9
	c0.3,0.5,1.1,1.1,1.4,1.9c0.2,0.4,0.1,0.9-0.1,1.3c-0.2,0.4-0.6,0.7-1,0.8l0.1-0.1c-0.5,0.6-1,1.3-1.2,2c-0.1,0.4-0.2,0.8-0.1,1.1
	c0.1,0.4,0.3,0.8,0.5,1.1c-0.3-0.3-0.6-0.6-0.7-1c-0.1-0.4-0.1-0.9,0-1.3c0.1-0.4,0.2-0.8,0.5-1.2c0.2-0.4,0.4-0.7,0.7-1.1l0.1-0.1
	l0,0c0.3-0.1,0.5-0.4,0.7-0.6c0.1-0.3,0.1-0.6,0-0.9c-0.2-0.6-0.8-1-1.3-1.8c-0.2-0.4-0.4-0.8-0.5-1.2c-0.1-0.4,0-0.9,0.1-1.3
	c0.3-0.8,0.7-1.5,1.4-2l0,0c0.4-0.5,0.8-1,1-1.6c0.1-0.2,0.1-0.5,0-0.7c-0.1-0.1-0.2-0.2-0.3-0.2c-0.2-0.1-0.3-0.2-0.5-0.3
	c-0.6-0.4-1-1-1.3-1.6C193.5,125.7,193.2,125.1,193,124.5z"/>
<path class="st0" d="M205.3,125.2l-0.1,1.2c-0.8,0-1.7,0-2.5-0.1c-1-0.1-1.9-0.2-2.9-0.5c1-0.2,1.9-0.4,2.9-0.5
	C203.6,125.2,204.5,125.2,205.3,125.2z"/>
<path class="st0" d="M205.1,129.8c0,0.4,0,0.8-0.1,1.2c-0.8,0-1.5-0.1-2.3-0.1c-1-0.1-1.9-0.2-2.9-0.5c1-0.2,1.9-0.4,2.9-0.5
	C203.6,129.8,204.3,129.8,205.1,129.8z"/>
<path class="st0" d="M204.9,134.2c0,0.4,0,0.8,0,1.2c-0.7,0-1.4-0.1-2.1-0.1c-1-0.1-1.9-0.2-2.9-0.5c1-0.2,1.9-0.4,2.9-0.5
	C203.5,134.3,204.2,134.3,204.9,134.2z"/>
<path class="st0" d="M202.8,139.7c0.6-0.1,1.3-0.1,1.9-0.1c0,0.4,0,0.8,0,1.2c-0.6,0-1.3,0-1.9-0.1c-1-0.1-1.9-0.2-2.9-0.5
	C200.8,140,201.8,139.8,202.8,139.7z"/>
<path class="st0" d="M181.5,150c0,0-12.4-12.3-17-4.3s-1.5,13.8,2,17.7c4.2,4.8,4.4,6.2,5.6,7.6s15.3,18.6,32.8,17.6
	c10.2-0.6,10-6,8.1-10.4c-1.4-3.1-3.6-5.8-6.5-7.8C201,166.5,188.5,157.5,181.5,150z"/>
<path class="st0" d="M177.3,146.5c2.7,0.1,5.3,0.3,8,0.5l8,0.5c2.7,0.2,5.3,0.4,8,0.5c1.3,0.1,2.7,0.1,4,0.1c0.7,0,1.3,0,2,0l1-0.1
	l1-0.1c-2.6,0.5-5.3,0.7-8,0.6c-2.7,0-5.3-0.2-8-0.4s-5.3-0.4-8-0.7S179.9,146.9,177.3,146.5z"/>
<path class="st0" d="M203.9,168.9c-0.1,0-0.2-0.1-0.3-0.2c-0.1-0.2,0-0.4,0.1-0.5c0.5-0.3,13.3-7.8,18-6.2c0.2,0.1,0.3,0.3,0.2,0.5
	c-0.1,0.1-0.2,0.2-0.4,0.2c-4.5-1.5-17.3,6.1-17.5,6.2C204,168.8,203.9,168.9,203.9,168.9z"/>
<path class="st0" d="M279.9,118.2L279.9,118.2l30,11.1l0,0c3,1.4,5.8,3.1,8.5,5c2.7,2,5,4.3,7,7c1,1.3,1.8,2.8,2.3,4.4
	c0.5,1.6,0.9,3.2,1.2,4.8c0.7,3.3,0.4,6.7-0.7,9.9c-0.6,1.6-1.5,3-2.7,4.3c-1.2,1.2-2.5,2.3-4,3.1c-1.5,0.8-3.1,1.4-4.7,1.7
	c-0.8,0.2-1.6,0.3-2.5,0.4l-2.4,0.3c-6.5,0.7-13,1.4-19.5,2c-13,1.3-26,2.5-39,3.5c-3.2,0.2-6.5,0.5-9.8,0.7s-6.5,0.4-9.8,0.2
	c-1.7-0.1-3.3-0.8-4.6-1.9c-1.3-1-2.4-2.3-3.4-3.6c-1.9-2.7-3.4-5.7-4.5-8.8c0-0.1,0-0.3,0.1-0.3c0,0,0.1,0,0.1,0l0,0
	c1.4,0.2,2.8,0.2,4.2,0c0.6-0.1,1.4-0.4,1.5-0.9c0.1-0.6,0-1.3-0.4-1.9c-0.7-1.2-1.5-2.4-2.4-3.5c-0.9-1.1-1.8-2.2-2.7-3.3
	s-1.8-2.2-2.7-3.3c-0.8-1.2-1.8-2.2-3-3c-1.1-0.9-2.5-1.2-3.9-0.8c-1.3,0.5-2.3,1.5-2.9,2.7l0,0c-0.1,0.1-0.2,0.2-0.3,0.1
	c0,0,0,0,0,0c-0.1,0-0.1-0.1-0.1-0.1c-0.5-1.4-0.7-2.8-0.7-4.3c0-0.7,0.1-1.5,0.4-2.2c0.2-0.7,0.7-1.4,1.3-1.8l0,0
	c0.6-0.5,1.2-0.9,1.9-1.1c0.7-0.3,1.4-0.5,2-0.7c1.4-0.4,2.8-0.8,4.2-1.1c2.8-0.6,5.6-1.1,8.4-1.6c5.6-0.9,11.3-1.6,17-2.2
	c11.4-1.3,22.7-2.3,34.1-3.1l-0.5,0.5c0.7-4.5,1.7-8.9,2.5-13.4l2.7-13.3l5.5-26.5l0.2,0.7c-0.6-0.3-1.3-0.6-2-0.7
	c-0.8-0.2-1.5-0.3-2.3-0.4c-1.6-0.2-3.1-0.4-4.7-0.5c-3.2-0.3-6.4-0.4-9.6-0.6c-6.4-0.3-12.8-0.4-19.2-0.5
	c-12.8-0.1-25.6,0-38.4,0.1l0.5-0.2c-0.4,0.5-0.8,1.1-1,1.8c-0.3,0.7-0.5,1.4-0.7,2.1c-0.4,1.5-0.7,3-1,4.5c-0.5,3-1,6.1-1.3,9.1
	c-0.7,6.1-1.3,12.2-1.7,18.4s-0.8,12.3-1.1,18.5s-0.6,12.3-0.8,18.5l0,0c0,0.2-0.1,0.3-0.3,0.3c0,0,0,0,0,0l-26.2-0.5
	c0,0-0.1,0-0.1-0.1c0,0,0-0.1,0.1-0.1l26.3,0.2l-0.3,0.3c0.2-6.2,0.3-12.3,0.6-18.5s0.6-12.3,1-18.5s0.9-12.3,1.5-18.5
	c0.3-3.1,0.7-6.1,1.3-9.2c0.3-1.5,0.6-3.1,1-4.6c0.2-0.8,0.4-1.5,0.7-2.3c0.3-0.8,0.7-1.6,1.2-2.2c0.1-0.1,0.3-0.2,0.4-0.2l0,0
	c6.4-0.2,12.8-0.2,19.2-0.3s12.8,0,19.2,0c6.4,0,12.8,0.2,19.2,0.5c3.2,0.1,6.4,0.3,9.6,0.6c1.6,0.1,3.2,0.3,4.8,0.6
	c0.8,0.1,1.6,0.3,2.4,0.5c0.9,0.2,1.7,0.5,2.5,1c0.2,0.1,0.3,0.4,0.3,0.6l0,0l-5.6,26.5l-2.9,13.2c-0.9,4.4-1.9,8.9-2.6,13.2l0,0
	c0,0.2-0.2,0.4-0.5,0.4c-11.4,0.7-22.7,1.6-34.1,2.8c-5.7,0.6-11.3,1.3-17,2.1c-2.8,0.4-5.6,0.9-8.4,1.5c-1.4,0.3-2.8,0.6-4.1,1
	c-0.7,0.2-1.4,0.4-2,0.7c-0.6,0.2-1.2,0.6-1.8,1l0,0l0,0c-0.5,0.4-0.9,0.9-1.1,1.6c-0.2,0.6-0.3,1.3-0.3,2c0,1.4,0.2,2.8,0.6,4.1
	H209c0.7-1.4,1.8-2.4,3.2-3c1.5-0.4,3-0.1,4.2,0.9c1.2,0.9,2.2,1.9,3.1,3.1c0.9,1.1,1.8,2.2,2.7,3.3s1.8,2.2,2.7,3.3
	c0.9,1.1,1.8,2.3,2.5,3.6c0.4,0.7,0.6,1.5,0.4,2.2c-0.2,0.4-0.4,0.7-0.8,0.9c-0.3,0.2-0.7,0.3-1.1,0.4c-1.4,0.2-2.9,0.2-4.4,0
	l0.3-0.4c1.1,3.1,2.6,5.9,4.5,8.6c0.9,1.3,2,2.5,3.3,3.5c1.2,1,2.7,1.6,4.3,1.7c3.2,0.1,6.5-0.2,9.7-0.4s6.5-0.5,9.8-0.8
	c13-1.2,26-2.4,39-3.7l19.5-2c1.6-0.2,3.3-0.3,4.8-0.6c1.5-0.3,3-0.9,4.5-1.6c2.8-1.4,5-3.8,6.2-6.8c1-3,1.3-6.2,0.7-9.4
	c-0.3-1.6-0.7-3.1-1.2-4.7c-0.5-1.5-1.2-2.9-2.2-4.2c-1.9-2.6-4.1-4.9-6.7-6.9c-2.6-1.9-5.4-3.6-8.3-5l0,0L279.9,118.2L279.9,118.2
	c0-0.1-0.1-0.1-0.1-0.1c0,0,0-0.1,0.1-0.1L279.9,118.2z"/>
<path class="st0" d="M211.9,74.6c-5,5.7-7.4,73.3-7.4,73.3h4.8c0,0-2-5.9,0.9-8c5.3-5.4,67.5-9.5,67.5-9.5c0.1-1.2,1.1-5.9,2.3-12.1
	c3.2-15.8,8.6-40.9,8.6-40.9C283,73.1,211.9,74.6,211.9,74.6z M247.1,105.6c-6,0-10.9-1.4-10.9-3.2s4.9-3.2,10.9-3.2
	s10.9,1.4,10.9,3.2S253.1,105.6,247.1,105.6z"/>
<path class="st0" d="M142.4,148.5c-0.8,4.7-1.2,9.6-1.2,14.4c-0.1,4.8,0.4,9.6,1.4,14.3c1,4.6,2.9,9.2,6.1,12.7
	c1.6,1.7,3.5,3.1,5.6,4.2l1.6,0.9c0.5,0.3,1.1,0.5,1.6,0.8c1.1,0.5,2.1,1,3.3,1.5c4.4,1.9,8.9,3.5,13.5,5.1s9.2,2.9,13.8,4.3
	c9.2,2.7,18.6,5.1,27.9,7.5c4.8,1.3,8.9,4.5,11.4,8.8c0.6,1.1,1.1,2.2,1.5,3.4c0.4,1.2,0.6,2.4,0.8,3.6l1.2,7.1
	c1.6,9.5,3.2,19,4.9,28.5l10.2,57l-0.5-0.4c7.1,0.1,14.2,0,21.3-0.4c3.5-0.2,7.1-0.5,10.6-0.9c1.7-0.2,3.5-0.5,5.2-0.9
	c0.8-0.2,1.7-0.5,2.5-0.8c0.7-0.3,1.4-0.7,2-1.2l-0.2,0.5c-0.5-12.2-1.1-24.4-1.8-36.6c-0.6-12.2-1.4-24.4-2.2-36.6
	c-0.8-12.2-1.8-24.4-3.1-36.5c-0.7-6.1-1.4-12.1-2.4-18.1c-0.5-3-1-6-1.8-9c-0.4-1.5-0.8-2.9-1.3-4.4c-0.3-0.7-0.6-1.4-1-2
	c-0.3-0.7-0.9-1.2-1.6-1.4l0,0c0,0-0.1,0-0.1-0.1c0,0,0-0.1,0.1,0c0.8,0.2,1.4,0.8,1.8,1.5c0.4,0.7,0.7,1.3,1,2.1
	c0.6,1.4,1,2.9,1.4,4.4c0.8,3,1.4,6,2,9c1.1,6,1.9,12.1,2.7,18.1c1.5,12.1,2.6,24.3,3.6,36.5s1.7,24.4,2.4,36.6s1.2,24.4,1.7,36.6
	l0,0c0,0.2-0.1,0.3-0.2,0.5c-0.7,0.7-1.6,1.2-2.5,1.5c-0.9,0.3-1.7,0.6-2.6,0.8c-1.8,0.4-3.5,0.7-5.3,0.9c-3.6,0.5-7.1,0.7-10.7,0.9
	c-7.2,0.3-14.3,0.3-21.4,0.1c-0.2,0-0.4-0.2-0.5-0.4l-9.6-57.1c-1.6-9.5-3.4-19-5-28.5l-1.3-7.1c-0.2-1.2-0.5-2.3-0.8-3.5
	c-0.4-1.1-0.9-2.2-1.5-3.2c-2.4-4.1-6.4-7.1-11-8.2c-9.4-2.2-18.7-4.6-28-7.3c-4.6-1.3-9.2-2.8-13.8-4.4s-9.1-3.2-13.5-5.2
	c-1.1-0.5-2.2-1-3.3-1.5c-0.5-0.3-1.1-0.5-1.6-0.8l-1.6-0.9c-2.2-1.2-4.1-2.7-5.8-4.5c-3.3-3.7-5.1-8.5-6.1-13.2
	c-0.9-4.8-1.3-9.6-1.1-14.5c0.2-4.8,0.7-9.6,1.6-14.4C142.3,148.4,142.3,148.4,142.4,148.5C142.4,148.5,142.4,148.5,142.4,148.5z"/>
<path class="st0" d="M256.5,331.4c0,0-6-0.6-6,2.2s0.5,23.7,3,24.3c2.5,0.6,75.1,25.7,94.5,5.3c0,0,13.4-7.4-11.9-16.1
	c-25.3-8.7-41.2-17.4-41.2-17.4s-24.1,0.7-24.5,3.2s3.2,11.4,3.2,11.4S257.8,348.1,256.5,331.4z"/>
<path class="st0" d="M256.5,331.7L256.5,331.7c-0.3,0-0.4-0.2-0.3-0.4c0,0,0,0,0,0c0.7-2.9,0.1-5.9-1.4-8.4
	c-0.1-0.2-0.1-0.4,0.1-0.5c0,0,0,0,0,0c0.2-0.1,0.4-0.1,0.5,0.1c1.7,2.7,2.3,5.9,1.5,9C256.8,331.6,256.7,331.7,256.5,331.7z"/>
<path class="st0" d="M292,330.1L292,330.1c-7.5-0.2-14.8-8.1-15.1-8.4c-0.1-0.1-0.1-0.4,0-0.5c0.1-0.1,0.4-0.1,0.5,0
	c0.1,0.1,7.4,7.9,14.6,8.2c0.2,0,0.3,0.2,0.3,0.4C292.3,329.9,292.2,330.1,292,330.1C292,330.1,292,330.1,292,330.1z"/>
<path class="st0" d="M119.1,144.8h-0.1l-0.1-0.1L119.1,144.8z"/>
<path class="st0" d="M140.9,168.5L140.9,168.5l0.1-0.5L140.9,168.5z"/>
<path class="st0" d="M278.4,194.7L278.4,194.7h-0.1H278.4z"/>
<path class="st0" d="M109.1,202.1l1.2,20.7l1.1,20.7c0.4,6.9,0.9,13.8,1,20.7c0.1,3.5,0.1,6.9,0.1,10.4l-0.1,5.2
	c-0.1,1.7-0.1,3.5-0.2,5.2c0,0.1-0.1,0.1-0.1,0.1c0,0,0,0,0,0c0,0-0.1,0-0.1-0.1c-0.2-1.7-0.4-3.4-0.6-5.2l-0.4-5.2
	c-0.3-3.4-0.5-6.9-0.7-10.4c-0.4-6.9-0.4-13.8-0.6-20.7l-0.4-20.7l-0.4-20.7C108.9,202,108.9,202,109.1,202.1
	C109.1,202,109.1,202,109.1,202.1L109.1,202.1z"/>
<path class="st0" d="M165.4,241.2l0.6,21.1l0.5,21.1c0.2,7,0.5,14.1,0.4,21.1c0,3.5-0.1,7-0.2,10.5l-0.2,5.3
	c-0.1,1.8-0.2,3.5-0.3,5.3c0,0,0,0.1-0.1,0.1c0,0,0,0,0,0c0,0-0.1,0-0.1-0.1c-0.2-1.8-0.3-3.5-0.4-5.3l-0.3-5.3
	c-0.2-3.5-0.3-7-0.4-10.5c-0.2-7,0-14.1,0-21.1l0.1-21.1l0.2-21.1c0-0.1,0-0.1,0.1-0.1c0,0,0,0,0,0
	C165.3,241.1,165.3,241.2,165.4,241.2C165.4,241.2,165.4,241.2,165.4,241.2z"/>
<ellipse class="st0" cx="112" cy="283.4" rx="8.8" ry="1.6"/>
<ellipse class="st0" cx="165.6" cy="324.3" rx="8.8" ry="1.6"/>
<path class="st0" d="M223.8,227.6l0.8,9.7l0.7,9.7c0.2,3.2,0.6,6.5,0.6,9.7c0,3.3-0.2,6.5-0.6,9.7c0,0.1-0.1,0.1-0.1,0.1
	c0,0,0,0,0,0c0,0-0.1,0-0.1-0.1c-0.6-3.2-1.1-6.4-1.3-9.7c-0.3-3.2-0.1-6.5-0.1-9.7l0-9.7l0-9.7c0-0.1,0.1-0.1,0.1-0.1
	C223.8,227.5,223.8,227.5,223.8,227.6L223.8,227.6z"/>
<path class="st0" d="M300.8,205.4l0.6,20.8l0.5,20.9c0.2,6.9,0.5,13.9,0.4,20.8c0,3.5-0.1,7-0.2,10.4l-0.2,5.2
	c-0.1,1.7-0.2,3.5-0.3,5.2c0,0-0.1,0.1-0.1,0.1c0,0-0.1,0-0.1-0.1c-0.2-1.7-0.3-3.5-0.4-5.2l-0.3-5.2c-0.2-3.5-0.3-7-0.4-10.4
	c-0.2-7,0-13.9,0-20.9l0.1-20.9l0.2-20.9c0-0.1,0-0.1,0.1-0.1l0,0c0-0.1,0.1-0.1,0.2,0C300.9,205.3,300.9,205.4,300.8,205.4z"/>
<ellipse class="st0" cx="225.2" cy="264.8" rx="8.8" ry="1.6"/>
<ellipse class="st0" cx="301" cy="287.5" rx="8.8" ry="1.6"/>
<path class="st0" d="M209.2,148.3h-4.8c-0.2,0-0.3-0.2-0.3-0.3c0-0.2,0.2-0.3,0.3-0.4h4.8c0.2,0,0.4,0.2,0.4,0.3v0
	C209.6,148.1,209.4,148.3,209.2,148.3z"/>
</svg>
