<?xml version="1.0" encoding="utf-8"?>
<!-- Generator: Adobe Illustrator 24.2.3, SVG Export Plug-In . SVG Version: 6.00 Build 0)  -->
<svg version="1.1" id="Layer_1" xmlns="http://www.w3.org/2000/svg" xmlns:xlink="http://www.w3.org/1999/xlink" x="0px" y="0px"
	 viewBox="0 0 441 371.1" style="enable-background:new 0 0 441 371.1;" xml:space="preserve">
<style type="text/css">
	.st0{fill:#2D3E50;}
	.st1{fill:#2D3E50;stroke:#000000;stroke-width:0.74;stroke-miterlimit:10;}
</style>
<path class="st0" d="M223.6,37c1.2-0.8,2.6-1.5,4-1.9c1.4-0.5,2.9-0.8,4.4-1c0.8-0.1,1.5-0.1,2.3-0.1c0.8,0,1.5,0.1,2.3,0.2
	c1.5,0.2,3,1,4,2.2c-1.3-0.6-2.7-1-4.1-1c-1.4-0.1-2.8,0-4.2,0.2C229.3,35.8,226.5,36.5,223.6,37z"/>
<path class="st0" d="M228.4,43.2c2.8,0,2.8-4.3,0-4.3S225.6,43.2,228.4,43.2z"/>
<path class="st0" d="M225.4,11.7c-1,4.5-2.1,8.9-3.3,13.4c-0.6,2.2-1.2,4.4-1.8,6.6l-0.5,1.6c-0.1,0.4-0.1,0.8,0,1.2
	c0.1,0.4,0.3,0.8,0.6,1.1l0.3,0.4c0.1,0.2,0.2,0.3,0.3,0.5c0.2,0.3,0.3,0.7,0.4,1.1c0.1,0.7,0.1,1.5-0.2,2.2c-0.1,0.4-0.3,0.7-0.6,1
	c-0.2,0.3-0.4,0.4-0.6,0.7c-0.7,0.9-1.5,1.7-2.2,2.6c-1.4,1.7-2.8,3.5-4,5.4c-0.6,0.9-1.1,1.9-1.6,2.9c-0.4,0.9-0.6,1.8-0.5,2.8
	c0,0.2,0.1,0.3,0.2,0.5l0.5,0.6l0.5,0.6c0.2,0.2,0.4,0.3,0.6,0.4c0.3,0.3,0.7,0.4,1.1,0.4c0.4-0.1,0.7-0.3,0.9-0.6v-0.1
	c0.7-0.9,1.7-1.4,2.7-1.6c0.5,0,1,0,1.5,0.1l0.7,0.2l0.3,0.1h0.3c0.7,0,1.2-0.9,1.3-1.8c0.1-0.9,0.2-1.8,0.1-2.8
	c0.2,0.9,0.3,1.9,0.3,2.8c0,0.5-0.1,1-0.3,1.4c-0.2,0.5-0.7,0.9-1.3,1c-0.3,0.1-0.5,0.1-0.8,0l-0.7-0.1c-0.4-0.1-0.8-0.1-1.2,0
	c-0.8,0.2-1.5,0.6-1.9,1.3v-0.1c-0.2,0.3-0.4,0.6-0.7,0.9c-0.3,0.3-0.6,0.4-1,0.5c-0.7,0.1-1.5,0-2.1-0.4c-0.6-0.3-1.1-0.7-1.5-1.2
	l-0.6-0.7c-0.2-0.3-0.4-0.6-0.5-1c-0.2-0.7-0.2-1.4-0.1-2.1c0.1-0.6,0.3-1.2,0.5-1.8c0.4-1.1,1-2.2,1.6-3.2c1.2-2,2.6-3.9,4.1-5.6
	c0.7-0.9,1.5-1.8,2.3-2.6l0.5-0.6c0.1-0.2,0.2-0.3,0.3-0.5c0.2-0.4,0.2-0.8,0.1-1.1c0-0.2-0.1-0.4-0.2-0.5c0-0.1-0.1-0.1-0.1-0.2
	l-0.3-0.3c-0.5-0.5-0.8-1.2-1-1.9c-0.2-0.7-0.2-1.5,0-2.2l0.5-1.6c0.7-2.2,1.4-4.4,2.1-6.5C222.2,20.3,223.8,16,225.4,11.7z"/>
<path class="st1" d="M225.4,11.7"/>
<path class="st0" d="M216.3,57.1"/>
<path class="st0" d="M225.4,11.7c0,0,7.8-15.3,53.8-10.9c0,0,12.5,0.2,11.8,21.7c0,0,9.4-10.3,13.9,3.2c4.5,13.5-10.5,26-13.7,20.1
	c0,0,1.4,22.8-13.4,6.8c0,0,6.5-15.1-3.6-19c-2.2-0.9-4.6,0.2-5.5,2.3c-0.7,1.9-1,3.8-0.9,5.8c0,9.1,0.7,25.1-10.3,39.6
	c0,0-10.1,12.6-23,13.3c-3.9,0.2-7.6-1.4-10.1-4.4c-4-4.8-9.3-14.8-8-33.1c0,0,11.6,2.5,12.1,3s5.7,13,9.8,11.8s18.9-9.1,18.9-14.8
	s0.1-25.5-3.2-29.1c0,0-7.1,0.6-7.7-3.6c-0.4-3.4,1.8-7.7-2.6-11c-2.1-1.6-4.8-2.2-7.4-1.7C232.8,12.2,227.5,12.9,225.4,11.7
	L225.4,11.7z"/>
<path class="st0" d="M272,55c1.1,0.2,2.2,0.2,3.3-0.1c0.5-0.2,0.9-0.5,1.3-0.9c0.2-0.2,0.4-0.4,0.6-0.6c0.2-0.2,0.3-0.5,0.5-0.7
	c0,0.3-0.1,0.6-0.1,0.9c-0.1,0.3-0.2,0.6-0.4,0.9c-0.4,0.6-0.9,1.1-1.5,1.3c-0.6,0.2-1.3,0.3-2,0.1C273.1,55.7,272.5,55.4,272,55z"
	/>
<path class="st0" d="M211.4,56.1c-1.6-1.1-3.3-1.9-5.2-2.4c-1.8-0.6-3.7-0.9-5.6-1.1c-1.9-0.2-3.8-0.2-5.7,0
	c-0.9,0.1-1.9,0.2-2.8,0.3s-1.9,0.3-2.8,0.5l0.6-0.5c-0.4,1.6-0.7,3.2-0.9,4.8c-0.2,1.6-0.2,3.3-0.3,5c-0.1,3.4,0.2,6.7,0.6,10.1
	l0.4,2.5l0.5,2.5c0.3,1.7,0.8,3.3,1.3,4.9s1.1,3.2,1.6,4.8s1.3,3.1,1.9,4.7l-0.2-0.2c1.7,0.6,3.4,1.1,5.1,1.4
	c1.7,0.4,3.5,0.6,5.3,0.8c1.8,0.2,3.5,0.2,5.3,0.1c1.7-0.1,3.5-0.3,5.2-0.6l-0.5,0.3c1.6-2.1,3-4.4,4.2-6.7c1.2-2.3,2.3-4.8,3.3-7.3
	c1-2.5,1.7-5,2.3-7.6c0.6-2.6,1.1-5.2,1.4-7.9l0.4,0.6l-7.7-4.6C216.6,59,214,57.6,211.4,56.1z M211.5,56c2.6,1.4,5.2,2.8,7.9,4.1
	l8,3.9l0.4,0.2v0.4c-0.1,2.8-0.4,5.5-0.9,8.2c-0.5,2.7-1.3,5.4-2.2,7.9c-1,2.6-2.1,5.1-3.4,7.5c-1.3,2.4-2.9,4.7-4.6,6.9l-0.2,0.2
	h-0.3c-1.8,0.3-3.7,0.5-5.5,0.5c-1.8,0-3.7-0.1-5.5-0.4c-1.8-0.3-3.6-0.6-5.4-1.1c-1.8-0.5-3.5-1.1-5.2-1.8l-0.2-0.1l0-0.2l-1.8-4.8
	c-0.5-1.6-1.1-3.2-1.6-4.9l-0.7-2.5l-0.4-1.2l-0.3-1.2l-0.6-2.5l-0.5-2.5c-0.7-3.4-1.1-6.8-1.3-10.2c0-0.9,0-1.7,0-2.6
	s0.1-1.7,0.2-2.6c0.2-1.8,0.5-3.5,1.1-5.2l0.1-0.5l0.5-0.1c1-0.1,2-0.2,2.9-0.4s2-0.1,2.9-0.1c2,0,3.9,0.2,5.8,0.5
	c1.9,0.3,3.8,0.8,5.6,1.5C208.2,54,209.9,54.8,211.5,56L211.5,56z"/>
<path class="st0" d="M194.8,54.1c0.1,0,0.1,0,0.2,0.1l0.2,0.1l0.4,0.3l0.8,0.5l1.6,1c1.1,0.6,2.2,1.3,3.2,1.9
	c2.2,1.2,4.4,2.3,6.7,3.3c2.2,1.1,4.6,1.9,7.1,2.4c2.5,0.3,5,0.2,7.4-0.5l-0.2,1c-2.2-1.2-4.4-2.4-6.6-3.5s-4.5-2.2-6.7-3.2
	c-2.2-1-4.5-1.9-6.9-2.6c-1.2-0.4-2.4-0.6-3.6-0.7c-0.6-0.1-1.2-0.1-1.8-0.1c-0.3,0-0.6,0.1-0.9,0.1C195.4,54,195.2,54,194.8,54.1z
	 M194.6,54.1c0.3-0.2,0.6-0.4,0.9-0.5c0.3-0.1,0.6-0.2,0.9-0.3c0.6-0.2,1.3-0.3,1.9-0.3c1.3-0.1,2.6,0,3.9,0.2
	c2.5,0.5,5,1.2,7.4,2.2c2.3,1,4.6,2.2,6.8,3.5c2.2,1.3,4.3,2.7,6.3,4.2l1,0.8l-1.2,0.2c-2.6,0.3-5.1,0.4-7.7,0.1
	c-2.6-0.2-5.1-0.7-7.6-1.5c-2.4-0.9-4.7-2.1-6.9-3.5c-0.5-0.4-1.1-0.7-1.6-1.1s-1-0.8-1.5-1.2s-1-0.9-1.4-1.3l-0.7-0.7l-0.3-0.4
	l-0.2-0.2C194.7,54.3,194.7,54.2,194.6,54.1z"/>
<path class="st0" d="M188,61.6c-1.2,0.9-2.3,1.8-3.5,2.7c-1.1,0.9-2.1,1.9-3,2.9c-0.4,0.4-0.6,0.9-0.8,1.5c0,0.1,0,0.2,0,0.3
	c0,0.1,0.1,0.3,0.1,0.5c0.1,0.3,0.2,0.6,0.4,0.9c0.6,1.2,1.4,2.4,2.3,3.4l0.4,0.4l-0.3,0.4c-0.7,0.9-1.4,1.8-2,2.8
	c-0.1,0.2-0.3,0.5-0.4,0.7c-0.1,0.1-0.1,0.2-0.1,0.4c0,0,0,0.1,0,0.1c0,0,0,0.1,0,0.1c0.2,0.5,0.4,1,0.7,1.6c0.5,1,1.2,1.9,2,2.7
	c0.7,0.8,1.7,1.2,2.8,1.3h0.3l0.2,0.3c1.4,1.9,2.4,4.1,3,6.4c0.1,0.6,0.2,1.2,0.3,1.8c0.1,0.9,0,0.7,0.3,1c0.3,0.3,0.7,0.5,1.1,0.6
	c0.5,0.2,1,0.4,1.5,0.5c2.2,0.5,4.3,0.9,6.5,1.2c2.2,0.3,4.5,0.5,6.8,0.7l-0.3,0.2c0.4-0.7,0.9-1.4,1.3-2l0.2,0.1
	c-0.3,0.8-0.5,1.5-0.8,2.3l-0.1,0.2h-0.2c-2.3,0.2-4.6,0.3-6.9,0.2c-2.4,0-4.7-0.3-7-0.9c-0.6-0.2-1.2-0.4-1.8-0.6
	c-0.7-0.3-1.3-0.7-1.8-1.2c-0.1-0.2-0.3-0.3-0.4-0.5c-0.1-0.2-0.2-0.4-0.2-0.7c-0.1-0.3-0.1-0.7-0.1-1c0-0.5-0.1-1-0.2-1.6
	c-0.5-2.1-1.2-4.2-2.2-6.2l0.4,0.3c-1.3-0.3-2.4-1-3.2-2c-0.8-0.9-1.5-1.9-2-3c-0.3-0.5-0.5-1.1-0.7-1.6c0-0.1-0.1-0.2-0.1-0.3
	c0-0.1,0-0.2,0-0.3c0-0.2,0.1-0.3,0.1-0.5c0.1-0.3,0.2-0.6,0.4-0.8c0.5-1.1,1-2.1,1.6-3.2l0.1,0.8c-1.2-1-2.2-2.3-2.9-3.6
	c-0.2-0.4-0.3-0.7-0.5-1.1c-0.1-0.2-0.1-0.4-0.2-0.6c-0.1-0.3-0.1-0.6-0.1-0.8c0.1-0.9,0.6-1.7,1.2-2.4c1.1-1.1,2.3-2.1,3.6-2.8
	c1.3-0.8,2.6-1.5,4-2L188,61.6z"/>
<path class="st0" d="M188.5,70.8c-0.6,0.3-1.3,0.4-1.6,0.6c-0.2,0.1-0.4,0.3-0.5,0.4l-0.6,0.6c-0.4,0.4-0.8,0.8-1.2,1.2
	c-0.4,0.4-0.9,0.9-1.4,1.2c0-0.6,0.2-1.3,0.5-1.9c0.3-0.6,0.6-1.1,1.1-1.6c0.2-0.2,0.5-0.5,0.8-0.6c0.3-0.2,0.7-0.3,1.1-0.4
	c0.4-0.1,0.7,0,1.1,0.1C187.9,70.5,188.2,70.6,188.5,70.8z"/>
<path class="st0" d="M186.5,85.1c-0.1-0.6-0.1-1.2,0-1.8c0-0.3,0.1-0.6,0.2-0.8c0.1-0.4,0.2-0.7,0.4-1c0.4-0.6,1-1,1.8-1.1
	c0.3-0.1,0.7,0,1,0.1c0.3,0.1,0.6,0.2,0.9,0.4c-0.6,0.3-1.2,0.4-1.5,0.6c-0.4,0.2-0.7,0.5-0.9,0.9c-0.2,0.3-0.4,0.9-0.7,1.4
	C187.3,84.2,187,84.7,186.5,85.1z"/>
<path class="st0" d="M135.3,249.9c-0.5,2-0.9,4-1.1,6c-0.1,1,0,2,0.3,2.9c0.3,0.8,1.2,1.2,1.9,0.9c0.1,0,0.1,0,0.1-0.1
	c0.9-0.3,1.8-0.8,2.6-1.4c0.8-0.6,1.6-1.2,2.4-1.9c1.5-1.4,3-2.8,4.4-4.3l0.2-0.2h0.2c1.7,0,3.5,0.2,5.1,0.7
	c1.6,0.5,3.2,1.1,4.7,1.9c1.5,0.8,2.9,1.6,4.4,2.2c1.4,0.7,3,1.1,4.5,1.3c1.6,0.2,3.1,0.2,4.7,0c1.6-0.2,3.1-0.6,4.6-1.1
	c3-1.1,6-2.5,8.8-4.1l0.2-0.1h0.2c2.7,0,5.4,0.1,8.1,0.3c2.7,0.2,5.4,0.7,8.1,1.4c0.7,0.2,1.3,0.4,2,0.7c0.6,0.3,1.3,0.6,1.9,0.9
	c1.2,0.6,2.5,1.1,3.7,1.6c2.5,1,5,2,7.5,3c5,1.9,10.1,3.7,15.2,5.4c5.1,1.7,10.2,3.3,15.4,4.8c10.3,3,20.7,5.9,31.2,8.3
	c10.5,2.5,21,4.6,31.6,6.1l0,0h0.1c4.1,1,8.3,1.2,12.5,0.8c4.2-0.4,8.2-1.9,11.6-4.3c1.7-1.2,3.2-2.7,4.4-4.4
	c0.3-0.4,0.6-0.8,0.9-1.3c0.3-0.5,0.6-0.9,0.8-1.4c0.5-0.9,0.9-1.9,1.3-2.9c1.5-4,2.4-8.2,2.6-12.5h0.2c0,4.3-0.7,8.7-2,12.8
	c-0.4,1-0.8,2-1.2,3c-0.2,0.5-0.5,1-0.8,1.4c-0.3,0.5-0.6,1-0.9,1.4c-1.2,1.9-2.7,3.5-4.5,4.9c-3.6,2.7-7.8,4.4-12.2,4.9
	c-2.2,0.3-4.4,0.4-6.6,0.3c-2.2-0.1-4.4-0.4-6.6-0.9h0.1c-10.7-1.4-21.3-3.5-31.8-6.1c-10.5-2.6-20.8-5.6-31.1-9
	c-2.6-0.9-5.1-1.7-7.7-2.6s-5.1-1.8-7.6-2.7c-5.1-1.8-10.1-3.7-15.2-5.6c-2.5-0.9-5-1.9-7.6-2.9c-1.2-0.5-2.5-1-3.8-1.5
	c-0.6-0.3-1.2-0.5-1.8-0.8c-0.6-0.2-1.2-0.4-1.9-0.6c-2.6-0.6-5.2-0.9-7.9-1c-2.7-0.1-5.4-0.1-8,0l0.4-0.1c-2.8,1.8-5.8,3.3-9,4.4
	c-3.2,1.2-6.7,1.6-10.1,1.2c-1.7-0.3-3.4-0.8-4.9-1.5c-1.6-0.7-3-1.6-4.4-2.3c-1.4-0.7-2.9-1.4-4.4-1.8c-1.5-0.5-3.1-0.7-4.6-0.8
	l0.4-0.2c-1.5,1.5-3,2.9-4.6,4.2c-0.8,0.7-1.6,1.3-2.5,1.9c-0.9,0.6-1.9,1.1-2.9,1.4c-0.6,0.2-1.2,0.2-1.8,0c-0.6-0.3-1-0.7-1.2-1.4
	c-0.3-1-0.4-2.1-0.2-3.2c0.3-2.1,0.7-4.1,1.4-6L135.3,249.9z"/>
<path class="st0" d="M286.4,236c-0.4,0-40.3-5.1-54-7.2l0.1-0.7c13.6,2.1,53.6,7.2,54,7.2L286.4,236z"/>
<path class="st0" d="M342.6,264.5c0.7-0.2,1.5-0.5,2.2-0.8c0.7-0.3,1.3-0.7,1.7-1.3c0.3-0.5,0.2-1.2-0.2-1.6c-0.5-0.5-1-1-1.7-1.3
	c-1.3-0.8-2.7-1.4-4.1-1.9c-1.4-0.5-2.9-1.1-4.3-1.5c-2.9-0.9-5.9-1.9-8.9-2.7l-8.9-2.7c-3-0.9-5.9-1.8-8.9-2.8s-5.9-2-8.8-3.2
	c-2.9-1.1-5.8-2.4-8.6-3.9c-1.4-0.7-2.8-1.6-4-2.6c-0.6-0.5-1.2-1.1-1.6-1.8c-0.2-0.4-0.3-0.8-0.4-1.2c0-0.4,0.1-0.8,0.3-1.1
	c-0.3,0.7-0.1,1.5,0.4,2.1c0.5,0.6,1.1,1,1.7,1.4c1.3,0.8,2.7,1.5,4.1,2c2.8,1.1,5.8,2.1,8.7,3s5.9,1.8,8.9,2.7l8.9,2.7
	c5.9,1.9,11.9,3.7,17.7,6c3,1.1,5.8,2.6,8.4,4.4c0.7,0.5,1.3,1.1,1.8,1.8c0.3,0.4,0.4,0.9,0.5,1.4c0,0.5-0.2,1-0.5,1.4
	c-0.6,0.6-1.4,1-2.2,1.2C344.1,264.3,343.3,264.4,342.6,264.5z"/>
<path class="st0" d="M341.3,268c1.4,0,2.7,0,4.1-0.2c1.3-0.2,2.6-0.5,3.9-1c1.2-0.5,2.2-1.2,3-2.3c0.3-0.5,0.6-1.1,0.7-1.6
	c0.1-0.6,0.2-1.2,0.1-1.8l-0.3-2c-0.1-0.7-0.1-1.5-0.1-2.2c0-0.7,0.1-1.5,0.2-2.2c0.2-0.7,0.3-1.4,0.5-2.1c0.9-2.7,2.1-5.3,3.7-7.6
	c1.4-2.4,2.9-4.7,3.3-7v-0.4c0-0.1,0-0.2,0-0.5c0-0.4,0-0.8,0.1-1.1c0.1-0.7,0.2-1.4,0.2-2.1l0.5-4.1c0.7-5.5,1.5-10.9,2.3-16.4
	c0.8-5.4,1.7-10.9,2.5-16.3c0.8-5.4,1.5-10.9,2.1-16.4c1.2-10.9,1.6-21.9,1.3-33c-0.1-5.4-0.7-10.9-1.8-16.2
	c-0.6-2.6-1.6-5.2-2.5-7.8l-1.4-3.9l-1.5-3.8c-0.5-1.3-1.1-2.5-1.6-3.7c-0.6-1.2-1.1-2.5-1.8-3.7l-1.8-3.6l-2.1-3.5
	c-0.7-1.2-1.5-2.3-2.2-3.4s-1.5-2.3-2.3-3.3c-1.7-2.1-3.3-4.3-5.2-6.2c-7.4-8-15.9-14.9-25.3-20.3c-9.5-5.5-19.5-10.2-29.7-14.1
	l0.1-0.3c10.6,3.1,20.9,7.2,30.7,12.4c4.9,2.7,9.6,5.7,14.1,9c2.3,1.7,4.4,3.4,6.5,5.3l3.1,2.8l2.9,3.1c7.7,8.2,13.3,18.1,17.3,28.5
	l1.5,3.9l1.3,4c0.8,2.7,1.7,5.2,2.3,8.1c0.9,5.5,1.3,11,1.2,16.6c0,5.5-0.4,11-0.7,16.6c-0.3,5.5-0.8,11-1.3,16.5l-1.4,16.5
	c-0.5,5.5-1.1,11-1.7,16.5c-0.7,5.5-1.4,10.9-2.2,16.4l-0.6,4.1c-0.1,0.7-0.2,1.4-0.2,2c0,0.3-0.1,0.6-0.1,0.9l0,0.6l-0.1,0.6
	c-0.3,1.5-0.9,2.9-1.6,4.2c-0.7,1.2-1.5,2.4-2.2,3.6c-1.5,2.2-2.7,4.6-3.7,7.1c-0.2,0.6-0.4,1.2-0.6,1.9c-0.1,0.6-0.2,1.3-0.3,1.9
	c-0.1,0.6-0.1,1.3,0,1.9l0.1,1c0,0.4,0.1,0.7,0.1,1.1c0,0.8-0.1,1.5-0.3,2.3c-0.2,0.7-0.6,1.4-1.1,2c-1,1.1-2.2,2-3.7,2.4
	c-2.7,0.8-5.6,1-8.3,0.6L341.3,268z"/>
<path class="st0" d="M326,114.1c-4.9,1.2-9.5,3.7-13.2,7.1c-3.7,3.4-6.5,7.6-8.2,12.2c-0.2,0.6-0.5,1.1-0.6,1.7l-0.5,1.8l-0.5,1.8
	l-0.5,1.8c-0.3,1.2-0.6,2.5-0.9,3.7l-0.8,3.7c-1.1,5-2.1,10-3,15l-1.5,7.5l-1.4,7.5l-2.8,15c-1.9,10-3.8,20-5.9,30
	c0.9-10.2,2.2-20.3,3.7-30.4c0.7-5.1,1.5-10.1,2.3-15.1c0.8-5,1.8-10.1,2.7-15.1s2-10,3.2-15l0.9-3.7c0.3-1.2,0.7-2.5,1-3.7l0.5-1.9
	l0.6-1.9l0.6-1.9c0.2-0.6,0.5-1.2,0.8-1.8l0.8-1.8l1-1.7c0.6-1.2,1.3-2.3,2.1-3.3c1.6-2.1,3.4-4,5.5-5.6
	C316,116.9,320.8,114.8,326,114.1z"/>
<path class="st0" d="M342.6,114.1c2-0.2,4,0,5.9,0.5c1.9,0.5,3.8,1.3,5.5,2.4c1.7,1,3.3,2.3,4.6,3.8c1.4,1.5,2.4,3.2,3.2,5
	c-1.7-1.1-3.1-2.3-4.7-3.4s-3-2.1-4.6-3s-3.2-1.9-4.8-2.7C346,115.9,344.4,115,342.6,114.1z"/>
<path class="st0" d="M215.9,94.6c0.4,3.2,0.7,6.4,1.1,9.7s0.7,6.4,1,9.7c0.6,6.4,1.1,12.9,1.6,19.4l-1.7-0.5l7.3-9.8
	c2.4-3.3,4.9-6.5,7.2-9.8s4.8-6.6,6.9-10c1-1.8,1.8-3.6,2.6-5.5c0.8-1.9,1.6-3.8,2.2-5.7c-0.5,2-1.1,3.9-1.7,5.9l-1,2.9
	c-0.3,1-0.7,1.9-1.2,2.9c-2,3.6-4.2,7.1-6.5,10.5c-2.3,3.4-4.6,6.7-7,10s-4.8,6.6-7.3,9.8l-1.5,2l-0.2-2.5
	c-0.4-6.5-0.8-12.9-1.1-19.4c-0.1-3.2-0.3-6.5-0.4-9.7S215.9,97.8,215.9,94.6z"/>
<path class="st0" d="M177.7,158.5c4.2-0.4,8.4-1.1,12.5-2.2c2-0.5,4-1.2,5.9-2c1.9-0.8,3.8-1.7,5.6-2.7c3.6-2.1,6.8-4.7,9.6-7.7
	c2.8-3.2,5.2-6.7,7.3-10.4c-1,4.2-2.9,8.2-5.5,11.7c-1.3,1.8-2.8,3.4-4.5,4.9c-1.7,1.5-3.5,2.8-5.4,3.9c-3.8,2.2-8.1,3.7-12.4,4.5
	C186.4,159.2,182,159.2,177.7,158.5z"/>
<path class="st0" d="M244.1,92c-1.3,7.5-2.6,15-4.1,22.4c-1.4,7.5-2.9,14.9-4.4,22.3l-4.5,22.3c-0.8,3.7-1.5,7.4-2.2,11.2
	c-0.4,1.9-0.7,3.7-1,5.6c-0.2,0.9-0.3,1.9-0.4,2.8c-0.1,0.9-0.2,1.9-0.2,2.8c-0.1-1.9-0.1-3.8,0.2-5.7c0.2-1.9,0.4-3.8,0.6-5.7
	c0.5-3.8,1.1-7.5,1.7-11.3c1.2-7.5,2.7-15,4.1-22.4s3.1-14.9,4.8-22.3S242.1,99.3,244.1,92z"/>
<path class="st0" d="M257.5,81.3c1.8,1.2,3.5,2.5,5,4c1.6,1.5,3,3.1,4.2,4.9c1.3,1.8,2.3,3.7,3.1,5.8c0.7,2.1,0.9,4.4,0.6,6.6
	l-0.5-0.6c2,0.2,4,0.2,5.9-0.1c1-0.1,1.9-0.4,2.8-0.8c0.9-0.3,1.7-0.9,2.3-1.6c0.5-0.8,1-1.7,1.4-2.6c0.4-0.9,0.8-1.8,1.1-2.8
	c0.7-1.9,1.4-3.8,2-5.6c1.4-3.8,2.5-7.6,3.8-11.4c0.6-1.9,1.2-3.8,1.7-5.7c0.3-0.9,0.5-1.9,0.7-2.9c0.2-0.9,0.3-1.8,0.4-2.8l0.2,0.4
	c-1-1.2-1.9-2.4-2.8-3.7c-0.5-0.6-0.9-1.3-1.3-1.9c-0.4-0.6-0.8-1.4-1-2.1h0.2c0.4,0.7,0.8,1.3,1.3,1.8c0.5,0.6,1,1.1,1.5,1.7
	c1,1.1,2.1,2.2,3.2,3.3l0.1,0.2v0.2c0.1,1.1,0,2.2-0.2,3.2c-0.2,1-0.4,2-0.6,3c-0.4,2-1,3.9-1.5,5.9c-1.2,3.9-2.6,7.6-4.1,11.4
	c-0.8,1.9-1.6,3.7-2.5,5.5c-0.4,0.9-0.9,1.8-1.4,2.7c-0.5,0.9-1.1,1.8-1.7,2.6c-1.6,1.4-3.5,2.2-5.6,2.5c-1,0.2-2,0.4-3,0.4
	c-1,0.1-2,0.2-3.1,0.2h-0.5v-0.6c0-2-0.4-4-1.1-5.9c-0.7-1.9-1.7-3.7-2.8-5.4c-1.1-1.8-2.4-3.4-3.8-5c-1.3-1.6-2.8-3.1-4.3-4.6
	L257.5,81.3z"/>
<path class="st0" d="M251.2,87.4c1.1,2.2,2,4.4,2.9,6.7s1.7,4.5,2.4,6.8c0.7,2.3,1.2,4.7,2,7c0.8,2.3,1.8,4.5,2.9,6.6
	c0.5,1,1.2,2,1.8,3c0.1,0.2,0.3,0.4,0.5,0.6c0.1,0.2,0.4,0.3,0.2,0.2c-0.1,0-0.2,0-0.2,0.1c0,0,0-0.1,0.1-0.2
	c0.1-0.2,0.2-0.4,0.2-0.7c0.1-1.1-0.1-2.1-0.4-3.1c-0.3-1.1-0.7-2.3-0.9-3.6c-0.3-1.3-0.3-2.6-0.2-3.9c0.1-1.4,0.7-2.6,1.5-3.7
	c0.2-0.3,0.4-0.5,0.6-0.8c0.2-0.2,0.4-0.5,0.7-0.7c0.5-0.5,1-0.8,1.6-1.1c0.6-0.3,1.4-0.4,2.1-0.1c0.6,0.4,1,0.9,1.1,1.6l-0.2,0.1
	c-0.2-0.5-0.7-0.9-1.2-1.1c-0.5-0.1-1,0-1.4,0.4c-0.9,0.7-1.6,1.5-2.2,2.5c-1.2,1.9-1.1,4.1-0.5,6.3c0.2,1.1,0.6,2.3,0.9,3.5
	c0.4,1.3,0.5,2.7,0.2,4c-0.1,0.4-0.2,0.7-0.4,1c-0.1,0.2-0.2,0.4-0.4,0.6c-0.3,0.3-0.6,0.4-1,0.4c-0.2,0-0.4-0.1-0.5-0.1l-0.3-0.2
	c-0.2-0.1-0.3-0.3-0.4-0.4c-0.2-0.3-0.4-0.5-0.6-0.9c-0.6-1.1-1.1-2.2-1.5-3.4c-0.8-2.3-1.6-4.6-2.5-6.8s-2-4.4-2.9-6.7
	c-0.9-2.3-1.6-4.6-2.3-6.9c-0.7-2.3-1.2-4.7-1.7-7.1L251.2,87.4z"/>
<path class="st0" d="M290.3,62.5c1.6-1.2,3.4-2.1,5.4-2.4c0.5-0.1,1.1,0,1.6,0.1c0.5,0.2,1,0.5,1.4,1c0.6,0.9,0.8,2,0.8,3.1
	c-0.1,2-0.4,4-1,5.9c-0.5,1.9-1.2,3.8-1.8,5.6c-2.9,7.3-6.2,14.4-10,21.2c-1.9,3.4-3.9,6.8-5.9,10.1l-6,10c-1,1.7-2.1,3.3-2.9,5.1
	c-0.9,1.7-1.6,3.5-2.3,5.3c-1.3,3.7-2.3,7.4-3,11.2c-0.8,3.8-1.3,7.7-2,11.5c-0.7,3.8-1.1,7.7-1.7,11.6c-1.1,7.7-2.2,15.4-3.5,23.1
	c-2.5,15.5-5.1,30.8-8.1,46.2H251c1.8-15.5,4-31,6.3-46.4c1.2-7.7,2.5-15.4,3.7-23.1c0.6-3.9,1.2-7.7,2-11.5s1.5-7.7,2.5-11.5
	c0.9-3.8,2-7.6,3.4-11.2c0.7-1.8,1.5-3.6,2.4-5.4c0.9-1.8,1.9-3.4,2.9-5.1c3.9-6.7,7.5-13.7,11-20.6s7.1-13.9,10-21
	c0.7-1.8,1.4-3.6,2-5.4c0.7-1.8,1.1-3.7,1.2-5.6c0.1-0.9-0.1-1.8-0.5-2.6c-0.5-0.7-1.3-1.1-2.2-1c-0.9,0.1-1.9,0.3-2.7,0.7
	c-0.9,0.4-1.8,0.8-2.6,1.3L290.3,62.5z"/>
<path class="st0" d="M316.7,220.8c3.2-1.2,6.4-2.7,9.5-4.3c3-1.6,5.9-3.4,8.7-5.4c0.7-0.5,1.4-1,2-1.5l2-1.6
	c1.2-1.2,2.5-2.2,3.7-3.5c2.4-2.5,4.7-5.2,6.8-7.9c-1.1,3.4-2.9,6.6-5.1,9.4c-1.1,1.4-2.3,2.8-3.6,4c-1.3,1.2-2.7,2.4-4.2,3.5
	c-2.9,2.1-6.1,3.9-9.5,5.1C323.8,219.9,320.3,220.6,316.7,220.8z"/>
<path class="st0" d="M314.1,235.7c3.2-0.6,6.4-1.5,9.5-2.8c3-1.2,5.9-2.7,8.6-4.4c0.7-0.4,1.3-0.9,2-1.4c0.3-0.2,0.7-0.4,1-0.7
	l1-0.8l1.9-1.5c0.6-0.5,1.2-1.1,1.9-1.6l0.9-0.8c0.3-0.3,0.6-0.6,0.9-0.9l1.8-1.7c1.2-1.1,2.3-2.4,3.6-3.5c-0.7,1.5-1.6,3-2.5,4.4
	l-1.5,2.1c-0.2,0.4-0.5,0.7-0.8,1l-0.9,0.9c-0.6,0.6-1.2,1.3-1.8,1.9c-0.6,0.6-1.3,1.1-1.9,1.7l-1,0.8c-0.3,0.3-0.7,0.5-1,0.8
	c-0.7,0.5-1.4,1-2.1,1.5c-2.9,1.8-6.1,3.2-9.5,4.1C321,235.9,317.5,236.2,314.1,235.7z"/>
<path class="st0" d="M361.4,239.4c-0.1,5.9-0.6,11.7-1.1,17.5c-0.2,2.9-0.6,5.8-0.9,8.7l-1,8.7l-1.2,8.7c-0.5,2.9-0.8,5.8-1.3,8.6
	c-0.9,5.8-2,11.5-3.3,17.2c0.1-5.9,0.6-11.7,1.1-17.5c0.2-2.9,0.6-5.8,0.9-8.7l1-8.7l1.2-8.7c0.4-2.9,0.8-5.8,1.3-8.6
	C359,250.9,360.1,245.1,361.4,239.4z"/>
<path class="st0" d="M111.5,210.4l-5.9,1.2l0.1,5.6c2-0.7,4-1.3,6.1-1.8C111.6,213.7,111.5,212,111.5,210.4z M111.8,216.2
	c-2,0.4-4.1,0.8-6.1,1.1l0.1,8.4c2.1-0.9,4.3-1.7,6.6-2.5C112.1,220.9,111.9,218.5,111.8,216.2z M112.9,230.3
	c-0.2-2.1-0.4-4.2-0.6-6.3c-2.2,0.7-4.4,1.2-6.6,1.7l0.1,6.2v5.4c1.6-0.8,3.2-1.4,4.9-1.8c0.9-0.2,1.8-0.4,2.7-0.6
	C113.3,233.4,113.1,231.9,112.9,230.3L112.9,230.3z M114.1,240.3c-0.2-1.7-0.4-3.3-0.6-5c-0.9,0.3-1.7,0.7-2.5,1
	c-1.7,0.6-3.4,1-5.2,1.2l0.1,10.4c1.9-0.9,3.9-1.7,5.9-2.3c0.9-0.2,1.8-0.5,2.7-0.7C114.4,243.3,114.2,241.8,114.1,240.3
	L114.1,240.3z M114.9,250.3c-0.1-1.6-0.2-3.3-0.4-5c-0.8,0.3-1.6,0.7-2.5,1c-2,0.8-4.1,1.4-6.2,1.8v4.1c0,1.8,0,3.6,0,5.4
	c1.7-0.7,3.4-1.3,5.2-1.6c1-0.2,2-0.3,2.9-0.5c0.4-0.1,0.8-0.2,1.2-0.3C115.1,253.5,115,251.9,114.9,250.3L114.9,250.3z
	 M116.4,269.2c-0.4-4.6-0.8-9.1-1.1-13.7c-0.4,0.1-0.8,0.2-1.1,0.3c-0.9,0.3-1.9,0.7-2.8,1c-1.8,0.5-3.6,0.9-5.4,1.1
	c0,4.8,0,9.6,0,14.4C109.4,271.2,112.9,270.1,116.4,269.2L116.4,269.2z M116.5,270.3c0-0.1,0-0.1,0-0.2c-3.5,0.9-7,1.7-10.5,2.4v0.1
	c0,4.2,0,8.4-0.1,12.6c3.9-1.4,7.8-2.6,11.8-3.7C117.2,277.7,116.8,274,116.5,270.3L116.5,270.3z M117.8,282.3
	c-3.9,1.1-7.9,2.1-11.9,3l-0.1,7.2l12.9-2.4C118.4,287.4,118.1,284.8,117.8,282.3L117.8,282.3z M118.8,209l-7.2,1.5
	c0.2,1.6,0.4,3.2,0.6,4.9c0.9-0.2,1.9-0.5,2.8-0.7c1.5-0.3,2.9-0.5,4.4-0.8C119.2,212.1,119,210.5,118.8,209L118.8,209z
	 M119.4,214.2c-1.4,0.4-2.8,0.8-4.2,1.2c-1,0.3-1.9,0.5-2.9,0.7c0.3,2.3,0.5,4.6,0.8,6.9c0.8-0.3,1.6-0.5,2.4-0.7
	c1.7-0.5,3.4-0.9,5-1.4C120.1,218.6,119.8,216.4,119.4,214.2L119.4,214.2z M121.8,228.6c-0.4-2.5-0.9-4.9-1.2-7.4
	c-1.6,0.5-3.2,1.2-4.8,1.8l-2.6,0.8c0.2,2.1,0.4,4.3,0.6,6.5c0.1,1.5,0.2,3.1,0.3,4.6c0.7-0.2,1.4-0.5,2.1-0.8
	c1.7-0.7,3.5-1.3,5.2-1.9l1.1-0.3C122.2,230.8,122,229.6,121.8,228.6L121.8,228.6z M123.6,238.4c-0.3-1.8-0.7-3.6-1-5.5l-1,0.3
	c-1.8,0.6-3.6,1-5.4,1.4c-0.8,0.1-1.5,0.3-2.2,0.6c0.1,1.7,0.2,3.4,0.4,5.1c0.1,1.5,0.3,3,0.4,4.6l0.2-0.1c1.1-0.3,2.1-0.7,3.1-1.2
	c2-0.9,3.9-1.6,5.9-2.3C124,240.3,123.9,239.3,123.6,238.4L123.6,238.4z M125.2,248.2c-0.3-2-0.6-4-0.9-5.9c-2,0.6-3.9,1.3-5.9,1.8
	c-1.1,0.3-2.2,0.6-3.2,1l-0.3,0.1c0.2,1.7,0.4,3.4,0.6,5s0.4,3.2,0.5,4.8c0.3-0.1,0.6-0.2,1-0.3c1.9-0.7,3.7-1.2,5.6-1.7
	c1.1-0.3,2.2-0.5,3.3-0.7C125.7,250.9,125.4,249.5,125.2,248.2L125.2,248.2z M125.5,207.6l-1.4,0.3l-5.2,1c0.4,1.6,0.7,3.2,1,4.8
	c1.6-0.4,3.2-0.8,4.8-1.2c0.6-0.2,1.1-0.3,1.7-0.5C126.1,210.5,125.8,209,125.5,207.6L125.5,207.6z M126.5,212.7
	c-0.6,0.1-1.1,0.2-1.7,0.3c-1.6,0.3-3.2,0.6-4.8,1l0,0c0.4,2.2,0.9,4.4,1.2,6.6c1.4-0.5,2.9-1,4.3-1.5l2.2-0.8
	C127.3,216.4,126.9,214.5,126.5,212.7L126.5,212.7z M125.9,253c-1,0.4-2.1,0.7-3.2,1c-1.9,0.5-3.8,0.9-5.8,1.2l-1,0.2
	c0.5,4.5,1,9.1,1.4,13.6l2.1-0.5c2.4-0.5,4.7-1,7-1.6c0.5-0.1,1.1-0.3,1.6-0.4C127.3,262,126.6,257.4,125.9,253L125.9,253z
	 M131,239.6c-2,1-4.1,1.8-6.2,2.6l-0.2,0.1c0.4,2,0.7,4,1.1,5.9c0.3,1.4,0.5,2.7,0.8,4c0.6-0.1,1.2-0.2,1.8-0.2
	C126.9,250,129.2,243.7,131,239.6L131,239.6z M129.7,226.9c-0.7-2.6-1.3-5.2-1.9-7.9c-0.7,0.2-1.5,0.4-2.2,0.6
	c-1.5,0.4-2.9,0.8-4.4,1.3c0.4,2.5,0.9,5,1.3,7.5c0.2,1.1,0.3,2.3,0.5,3.4c1.3-0.3,2.5-0.6,3.8-0.7v0l3.1-3.5
	C129.8,227.4,129.8,227.1,129.7,226.9L129.7,226.9z M128.3,268c-0.1-0.4-0.1-0.8-0.2-1.2l-1.6,0.4c-2.3,0.6-4.6,1.4-6.9,2.1
	c-0.7,0.2-1.5,0.4-2.2,0.6c0,0.1,0,0.2,0,0.4c0.3,3.7,0.6,7.3,0.9,11l2-0.6c2.5-0.6,5-1.2,7.5-1.9l2.4-0.6
	C129.6,274.7,128.9,271.3,128.3,268L128.3,268z M130.2,278.4c-0.8,0.2-1.6,0.4-2.3,0.6c-2.5,0.8-4.9,1.6-7.4,2.4l-2.2,0.6
	c0.2,2.6,0.3,5.3,0.4,8l2.6-0.5c3.5-0.7,7.1-1.4,10.6-2.1C131.5,284.4,130.9,281.4,130.2,278.4L130.2,278.4z M132.4,236
	c-0.1,0.1-0.2,0.1-0.3,0.2c-4.4,2.4-7.1,0.9-8.1-0.4c-0.5-0.6,0.8-2.3,2.8-4.5c-1.2,0.6-2.4,1.1-3.6,1.5c0.3,1.9,0.5,3.7,0.8,5.6
	c0.1,1,0.3,1.9,0.5,2.9l0,0c2.1-0.7,4.3-1.3,6.5-1.7l0,0c0.5-1.1,0.9-2,1.2-2.7c0.1-0.2,0.2-0.3,0.2-0.5c0.2-0.3,0.3-0.5,0.3-0.6
	L132.4,236z M135.7,210.6l-1.3,0.3c-2.5,0.6-4.9,1.1-7.4,1.6c0.5,1.9,1,3.7,1.4,5.6c2.3-0.8,4.7-1.6,7-2.4c0.5-0.1,1-0.3,1.4-0.4
	C136.5,213.7,136.1,212.1,135.7,210.6L135.7,210.6z M137.1,216.2c-0.5,0.2-0.9,0.3-1.4,0.5c-2.4,0.8-4.8,1.5-7.1,2.1
	c0.7,2.6,1.3,5.3,1.9,7.9c0,0.1,0,0.1,0,0.2c1.5-1.7,2.9-3.5,4.1-5.4c0.8-1.2,1.8-2.2,3-3C137.5,217.7,137.3,216.9,137.1,216.2
	L137.1,216.2z M137.4,259.9c-6,2.5-2.5-9-2.2-9.9l0,0l0,0c-4,2.8-6,3.1-6.8,2.1l0,0c-0.6,0.2-1.2,0.5-1.8,0.7
	c0.9,4.5,1.7,9,2.4,13.5c1.5-0.4,2.9-0.8,4.4-1.2s3.2-0.9,4.8-1.4C138,262.3,137.7,261.1,137.4,259.9L137.4,259.9z M138.8,266
	c-0.1-0.5-0.2-1.1-0.4-1.6c-1.6,0.4-3.2,0.8-4.9,1.1s-3,0.7-4.5,1.1c0.1,0.4,0.1,0.9,0.2,1.3c0.6,3.3,1.1,6.7,1.6,10.1l4.4-1.4
	c1.9-0.6,3.8-1.2,5.7-1.8C140.2,271.8,139.5,268.9,138.8,266L138.8,266z M135.9,209.6c2.5-0.5,5-1,7.6-1.4l-1.4-4l-16.5,3.4
	c0.4,1.4,0.8,2.9,1.2,4.3c2.4-0.7,4.9-1.3,7.4-1.9c0.4-0.1,0.9-0.2,1.3-0.3c-0.3-1.3-0.6-2.5-0.9-3.8h0.1
	C135.2,207.1,135.6,208.3,135.9,209.6L135.9,209.6z M141.2,275.6c-1.9,0.5-3.8,1-5.8,1.5l-4.5,1.2c0.4,3.1,0.9,6.1,1.2,9.2
	c1.8-0.4,3.5-0.7,5.2-1l6.4-1.3C142.9,281.9,142.1,278.7,141.2,275.6L141.2,275.6z M143.5,208.4c-2.4,0.8-4.9,1.5-7.3,2.1
	c0.5,1.5,0.9,3.1,1.4,4.6c2.5-0.7,5-1.4,7.6-2C144.6,211.4,144.1,209.9,143.5,208.4L143.5,208.4z M145.2,213.3
	c-2.4,1-4.9,1.9-7.4,2.8c0.2,0.7,0.4,1.4,0.6,2.1c2.4-1.3,5.1-2,7.8-2C145.9,215.2,145.6,214.2,145.2,213.3L145.2,213.3z
	 M146.9,252.6h-0.5c-3.6,3.7-6.3,5.9-8.1,6.9c0.3,1.3,0.6,2.5,0.9,3.8c2.7-0.8,5.4-1.5,8.2-2.2l1.7-0.4
	C148.4,257.9,147.7,255.2,146.9,252.6L146.9,252.6z M149.8,263.5l-0.5-1.9l-1.7,0.5c-2.7,0.7-5.5,1.4-8.2,2c0.1,0.5,0.3,1.1,0.4,1.6
	c0.7,2.9,1.3,5.9,2,8.8c2.8-0.8,5.6-1.7,8.4-2.5l2-0.5C151.3,268.8,150.6,266.1,149.8,263.5L149.8,263.5z M160.9,257.7
	c-2.1-0.8-3.8-1.9-5.4-2.7c-2.4-1.2-5-2-7.7-2.4c0.7,2.6,1.5,5.2,2.2,7.8c3.6-0.9,7.3-1.7,11-2.5L160.9,257.7z M161.1,258.1
	c-3.6,1.2-7.2,2.2-10.8,3.2c0.2,0.6,0.4,1.3,0.5,1.9c0.7,2.7,1.4,5.4,2.1,8.1c3.9-1.1,7.9-2.1,11.9-3L161.1,258.1z M164.8,268.5
	c-3.9,1.3-7.8,2.6-11.7,3.8c0.9,3.4,1.7,6.8,2.4,10.3h-0.1c-1.1-3.3-2.1-6.7-3.1-10.1l-2,0.6c-2.8,0.8-5.6,1.6-8.5,2.3
	c0.7,3.2,1.4,6.5,2,9.7l25-5L164.8,268.5z M111.4,210.5l-5.9,1.2l0.1,5.6c2-0.7,4-1.3,6.1-1.8c-0.1-1.8-0.2-3.4-0.2-5.1L111.4,210.5
	z M111.7,216.3c-2,0.4-4.1,0.8-6.1,1.1l0.1,8.4c2.1-0.9,4.3-1.7,6.6-2.5c-0.2-2.4-0.3-4.8-0.5-7.1L111.7,216.3z M112.9,230.4
	c-0.2-2.1-0.4-4.2-0.6-6.3c-2.2,0.7-4.4,1.2-6.6,1.7l0.1,6.2v5.4c1.6-0.8,3.2-1.4,4.9-1.8c0.9-0.2,1.8-0.4,2.7-0.6
	c-0.1-1.7-0.3-3.2-0.5-4.8L112.9,230.4z M114.1,240.4c-0.2-1.7-0.4-3.3-0.6-5c-0.9,0.3-1.7,0.7-2.5,1c-1.7,0.6-3.4,1-5.2,1.2
	l0.1,10.4c1.9-0.9,3.9-1.7,5.9-2.3c0.9-0.2,1.8-0.5,2.7-0.7c-0.1-1.6-0.2-3.2-0.4-4.7L114.1,240.4z M114.9,250.4
	c-0.1-1.6-0.2-3.3-0.4-5c-0.8,0.3-1.6,0.7-2.5,1c-2,0.8-4.1,1.4-6.2,1.8v4.1c0,1.8,0,3.6,0,5.4c1.7-0.7,3.4-1.3,5.2-1.6
	c1-0.2,2-0.3,2.9-0.5c0.4-0.1,0.8-0.2,1.2-0.3c0-1.8-0.2-3.4-0.3-5.1L114.9,250.4z M116.4,269.4c-0.4-4.6-0.8-9.1-1.1-13.7
	c-0.4,0.1-0.8,0.2-1.1,0.3c-0.9,0.3-1.9,0.7-2.8,1c-1.8,0.5-3.6,0.9-5.4,1.1c0,4.8,0,9.6,0,14.4c3.5-1.3,7-2.3,10.5-3.3L116.4,269.4
	z M116.5,270.4c0-0.1,0-0.1,0-0.2c-3.5,0.9-7,1.7-10.5,2.4v0.1c0,4.2,0,8.4-0.1,12.6c3.9-1.4,7.8-2.6,11.8-3.7
	c-0.4-3.9-0.8-7.6-1.1-11.3L116.5,270.4z M117.7,282.4c-3.9,1.1-7.9,2.1-11.9,3l-0.1,7.2l12.9-2.4c-0.3-2.8-0.6-5.3-0.9-7.9
	L117.7,282.4z M118.7,209.1l-7.2,1.5c0.2,1.6,0.4,3.2,0.6,4.9c0.9-0.2,1.9-0.5,2.8-0.7c1.5-0.3,2.9-0.5,4.4-0.8
	c-0.1-1.8-0.4-3.4-0.6-5L118.7,209.1z M119.4,214.3c-1.4,0.4-2.8,0.8-4.2,1.2c-1,0.3-1.9,0.5-2.9,0.7c0.3,2.3,0.5,4.6,0.8,6.9
	c0.8-0.3,1.6-0.5,2.4-0.7c1.7-0.5,3.4-0.9,5-1.4c-0.3-2.4-0.6-4.6-0.9-6.9L119.4,214.3z M121.7,228.7c-0.4-2.5-0.9-4.9-1.2-7.4
	c-1.6,0.5-3.2,1.2-4.8,1.8l-2.6,0.8c0.2,2.1,0.4,4.3,0.6,6.5c0.1,1.5,0.2,3.1,0.3,4.6c0.7-0.2,1.4-0.5,2.1-0.8
	c1.7-0.7,3.5-1.3,5.2-1.9l1.1-0.3c-0.2-1.3-0.4-2.5-0.6-3.6L121.7,228.7z M123.6,238.5c-0.3-1.8-0.7-3.6-1-5.5l-1,0.3
	c-1.8,0.6-3.6,1-5.4,1.4c-0.8,0.1-1.5,0.3-2.2,0.6c0.1,1.7,0.2,3.4,0.4,5.1c0.1,1.5,0.3,3,0.4,4.6l0.2-0.1c1.1-0.3,2.1-0.7,3.1-1.2
	c2-0.9,3.9-1.6,5.9-2.3c-0.1-1.2-0.2-2.2-0.4-3.1L123.6,238.5z M125.2,248.4c-0.3-2-0.6-4-0.9-5.9c-2,0.6-3.9,1.3-5.9,1.8
	c-1.1,0.3-2.2,0.6-3.2,1l-0.3,0.1c0.2,1.7,0.4,3.4,0.6,5s0.4,3.2,0.5,4.8c0.3-0.1,0.6-0.2,1-0.3c1.9-0.7,3.7-1.2,5.6-1.7
	c1.1-0.3,2.2-0.5,3.3-0.7c-0.2-1.5-0.4-2.9-0.6-4.2L125.2,248.4z M125.4,207.7L124,208l-5.2,1c0.4,1.6,0.7,3.2,1,4.8
	c1.6-0.4,3.2-0.8,4.8-1.2c0.6-0.2,1.1-0.3,1.7-0.5c-0.2-1.6-0.5-3.1-0.8-4.5L125.4,207.7z M126.4,212.8c-0.6,0.1-1.1,0.2-1.7,0.3
	c-1.6,0.3-3.2,0.6-4.8,1l0,0c0.4,2.2,0.9,4.4,1.2,6.6c1.4-0.5,2.9-1,4.3-1.5l2.2-0.8c-0.4-2-0.8-3.9-1.2-5.8L126.4,212.8z
	 M125.9,253.1c-1,0.4-2.1,0.7-3.2,1c-1.9,0.5-3.8,0.9-5.8,1.2l-1,0.2c0.5,4.5,1,9.1,1.4,13.6l2.1-0.5c2.4-0.5,4.7-1,7-1.6
	c0.5-0.1,1.1-0.3,1.6-0.4c-0.7-4.6-1.4-9.2-2.1-13.7L125.9,253.1z M131,239.7c-2,1-4.1,1.8-6.2,2.6l-0.2,0.1c0.4,2,0.7,4,1.1,5.9
	c0.3,1.4,0.5,2.7,0.8,4c0.6-0.1,1.2-0.2,1.8-0.2c-1.4-2.1,1-8.4,2.8-12.6L131,239.7z M129.7,227.1c-0.7-2.6-1.3-5.2-1.9-7.9
	c-0.7,0.2-1.5,0.4-2.2,0.6c-1.5,0.4-2.9,0.8-4.4,1.3c0.4,2.5,0.9,5,1.3,7.5c0.2,1.1,0.3,2.3,0.5,3.4c1.3-0.3,2.5-0.6,3.8-0.7v-0.1
	l3.1-3.5c0-0.3-0.1-0.5-0.1-0.8L129.7,227.1z M128.3,268.1c-0.1-0.4-0.1-0.8-0.2-1.2l-1.6,0.4c-2.3,0.6-4.6,1.4-6.9,2.1
	c-0.7,0.2-1.5,0.4-2.2,0.6c0,0.1,0,0.2,0,0.4c0.3,3.7,0.6,7.3,0.9,11l2-0.6c2.5-0.6,5-1.2,7.5-1.9l2.5-0.8
	c-0.7-3.4-1.3-6.8-1.9-10.2L128.3,268.1z M130.2,278.6c-0.8,0.2-1.6,0.4-2.3,0.6c-2.5,0.8-4.9,1.6-7.4,2.4l-2.2,0.6
	c0.2,2.6,0.3,5.3,0.4,8l2.6-0.5c3.5-0.7,7.1-1.4,10.6-2.1c-0.6-3.1-1.2-6.2-1.8-9.2L130.2,278.6z M132.4,236.1
	c-0.1,0.1-0.2,0.1-0.3,0.2c-4.4,2.4-7.1,0.9-8.1-0.4c-0.5-0.6,0.8-2.3,2.8-4.5c-1.2,0.6-2.4,1.1-3.6,1.5c0.3,1.9,0.5,3.7,0.8,5.6
	c0.1,1,0.3,1.9,0.5,2.9l0,0c2.1-0.7,4.3-1.3,6.5-1.7l0,0c0.5-1.1,0.9-2,1.2-2.7c0.1-0.2,0.2-0.3,0.2-0.5c0.2-0.3,0.3-0.5,0.3-0.6
	L132.4,236.1z M135.7,210.7l-1.3,0.3c-2.5,0.6-4.9,1.1-7.4,1.6c0.5,1.9,1,3.7,1.4,5.6c2.3-0.8,4.7-1.6,7-2.4c0.5-0.1,1-0.3,1.4-0.4
	c-0.3-1.7-0.7-3.3-1.1-4.9L135.7,210.7z M137.1,216.4c-0.5,0.2-0.9,0.3-1.4,0.5c-2.4,0.8-4.8,1.5-7.1,2.1c0.7,2.6,1.3,5.3,1.9,7.9
	c0,0.1,0,0.1,0,0.2c1.5-1.7,2.9-3.5,4.1-5.4c0.8-1.2,1.8-2.2,3-3c-0.1-1-0.3-1.7-0.5-2.5L137.1,216.4z M137.4,260
	c-6,2.5-2.5-9-2.2-9.9l0,0l0,0c-4,2.8-6,3.1-6.8,2.1l0,0c-0.6,0.2-1.2,0.5-1.8,0.7c0.9,4.5,1.7,9,2.4,13.5c1.5-0.4,2.9-0.8,4.4-1.2
	s3.2-0.9,4.8-1.4c-0.2-1.4-0.5-2.5-0.8-3.8L137.4,260z M138.8,266.1c-0.1-0.5-0.2-1.1-0.4-1.6c-1.6,0.4-3.2,0.8-4.9,1.1
	s-3,0.7-4.5,1.1c0.1,0.4,0.1,0.9,0.2,1.3c0.6,3.3,1.1,6.7,1.6,10.1l4.4-1.4c1.9-0.6,3.8-1.2,5.7-1.8c-0.7-3.1-1.4-6-2.1-9
	L138.8,266.1z M135.9,209.7c2.5-0.5,5-1,7.6-1.4l-1.4-4l-16.5,3.4c0.4,1.4,0.8,2.9,1.2,4.3c2.4-0.7,4.9-1.3,7.4-1.9
	c0.4-0.1,0.9-0.2,1.3-0.3c-0.3-1.3-0.6-2.5-0.9-3.8h0.1c0.5,1,0.9,2.3,1.2,3.5L135.9,209.7z M141.2,275.7c-1.9,0.5-3.8,1-5.8,1.5
	l-4.5,1.2c0.4,3.1,0.9,6.1,1.2,9.2c1.8-0.4,3.5-0.7,5.2-1l6.4-1.3c-0.9-3.3-1.7-6.6-2.5-9.8L141.2,275.7z M143.5,208.5
	c-2.4,0.8-4.9,1.5-7.3,2.1c0.5,1.5,0.9,3.1,1.4,4.6c2.5-0.7,5-1.4,7.6-2c-0.5-1.8-1-3.4-1.6-4.9L143.5,208.5z M145.2,213.4
	c-2.4,1-4.9,1.9-7.4,2.8c0.2,0.7,0.4,1.4,0.6,2.1c2.4-1.3,5.1-2.1,7.9-2.1c-0.3-1-0.6-1.9-1-2.9L145.2,213.4z M146.9,252.7h-0.5
	c-3.6,3.7-6.3,5.9-8.1,6.9c0.3,1.3,0.6,2.5,0.9,3.8c2.7-0.8,5.4-1.5,8.2-2.2l1.7-0.4c-0.7-2.8-1.4-5.6-2.1-8.3L146.9,252.7z
	 M149.8,263.6l-0.5-1.9l-1.7,0.5c-2.7,0.7-5.5,1.4-8.2,2c0.1,0.5,0.3,1.1,0.4,1.6c0.7,2.9,1.3,5.9,2,8.8c2.8-0.8,5.6-1.7,8.4-2.5
	l2-0.5c-0.8-2.8-1.5-5.6-2.2-8.2L149.8,263.6z M160.9,257.8c-2.1-0.8-3.8-1.9-5.4-2.7c-2.4-1.2-5-2-7.7-2.4c0.7,2.6,1.5,5.2,2.2,7.8
	c3.6-0.9,7.3-1.7,11-2.5L160.9,257.8z M161,258.2c-3.6,1.2-7.2,2.2-10.8,3.2c0.2,0.6,0.4,1.3,0.5,1.9c0.7,2.7,1.4,5.4,2.1,8.1
	c3.9-1.1,7.9-2.1,11.9-3L161,258.2z M164.7,268.6c-3.9,1.3-7.8,2.6-11.7,3.8c0.9,3.4,1.7,6.8,2.4,10.3h-0.1
	c-1.1-3.3-2.1-6.7-3.1-10.1l-2,0.6c-2.8,0.8-5.6,1.6-8.5,2.3c0.7,3.2,1.4,6.5,2,9.7l25-5L164.7,268.6z M111.4,210.6l-5.9,1.2
	l0.1,5.6c2-0.7,4-1.3,6.1-1.8c0-1.9-0.1-3.6-0.2-5.2L111.4,210.6z M111.7,216.4c-2,0.4-4.1,0.8-6.1,1.1l0.1,8.4
	c2.1-0.9,4.3-1.7,6.6-2.5c-0.1-2.6-0.3-4.9-0.5-7.2L111.7,216.4z M112.9,230.5c-0.2-2.1-0.4-4.2-0.6-6.3c-2.2,0.7-4.4,1.2-6.6,1.7
	l0.1,6.2v5.4c1.6-0.8,3.2-1.4,4.9-1.8c0.9-0.2,1.8-0.4,2.7-0.6c-0.1-1.8-0.3-3.3-0.5-4.9L112.9,230.5z M114,240.5
	c-0.2-1.7-0.4-3.3-0.6-5c-0.9,0.3-1.7,0.7-2.5,1c-1.7,0.6-3.4,1-5.2,1.2l0.1,10.4c1.9-0.9,3.9-1.7,5.9-2.3c0.9-0.2,1.8-0.5,2.7-0.7
	c-0.1-1.8-0.2-3.3-0.4-4.8L114,240.5z M114.8,250.5c-0.1-1.6-0.2-3.3-0.4-5c-0.8,0.3-1.6,0.7-2.5,1c-2,0.8-4.1,1.4-6.2,1.8v4.1
	c0,1.8,0,3.6,0,5.4c1.7-0.7,3.4-1.3,5.2-1.6c1-0.2,2-0.3,2.9-0.5c0.4-0.1,0.8-0.2,1.2-0.3c0-1.9-0.1-3.6-0.2-5.2L114.8,250.5z
	 M116.3,269.5c-0.4-4.6-0.8-9.1-1.1-13.7c-0.4,0.1-0.8,0.2-1.1,0.3c-0.9,0.3-1.9,0.7-2.8,1c-1.8,0.5-3.6,0.9-5.4,1.1
	c0,4.8,0,9.6,0,14.4c3.5-1.3,7-2.4,10.5-3.4L116.3,269.5z M116.4,270.5c0-0.1,0-0.1,0-0.2c-3.5,0.9-7,1.7-10.5,2.4v0.1
	c0,4.2,0,8.4-0.1,12.6c3.9-1.4,7.8-2.6,11.8-3.7c-0.4-4-0.8-7.7-1.1-11.4L116.4,270.5z M117.7,282.5c-3.9,1.1-7.9,2.1-11.9,3
	l-0.1,7.2l12.9-2.4c-0.3-2.9-0.6-5.5-0.9-8L117.7,282.5z M118.7,209.2l-7.2,1.5c0.2,1.6,0.4,3.2,0.6,4.9c0.9-0.2,1.9-0.5,2.8-0.7
	c1.5-0.3,2.9-0.5,4.4-0.8c-0.1-1.9-0.3-3.5-0.5-5.1L118.7,209.2z M119.4,214.4c-1.4,0.4-2.8,0.8-4.2,1.2c-1,0.3-1.9,0.5-2.9,0.7
	c0.3,2.3,0.5,4.6,0.8,6.9c0.8-0.3,1.6-0.5,2.4-0.7c1.7-0.5,3.4-0.9,5-1.4c-0.2-2.5-0.6-4.8-0.9-7L119.4,214.4z M121.7,228.8
	c-0.4-2.5-0.9-4.9-1.2-7.4c-1.6,0.5-3.2,1.2-4.8,1.8l-2.6,0.8c0.2,2.1,0.4,4.3,0.6,6.5c0.1,1.5,0.2,3.1,0.3,4.6
	c0.7-0.2,1.4-0.5,2.1-0.8c1.7-0.7,3.5-1.3,5.2-1.9l1.1-0.3c-0.1-1.4-0.4-2.6-0.6-3.7L121.7,228.8z M123.6,238.6
	c-0.3-1.8-0.7-3.6-1-5.5l-1,0.3c-1.8,0.6-3.6,1-5.4,1.4c-0.8,0.1-1.5,0.3-2.2,0.6c0.1,1.7,0.2,3.4,0.4,5.1c0.1,1.5,0.3,3,0.4,4.6
	l0.2-0.1c1.1-0.3,2.1-0.7,3.1-1.2c2-0.9,3.9-1.6,5.9-2.3c-0.1-1.3-0.2-2.3-0.4-3.3L123.6,238.6z M125.2,248.5c-0.3-2-0.6-4-0.9-5.9
	c-2,0.6-3.9,1.3-5.9,1.8c-1.1,0.3-2.2,0.6-3.2,1l-0.3,0.1c0.2,1.7,0.4,3.4,0.6,5s0.4,3.2,0.5,4.8c0.3-0.1,0.6-0.2,1-0.3
	c1.9-0.7,3.7-1.2,5.6-1.7c1.1-0.3,2.2-0.5,3.3-0.7c-0.2-1.6-0.4-3-0.6-4.3L125.2,248.5z M125.4,207.8l-1.4,0.3l-5.2,1
	c0.4,1.6,0.7,3.2,1,4.8c1.6-0.4,3.2-0.8,4.8-1.2c0.6-0.2,1.1-0.3,1.7-0.5c-0.2-1.7-0.5-3.2-0.8-4.6L125.4,207.8z M126.4,212.9
	c-0.6,0.1-1.1,0.2-1.7,0.3c-1.6,0.3-3.2,0.6-4.8,1l0,0c0.4,2.2,0.9,4.4,1.2,6.6c1.4-0.5,2.9-1,4.3-1.5l2.2-0.8c-0.3-2.1-0.8-4-1.1-6
	L126.4,212.9z M125.9,253.2c-1,0.4-2.1,0.7-3.2,1c-1.9,0.5-3.8,0.9-5.8,1.2l-1,0.2c0.5,4.5,1,9.1,1.4,13.6l2.1-0.5
	c2.4-0.5,4.7-1,7-1.6c0.5-0.1,1.1-0.3,1.6-0.4c-0.7-4.7-1.4-9.3-2-13.8L125.9,253.2z M130.9,239.8c-2,1-4.1,1.8-6.2,2.6l-0.2,0.1
	c0.4,2,0.7,4,1.1,5.9c0.3,1.4,0.5,2.7,0.8,4c0.6-0.1,1.2-0.2,1.8-0.2c-1.3-2.2,1-8.5,2.8-12.7L130.9,239.8z M129.6,227.2
	c-0.7-2.6-1.3-5.2-1.9-7.9c-0.7,0.2-1.5,0.4-2.2,0.6c-1.5,0.4-2.9,0.8-4.4,1.3c0.4,2.5,0.9,5,1.3,7.5c0.2,1.1,0.3,2.3,0.5,3.4
	c1.3-0.3,2.5-0.6,3.8-0.7v-0.2l3.1-3.5c0-0.3,0-0.5-0.1-0.8L129.6,227.2z M128.3,268.2c-0.1-0.4-0.1-0.8-0.2-1.2l-1.6,0.4
	c-2.3,0.6-4.6,1.4-6.9,2.1c-0.7,0.2-1.5,0.4-2.2,0.6c0,0.1,0,0.2,0,0.4c0.3,3.7,0.6,7.3,0.9,11l2-0.6c2.5-0.6,5-1.2,7.5-1.9l2.5-0.9
	c-0.7-3.4-1.3-6.8-1.9-10.2L128.3,268.2z M130.2,278.7c-0.8,0.2-1.6,0.4-2.3,0.6c-2.5,0.8-4.9,1.6-7.4,2.4l-2.2,0.6
	c0.2,2.6,0.3,5.3,0.4,8l2.6-0.5c3.5-0.7,7.1-1.4,10.6-2.1c-0.6-3.2-1.2-6.3-1.7-9.3L130.2,278.7z M132.3,236.2
	c-0.1,0.1-0.2,0.1-0.3,0.2c-4.4,2.4-7.1,0.9-8.1-0.4c-0.5-0.6,0.8-2.3,2.8-4.5c-1.2,0.6-2.4,1.1-3.6,1.5c0.3,1.9,0.5,3.7,0.8,5.6
	c0.1,1,0.3,1.9,0.5,2.9l0,0c2.1-0.7,4.3-1.3,6.5-1.7l0,0c0.5-1.1,0.9-2,1.2-2.7c0.1-0.2,0.2-0.3,0.2-0.5c0.2-0.3,0.3-0.5,0.3-0.6
	L132.3,236.2z M135.7,210.9l-1.3,0.3c-2.5,0.6-4.9,1.1-7.4,1.6c0.5,1.9,1,3.7,1.4,5.6c2.3-0.8,4.7-1.6,7-2.4c0.5-0.1,1-0.3,1.4-0.4
	c-0.3-1.7-0.7-3.4-1-5L135.7,210.9z M137,216.5c-0.5,0.2-0.9,0.3-1.4,0.5c-2.4,0.8-4.8,1.5-7.1,2.1c0.7,2.6,1.3,5.3,1.9,7.9
	c0,0.1,0,0.1,0,0.2c1.5-1.7,2.9-3.5,4.1-5.4c0.8-1.2,1.8-2.2,3-3c-0.1-1.1-0.3-1.9-0.5-2.6L137,216.5z M137.3,260.1
	c-6,2.5-2.5-9-2.2-9.9l0,0l0,0c-4,2.8-6,3.1-6.8,2.1l0,0c-0.6,0.2-1.2,0.5-1.8,0.7c0.9,4.5,1.7,9,2.4,13.5c1.5-0.4,2.9-0.8,4.4-1.2
	s3.2-0.9,4.8-1.4c-0.2-1.5-0.5-2.7-0.8-3.9L137.3,260.1z M138.7,266.2c-0.1-0.5-0.2-1.1-0.4-1.6c-1.6,0.4-3.2,0.8-4.9,1.1
	s-3,0.7-4.5,1.1c0.1,0.4,0.1,0.9,0.2,1.3c0.6,3.3,1.1,6.7,1.6,10.1l4.4-1.4c1.9-0.6,3.8-1.2,5.7-1.8c-0.7-3.2-1.4-6.2-2.1-9.1
	L138.7,266.2z M135.8,209.8c2.5-0.5,5-1,7.6-1.4l-1.4-4l-16.5,3.4c0.4,1.4,0.8,2.9,1.2,4.3c2.4-0.7,4.9-1.3,7.4-1.9
	c0.4-0.1,0.9-0.2,1.3-0.3c-0.3-1.3-0.6-2.5-0.9-3.8h0.1c0.5,0.9,0.9,2.2,1.3,3.4L135.8,209.8z M141.1,275.8c-1.9,0.5-3.8,1-5.8,1.5
	l-4.5,1.2c0.4,3.1,0.9,6.1,1.2,9.2c1.8-0.4,3.5-0.7,5.2-1l6.4-1.3c-0.8-3.4-1.7-6.7-2.5-9.9L141.1,275.8z M143.5,208.6
	c-2.4,0.8-4.9,1.5-7.3,2.1c0.5,1.5,0.9,3.1,1.4,4.6c2.5-0.7,5-1.4,7.6-2c-0.4-1.9-1-3.5-1.5-5L143.5,208.6z M145.1,213.5
	c-2.4,1-4.9,1.9-7.4,2.8c0.2,0.7,0.4,1.4,0.6,2.1c2.4-1.4,5.1-2.1,7.9-2.2c-0.3-1-0.6-1.9-1-2.9L145.1,213.5z M146.9,252.8h-0.5
	c-3.6,3.7-6.3,5.9-8.1,6.9c0.3,1.3,0.6,2.5,0.9,3.8c2.7-0.8,5.4-1.5,8.2-2.2l1.7-0.4c-0.7-2.9-1.3-5.7-2-8.4L146.9,252.8z
	 M149.8,263.7l-0.5-1.9l-1.7,0.5c-2.7,0.7-5.5,1.4-8.2,2c0.1,0.5,0.3,1.1,0.4,1.6c0.7,2.9,1.3,5.9,2,8.8c2.8-0.8,5.6-1.7,8.4-2.5
	l2-0.5c-0.7-2.9-1.5-5.7-2.2-8.4L149.8,263.7z M160.8,258c-2.1-0.8-3.8-1.9-5.4-2.7c-2.4-1.2-5-2-7.7-2.4c0.7,2.6,1.5,5.2,2.2,7.8
	c3.6-0.9,7.3-1.7,11-2.5L160.8,258z M161,258.3c-3.6,1.2-7.2,2.2-10.8,3.2c0.2,0.6,0.4,1.3,0.5,1.9c0.7,2.7,1.4,5.4,2.1,8.1
	c3.9-1.1,7.9-2.1,11.9-3L161,258.3z M164.7,268.7c-3.9,1.3-7.8,2.6-11.7,3.8c0.9,3.4,1.7,6.8,2.4,10.3h-0.1
	c-1.1-3.3-2.1-6.7-3.1-10.1l-2,0.6c-2.8,0.8-5.6,1.6-8.5,2.3c0.7,3.2,1.4,6.5,2,9.7l25-5L164.7,268.7z M161.8,291.1l-21.3,3.8
	c-7.1,1.3-14.2,2.5-21.3,3.7l-21.3,3.6l-0.3,0l-0.2-0.2l-30.6-42.2c-5.1-7-10.2-14.1-15.4-21l-15.6-20.9l-0.1-0.1
	c-1.2,0.3-2.5,0.4-3.7,0.4c-1.4,0-2.8-0.1-4.1-0.5l65.6,91.6l89.6-17.5v-4.7c-7,1.3-14.1,2.6-21.2,3.8L161.8,291.1z M99.3,253.5
	l-0.6,24l-0.4,12l-0.5,11.2l0.2,0.2l21-3.6c7.1-1.2,14.2-2.4,21.3-3.5l21.4-3.5c7.1-1.2,14.2-2.3,21.4-3.4l-12.3-28.2
	c-2.9,0.6-6,0.4-8.8-0.6l7.7,22.1l0.1,0.4l-0.4,0.1l-32,6.1c-5.3,1-10.7,2-16,3.1l-16,3.2l-0.3,0.1V293c-0.1-6.8-0.1-13.6-0.1-20.4
	s0-13.6,0-20.4L105,232l0.2-20.2l18.3-4.1l18.7-4.4l0.3-0.1l0.1,0.3c1.5,4.1,2.9,8.1,4.4,12.2c0.7-0.7,2-1.9,3.6-3.3l-5.5-12.7
	l-45.3,5.3c0,8-0.1,16-0.2,24L99.3,253.5z M48.9,185.1l-6.1,16l-6.2,16.1l15.1,21c5.1,7,10.3,14,15.4,21l30.6,41.4v-11.2l0.1-12
	l0.4-24l0.6-24c0.3-8,0.5-16,0.9-24l-38.8-53.2l-6,16.4L48.9,185.1z M62.1,163.1l34.2,46l-3.7,76L43,217.6L62.1,163.1z M35.8,217.1
	L35.8,217.1l6.2-16.4l6.3-16.3l6.3-16.3L61,152h-5.6L28,217.2c1.3-0.3,2.7-0.5,4.1-0.5C33.3,216.7,34.6,216.8,35.8,217.1z
	 M164.8,268.4c-3.9,1.3-7.8,2.6-11.7,3.8c0.9,3.4,1.7,6.8,2.4,10.3h-0.1c-1.1-3.3-2.1-6.7-3.1-10.1l-2,0.6c-2.8,0.8-5.6,1.6-8.5,2.3
	c0.7,3.2,1.4,6.5,2,9.7l25-5L164.8,268.4z M161.1,258c-3.6,1.2-7.2,2.2-10.8,3.2c0.2,0.6,0.4,1.3,0.5,1.9c0.7,2.7,1.4,5.4,2.1,8.1
	c3.9-1.1,7.9-2.1,11.9-3L161.1,258z M160.9,257.6c-2.1-0.8-3.8-1.9-5.4-2.7c-2.4-1.2-5-2-7.7-2.4c0.7,2.6,1.5,5.2,2.2,7.8
	c3.6-0.9,7.3-1.7,11-2.5L160.9,257.6z M149.9,263.4l-0.5-1.9l-1.7,0.5c-2.7,0.7-5.5,1.4-8.2,2c0.1,0.5,0.3,1.1,0.4,1.6
	c0.7,2.9,1.3,5.9,2,8.8c2.8-0.8,5.6-1.7,8.4-2.5l2-0.5C151.4,268.8,150.6,266.1,149.9,263.4L149.9,263.4z M147,252.5h-0.5
	c-3.6,3.7-6.3,5.9-8.1,6.9c0.3,1.3,0.6,2.5,0.9,3.8c2.7-0.8,5.4-1.5,8.2-2.2l1.7-0.4C148.4,257.9,147.7,255.2,147,252.5L147,252.5z
	 M145.2,213.2c-2.4,1-4.9,1.9-7.4,2.8c0.2,0.7,0.4,1.4,0.6,2.1c2.4-1.3,5.1-1.9,7.8-1.9C145.9,215.2,145.6,214.2,145.2,213.2z
	 M143.6,208.3c-2.4,0.8-4.9,1.5-7.3,2.1c0.5,1.5,0.9,3.1,1.4,4.6c2.5-0.7,5-1.4,7.6-2C144.6,211.4,144.1,209.9,143.6,208.3z
	 M141.2,275.5c-1.9,0.5-3.8,1-5.8,1.5l-4.5,1.2c0.4,3.1,0.9,6.1,1.2,9.2c1.8-0.4,3.5-0.7,5.2-1l6.4-1.3
	C142.9,281.9,142.1,278.7,141.2,275.5z M135.9,209.5c2.5-0.5,5-1,7.6-1.4l-1.4-4l-16.5,3.4c0.4,1.4,0.8,2.9,1.2,4.3
	c2.4-0.7,4.9-1.3,7.4-1.9c0.4-0.1,0.9-0.2,1.3-0.3c-0.3-1.3-0.6-2.5-0.9-3.8h0.1C135.2,207.1,135.6,208.3,135.9,209.5L135.9,209.5z
	 M138.8,265.9c-0.1-0.5-0.2-1.1-0.4-1.6c-1.6,0.4-3.2,0.8-4.9,1.1s-3,0.7-4.5,1.1c0.1,0.4,0.1,0.9,0.2,1.3c0.6,3.3,1.1,6.7,1.6,10.1
	l4.4-1.4c1.9-0.6,3.8-1.2,5.7-1.8C140.2,271.8,139.5,268.9,138.8,265.9L138.8,265.9z M137.4,259.8c-6,2.5-2.5-9-2.2-9.9l0,0l0,0
	c-4,2.8-6,3.1-6.8,2.1l0,0c-0.6,0.2-1.2,0.5-1.8,0.7c0.9,4.5,1.7,9,2.4,13.5c1.5-0.4,2.9-0.8,4.4-1.2s3.2-0.9,4.8-1.4
	C138,262.3,137.7,261.1,137.4,259.8L137.4,259.8z M137.1,216.2c-0.5,0.2-0.9,0.3-1.4,0.5c-2.4,0.8-4.8,1.5-7.1,2.1
	c0.7,2.6,1.3,5.3,1.9,7.9c0,0.1,0,0.1,0,0.2c1.5-1.7,2.9-3.5,4.1-5.4c0.8-1.2,1.8-2.2,3-3C137.5,217.7,137.3,216.9,137.1,216.2
	L137.1,216.2z M135.8,210.6l-1.3,0.3c-2.5,0.6-4.9,1.1-7.4,1.6c0.5,1.9,1,3.7,1.4,5.6c2.3-0.8,4.7-1.6,7-2.4c0.5-0.1,1-0.3,1.4-0.4
	C136.5,213.7,136.1,212.1,135.8,210.6L135.8,210.6z M132.4,235.9c-0.1,0.1-0.2,0.1-0.3,0.2c-4.4,2.4-7.1,0.9-8.1-0.4
	c-0.5-0.6,0.8-2.3,2.8-4.5c-1.2,0.6-2.4,1.1-3.6,1.5c0.3,1.9,0.5,3.7,0.8,5.6c0.1,1,0.3,1.9,0.5,2.9l0,0c2.1-0.7,4.3-1.3,6.5-1.7
	l0,0c0.5-1.1,0.9-2,1.2-2.7c0.1-0.2,0.2-0.3,0.2-0.5c0.2-0.3,0.3-0.5,0.3-0.6L132.4,235.9z M130.3,278.4c-0.8,0.2-1.6,0.4-2.3,0.6
	c-2.5,0.8-4.9,1.6-7.4,2.4l-2.2,0.6c0.2,2.6,0.3,5.3,0.4,8l2.6-0.5c3.5-0.7,7.1-1.4,10.6-2.1C131.5,284.4,130.9,281.4,130.3,278.4
	L130.3,278.4z M128.4,267.9c-0.1-0.4-0.1-0.8-0.2-1.2l-1.6,0.4c-2.3,0.6-4.6,1.4-6.9,2.1c-0.7,0.2-1.5,0.4-2.2,0.6
	c0,0.1,0,0.2,0,0.4c0.3,3.7,0.6,7.3,0.9,11l2-0.6c2.5-0.6,5-1.2,7.5-1.9l2.4-0.6C129.6,274.7,128.9,271.3,128.4,267.9L128.4,267.9z
	 M129.7,226.9c-0.7-2.6-1.3-5.2-1.9-7.9c-0.7,0.2-1.5,0.4-2.2,0.6c-1.5,0.4-2.9,0.8-4.4,1.3c0.4,2.5,0.9,5,1.3,7.5
	c0.2,1.1,0.3,2.3,0.5,3.4c1.3-0.3,2.5-0.6,3.8-0.7v0.1l3.1-3.5C129.8,227.4,129.8,227.1,129.7,226.9L129.7,226.9z M131,239.5
	c-2,1-4.1,1.8-6.2,2.6l-0.2,0.1c0.4,2,0.7,4,1.1,5.9c0.3,1.4,0.5,2.7,0.8,4c0.6-0.1,1.2-0.2,1.8-0.2
	C126.9,250,129.2,243.7,131,239.5L131,239.5z M126,252.9c-1,0.4-2.1,0.7-3.2,1c-1.9,0.5-3.8,0.9-5.8,1.2l-1,0.2
	c0.5,4.5,1,9.1,1.4,13.6l2.1-0.5c2.4-0.5,4.7-1,7-1.6c0.5-0.1,1.1-0.3,1.6-0.4C127.3,261.9,126.6,257.4,126,252.9L126,252.9z
	 M126.5,212.6c-0.6,0.1-1.1,0.2-1.7,0.3c-1.6,0.3-3.2,0.6-4.8,1l0,0c0.4,2.2,0.9,4.4,1.2,6.6c1.4-0.5,2.9-1,4.3-1.5l2.2-0.8
	C127.3,216.4,126.9,214.5,126.5,212.6L126.5,212.6z M125.5,207.5l-1.4,0.3l-5.2,1c0.4,1.6,0.7,3.2,1,4.8c1.6-0.4,3.2-0.8,4.8-1.2
	c0.6-0.2,1.1-0.3,1.7-0.5C126.1,210.5,125.8,209,125.5,207.5L125.5,207.5z M125.2,248.2c-0.3-2-0.6-4-0.9-5.9
	c-2,0.6-3.9,1.3-5.9,1.8c-1.1,0.3-2.2,0.6-3.2,1l-0.3,0.1c0.2,1.7,0.4,3.4,0.6,5s0.4,3.2,0.5,4.8c0.3-0.1,0.6-0.2,1-0.3
	c1.9-0.7,3.7-1.2,5.6-1.7c1.1-0.3,2.2-0.5,3.3-0.7C125.7,250.9,125.4,249.5,125.2,248.2z M123.6,238.3c-0.3-1.8-0.7-3.6-1-5.5
	l-1,0.3c-1.8,0.6-3.6,1-5.4,1.4c-0.8,0.1-1.5,0.3-2.2,0.6c0.1,1.7,0.2,3.4,0.4,5.1c0.1,1.5,0.3,3,0.4,4.6l0.2-0.1
	c1.1-0.3,2.1-0.7,3.1-1.2c2-0.9,3.9-1.6,5.9-2.3C124,240.3,123.9,239.3,123.6,238.3L123.6,238.3z M121.8,228.5
	c-0.4-2.5-0.9-4.9-1.2-7.4c-1.6,0.5-3.2,1.2-4.8,1.8l-2.6,0.8c0.2,2.1,0.4,4.3,0.6,6.5c0.1,1.5,0.2,3.1,0.3,4.6
	c0.7-0.2,1.4-0.5,2.1-0.8c1.7-0.7,3.5-1.3,5.2-1.9l1.1-0.3C122.2,230.8,122,229.6,121.8,228.5L121.8,228.5z M119.5,214.1
	c-1.4,0.4-2.8,0.8-4.2,1.2c-1,0.3-1.9,0.5-2.9,0.7c0.3,2.3,0.5,4.6,0.8,6.9c0.8-0.3,1.6-0.5,2.4-0.7c1.7-0.5,3.4-0.9,5-1.4
	C120.1,218.6,119.8,216.4,119.5,214.1z M118.8,208.9l-7.2,1.5c0.2,1.6,0.4,3.2,0.6,4.9c0.9-0.2,1.9-0.5,2.8-0.7
	c1.5-0.3,2.9-0.5,4.4-0.8C119.2,212.1,119,210.5,118.8,208.9z M117.8,282.2c-3.9,1.1-7.9,2.1-11.9,3l-0.1,7.2l12.9-2.4
	C118.4,287.4,118.1,284.8,117.8,282.2L117.8,282.2z M116.5,270.2c0-0.1,0-0.1,0-0.2c-3.5,0.9-7,1.7-10.5,2.4v0.1
	c0,4.2,0,8.4-0.1,12.6c3.9-1.4,7.8-2.6,11.8-3.7C117.2,277.7,116.8,274,116.5,270.2L116.5,270.2z M116.4,269.2
	c-0.4-4.6-0.8-9.1-1.1-13.7c-0.4,0.1-0.8,0.2-1.1,0.3c-0.9,0.3-1.9,0.7-2.8,1c-1.8,0.5-3.6,0.9-5.4,1.1c0,4.8,0,9.6,0,14.4
	C109.4,271.1,112.9,270.1,116.4,269.2L116.4,269.2z M114.9,250.2c-0.1-1.6-0.2-3.3-0.4-5c-0.8,0.3-1.6,0.7-2.5,1
	c-2,0.8-4.1,1.4-6.2,1.8v4.1c0,1.8,0,3.6,0,5.4c1.7-0.7,3.4-1.3,5.2-1.6c1-0.2,2-0.3,2.9-0.5c0.4-0.1,0.8-0.2,1.2-0.3
	C115.1,253.5,115,251.9,114.9,250.2L114.9,250.2z M114.1,240.2c-0.2-1.7-0.4-3.3-0.6-5c-0.9,0.3-1.7,0.7-2.5,1
	c-1.7,0.6-3.4,1-5.2,1.2l0.1,10.4c1.9-0.9,3.9-1.7,5.9-2.3c0.9-0.2,1.8-0.5,2.7-0.7C114.4,243.3,114.2,241.8,114.1,240.2
	L114.1,240.2z M113,230.2c-0.2-2.1-0.4-4.2-0.6-6.3c-2.2,0.7-4.4,1.2-6.6,1.7l0.1,6.2v5.4c1.6-0.8,3.2-1.4,4.9-1.8
	c0.9-0.2,1.8-0.4,2.7-0.6C113.3,233.4,113.1,231.9,113,230.2L113,230.2z M111.8,216.1c-2,0.4-4.1,0.8-6.1,1.1l0.1,8.4
	c2.1-0.9,4.3-1.7,6.6-2.5C112.1,220.9,111.9,218.5,111.8,216.1L111.8,216.1z M111.5,210.3l-5.9,1.2l0.1,5.6c2-0.7,4-1.3,6.1-1.8
	C111.6,213.7,111.5,212,111.5,210.3L111.5,210.3z M164.8,268.3c-3.9,1.3-7.8,2.6-11.7,3.8c0.9,3.4,1.7,6.8,2.4,10.3h-0.1
	c-1.1-3.3-2.1-6.7-3.1-10.1l-2,0.6c-2.8,0.8-5.6,1.6-8.5,2.3c0.7,3.2,1.4,6.5,2,9.7l25-5L164.8,268.3z M161.1,258
	c-3.6,1.2-7.2,2.2-10.8,3.2c0.2,0.6,0.4,1.3,0.5,1.9c0.7,2.7,1.4,5.4,2.1,8.1c3.9-1.1,7.9-2.1,11.9-3L161.1,258z M161,257.6
	c-2.1-0.8-3.8-1.9-5.4-2.7c-2.4-1.2-5-2-7.7-2.4c0.7,2.6,1.5,5.2,2.2,7.8c3.6-0.9,7.3-1.7,11-2.5L161,257.6z M149.9,263.3l-0.5-1.9
	l-1.7,0.5c-2.7,0.7-5.5,1.4-8.2,2c0.1,0.5,0.3,1.1,0.4,1.6c0.7,2.9,1.3,5.9,2,8.8c2.8-0.8,5.6-1.7,8.4-2.5l2-0.5
	C151.4,268.8,150.6,266.1,149.9,263.3L149.9,263.3z M147,252.4h-0.5c-3.6,3.7-6.3,5.9-8.1,6.9c0.3,1.3,0.6,2.5,0.9,3.8
	c2.7-0.8,5.4-1.5,8.2-2.2l1.7-0.4C148.4,257.9,147.7,255.2,147,252.4L147,252.4z M145.2,213.2c-2.4,1-4.9,1.9-7.4,2.8
	c0.2,0.7,0.4,1.4,0.6,2.1c2.4-1.3,5.1-1.9,7.8-1.9C145.9,215.2,145.6,214.2,145.2,213.2z M143.6,208.3c-2.4,0.8-4.9,1.5-7.3,2.1
	c0.5,1.5,0.9,3.1,1.4,4.6c2.5-0.7,5-1.4,7.6-2C144.6,211.4,144.1,209.9,143.6,208.3z M141.2,275.5c-1.9,0.5-3.8,1-5.8,1.5l-4.5,1.2
	c0.4,3.1,0.9,6.1,1.2,9.2c1.8-0.4,3.5-0.7,5.2-1l6.4-1.3C142.9,281.9,142.1,278.7,141.2,275.5z M135.9,209.5c2.5-0.5,5-1,7.6-1.4
	l-1.4-4l-16.5,3.4c0.4,1.4,0.8,2.9,1.2,4.3c2.4-0.7,4.9-1.3,7.4-1.9c0.4-0.1,0.9-0.2,1.3-0.3c-0.3-1.3-0.6-2.5-0.9-3.8h0.1
	C135.2,207.1,135.6,208.3,135.9,209.5L135.9,209.5z M138.8,265.9c-0.1-0.5-0.2-1.1-0.4-1.6c-1.6,0.4-3.2,0.8-4.9,1.1s-3,0.7-4.5,1.1
	c0.1,0.4,0.1,0.9,0.2,1.3c0.6,3.3,1.1,6.7,1.6,10.1l4.4-1.4c1.9-0.6,3.8-1.2,5.7-1.8C140.2,271.8,139.5,268.9,138.8,265.9
	L138.8,265.9z M137.4,259.8c-6,2.5-2.5-9-2.2-9.9l0,0l0,0c-4,2.8-6,3.1-6.8,2.1l0,0c-0.6,0.2-1.2,0.5-1.8,0.7
	c0.9,4.5,1.7,9,2.4,13.5c1.5-0.4,2.9-0.8,4.4-1.2s3.2-0.9,4.8-1.4C138,262.3,137.7,261.1,137.4,259.8L137.4,259.8z M137.1,216.2
	c-0.5,0.2-0.9,0.3-1.4,0.5c-2.4,0.8-4.8,1.5-7.1,2.1c0.7,2.6,1.3,5.3,1.9,7.9c0,0.1,0,0.1,0,0.2c1.5-1.7,2.9-3.5,4.1-5.4
	c0.8-1.2,1.8-2.2,3-3C137.5,217.7,137.3,216.9,137.1,216.2L137.1,216.2z M135.8,210.6l-1.3,0.3c-2.5,0.6-4.9,1.1-7.4,1.6
	c0.5,1.9,1,3.7,1.4,5.6c2.3-0.8,4.7-1.6,7-2.4c0.5-0.1,1-0.3,1.4-0.4C136.5,213.7,136.1,212.1,135.8,210.6L135.8,210.6z
	 M132.4,235.9c-0.1,0.1-0.2,0.1-0.3,0.2c-4.4,2.4-7.1,0.9-8.1-0.4c-0.5-0.6,0.8-2.3,2.8-4.5c-1.2,0.6-2.4,1.1-3.6,1.5
	c0.3,1.9,0.5,3.7,0.8,5.6c0.1,1,0.3,1.9,0.5,2.9l0,0c2.1-0.7,4.3-1.3,6.5-1.7l0,0c0.5-1.1,0.9-2,1.2-2.7c0.1-0.2,0.2-0.3,0.2-0.5
	c0.2-0.3,0.3-0.5,0.3-0.6L132.4,235.9z M130.3,278.4c-0.8,0.2-1.6,0.4-2.3,0.6c-2.5,0.8-4.9,1.6-7.4,2.4l-2.2,0.6
	c0.2,2.6,0.3,5.3,0.4,8l2.6-0.5c3.5-0.7,7.1-1.4,10.6-2.1C131.5,284.4,130.9,281.4,130.3,278.4L130.3,278.4z M128.4,267.9
	c-0.1-0.4-0.1-0.8-0.2-1.2l-1.6,0.4c-2.3,0.6-4.6,1.4-6.9,2.1c-0.7,0.2-1.5,0.4-2.2,0.6c0,0.1,0,0.2,0,0.4c0.3,3.7,0.6,7.3,0.9,11
	l2-0.6c2.5-0.6,5-1.2,7.5-1.9l2.4-0.6C129.6,274.7,128.9,271.3,128.4,267.9L128.4,267.9z M129.7,226.9c-0.7-2.6-1.3-5.2-1.9-7.9
	c-0.7,0.2-1.5,0.4-2.2,0.6c-1.5,0.4-2.9,0.8-4.4,1.3c0.4,2.5,0.9,5,1.3,7.5c0.2,1.1,0.3,2.3,0.5,3.4c1.3-0.3,2.5-0.6,3.8-0.7v0.1
	l3.1-3.5C129.8,227.4,129.8,227.1,129.7,226.9L129.7,226.9z M131,239.5c-2,1-4.1,1.8-6.2,2.6l-0.2,0.1c0.4,2,0.7,4,1.1,5.9
	c0.3,1.4,0.5,2.7,0.8,4c0.6-0.1,1.2-0.2,1.8-0.2C126.9,250,129.2,243.7,131,239.5L131,239.5z M126,252.9c-1,0.4-2.1,0.7-3.2,1
	c-1.9,0.5-3.8,0.9-5.8,1.2l-1,0.2c0.5,4.5,1,9.1,1.4,13.6l2.1-0.5c2.4-0.5,4.7-1,7-1.6c0.5-0.1,1.1-0.3,1.6-0.4
	C127.3,261.9,126.6,257.4,126,252.9L126,252.9z M126.5,212.6c-0.6,0.1-1.1,0.2-1.7,0.3c-1.6,0.3-3.2,0.6-4.8,1l0,0
	c0.4,2.2,0.9,4.4,1.2,6.6c1.4-0.5,2.9-1,4.3-1.5l2.2-0.8C127.3,216.4,126.9,214.5,126.5,212.6L126.5,212.6z M125.5,207.5l-1.4,0.3
	l-5.2,1c0.4,1.6,0.7,3.2,1,4.8c1.6-0.4,3.2-0.8,4.8-1.2c0.6-0.2,1.1-0.3,1.7-0.5C126.1,210.5,125.8,209,125.5,207.5L125.5,207.5z
	 M125.2,248.2c-0.3-2-0.6-4-0.9-5.9c-2,0.6-3.9,1.3-5.9,1.8c-1.1,0.3-2.2,0.6-3.2,1l-0.3,0.1c0.2,1.7,0.4,3.4,0.6,5s0.4,3.2,0.5,4.8
	c0.3-0.1,0.6-0.2,1-0.3c1.9-0.7,3.7-1.2,5.6-1.7c1.1-0.3,2.2-0.5,3.3-0.7C125.7,250.9,125.4,249.5,125.2,248.2z M123.6,238.3
	c-0.3-1.8-0.7-3.6-1-5.5l-1,0.3c-1.8,0.6-3.6,1-5.4,1.4c-0.8,0.1-1.5,0.3-2.2,0.6c0.1,1.7,0.2,3.4,0.4,5.1c0.1,1.5,0.3,3,0.4,4.6
	l0.2-0.1c1.1-0.3,2.1-0.7,3.1-1.2c2-0.9,3.9-1.6,5.9-2.3C124,240.3,123.9,239.3,123.6,238.3L123.6,238.3z M121.8,228.5
	c-0.4-2.5-0.9-4.9-1.2-7.4c-1.6,0.5-3.2,1.2-4.8,1.8l-2.6,0.8c0.2,2.1,0.4,4.3,0.6,6.5c0.1,1.5,0.2,3.1,0.3,4.6
	c0.7-0.2,1.4-0.5,2.1-0.8c1.7-0.7,3.5-1.3,5.2-1.9l1.1-0.3C122.2,230.8,122,229.6,121.8,228.5L121.8,228.5z M119.5,214.1
	c-1.4,0.4-2.8,0.8-4.2,1.2c-1,0.3-1.9,0.5-2.9,0.7c0.3,2.3,0.5,4.6,0.8,6.9c0.8-0.3,1.6-0.5,2.4-0.7c1.7-0.5,3.4-0.9,5-1.4
	C120.1,218.6,119.8,216.4,119.5,214.1z M118.8,208.9l-7.2,1.5c0.2,1.6,0.4,3.2,0.6,4.9c0.9-0.2,1.9-0.5,2.8-0.7
	c1.5-0.3,2.9-0.5,4.4-0.8C119.2,212.1,119,210.5,118.8,208.9z M117.8,282.2c-3.9,1.1-7.9,2.1-11.9,3l-0.1,7.2l12.9-2.4
	C118.4,287.4,118.1,284.8,117.8,282.2L117.8,282.2z M116.5,270.2c0-0.1,0-0.1,0-0.2c-3.5,0.9-7,1.7-10.5,2.4v0.1
	c0,4.2,0,8.4-0.1,12.6c3.9-1.4,7.8-2.6,11.8-3.7C117.2,277.7,116.8,274,116.5,270.2L116.5,270.2z M116.4,269.2
	c-0.4-4.6-0.8-9.1-1.1-13.7c-0.4,0.1-0.8,0.2-1.1,0.3c-0.9,0.3-1.9,0.7-2.8,1c-1.8,0.5-3.6,0.9-5.4,1.1c0,4.8,0,9.6,0,14.4
	C109.4,271.1,112.9,270.1,116.4,269.2L116.4,269.2z M114.9,250.2c-0.1-1.6-0.2-3.3-0.4-5c-0.8,0.3-1.6,0.7-2.5,1
	c-2,0.8-4.1,1.4-6.2,1.8v4.1c0,1.8,0,3.6,0,5.4c1.7-0.7,3.4-1.3,5.2-1.6c1-0.2,2-0.3,2.9-0.5c0.4-0.1,0.8-0.2,1.2-0.3
	C115.1,253.5,115,251.9,114.9,250.2L114.9,250.2z M114.1,240.2c-0.2-1.7-0.4-3.3-0.6-5c-0.9,0.3-1.7,0.7-2.5,1
	c-1.7,0.6-3.4,1-5.2,1.2l0.1,10.4c1.9-0.9,3.9-1.7,5.9-2.3c0.9-0.2,1.8-0.5,2.7-0.7C114.4,243.3,114.2,241.8,114.1,240.2
	L114.1,240.2z M113,230.2c-0.2-2.1-0.4-4.2-0.6-6.3c-2.2,0.7-4.4,1.2-6.6,1.7l0.1,6.2v5.4c1.6-0.8,3.2-1.4,4.9-1.8
	c0.9-0.2,1.8-0.4,2.7-0.6C113.3,233.4,113.1,231.9,113,230.2L113,230.2z M111.8,216.1c-2,0.4-4.1,0.8-6.1,1.1l0.1,8.4
	c2.1-0.9,4.3-1.7,6.6-2.5C112.1,220.9,111.9,218.5,111.8,216.1L111.8,216.1z M111.5,210.3l-5.9,1.2l0.1,5.6c2-0.7,4-1.3,6.1-1.8
	C111.6,213.7,111.5,212,111.5,210.3L111.5,210.3z"/>
<polygon class="st0" points="61.1,152 61.1,152 61.1,152 "/>
<polygon class="st0" points="61.1,152 61.2,152.1 61.2,152.1 "/>
<polygon class="st0" points="183.1,286.8 183.1,286.9 183.1,286.8 "/>
<polygon class="st0" points="183.1,286.9 183.1,286.9 183.2,286.9 "/>
<path class="st0" d="M135.2,249.9L135.2,249.9L135.2,249.9z M126.9,231.1L126.9,231.1L126.9,231.1L126.9,231.1z M128.4,251.9
	L128.4,251.9L128.4,251.9L128.4,251.9z M131.1,239.5L131.1,239.5L131.1,239.5L131.1,239.5z M135.2,249.9L135.2,249.9L135.2,249.9z
	 M132.5,235.9c-0.1,0.1-0.2,0.1-0.3,0.2c0,0.2,0.1,0.3,0.1,0.5s0,0.1,0,0.2c0.1-0.2,0.2-0.3,0.2-0.5L132.5,235.9z M135.2,249.9
	L135.2,249.9L135.2,249.9z"/>
<path class="st0" d="M132.8,235.7c0.9-1.5,1.9-3,3-4.4c0.5-0.7,1.1-1.4,1.6-2.1c0.6-0.8,1.5-1.4,2.5-1.7c0.5-0.2,1-0.2,1.5-0.2
	c0.5,0,0.9,0.1,1.4,0.2c0.9,0.1,1.8,0.3,2.6,0.4c1.8,0.3,3.5,0.7,5.2,1.2c-1.8,0.1-3.6,0-5.3-0.1c-0.9,0-1.8-0.1-2.6-0.2
	c-0.4-0.1-0.8-0.1-1.2-0.1c-0.4,0-0.7,0.1-1.1,0.2c-0.7,0.2-1.4,0.7-1.8,1.2c-0.6,0.6-1.2,1.3-1.8,2
	C135.5,233.3,134.2,234.5,132.8,235.7z"/>
<path class="st0" d="M135.2,249.8c0.8-1.6,1.7-3.2,2.6-4.8c0.5-0.8,1-1.5,1.4-2.3l0.8-1.1l0.4-0.6c0.2-0.2,0.3-0.4,0.5-0.6
	c0.8-0.8,1.8-1.2,2.9-1.2c0.5,0,1,0.1,1.5,0.3l1.3,0.4c1.7,0.5,3.4,1.2,5.1,1.9c-1.8-0.2-3.6-0.4-5.4-0.8c-0.8-0.2-1.6-0.3-2.5-0.4
	c-0.7,0-1.4,0.3-2,0.9c-0.1,0.1-0.3,0.3-0.4,0.4l-0.4,0.6l-0.8,1.1c-0.5,0.7-1.1,1.5-1.6,2.2C137.7,247.1,136.5,248.5,135.2,249.8z"
	/>
<path class="st0" d="M155.4,248.2c-0.8-1.4-1.3-2.9-1.3-4.5c-0.1-0.8,0-1.7,0.3-2.5c0.2-0.7,0.3-1.3,0.4-2c0.1-0.7,0.1-1.4,0-2.1
	c0-0.4-0.1-0.7-0.2-1.1c-0.1-0.4-0.2-0.8-0.2-1.2c-0.1-1.6,0.1-3.2,0.5-4.7c0.3-0.8,0.7-1.6,1.4-2.2c0.4-0.4,0.7-1,0.9-1.5
	c0.2-1.3,0-2.6-0.5-3.9c0.1,0-0.2-0.4-0.5-0.7c-0.3-0.4-0.5-0.8-0.6-1.2c-0.3-0.7-0.3-1.5,0-2.3c0.1-0.2,0.2-0.4,0.4-0.6
	c1.1-1.3,2.6-2.1,4.3-2.3l0.1,0.2c-1.2,0.7-2.2,1.7-3,2.9c-0.2,0.5-0.2,1,0.1,1.5c0.1,0.3,0.3,0.5,0.5,0.8l0.3,0.4l0.2,0.3
	c0.1,0.1,0.2,0.3,0.2,0.5c0.7,1.6,0.8,3.4,0.3,5.1c-0.3,0.9-0.9,1.6-1.6,2.2c-0.6,0.4-1,0.9-1.4,1.4c-0.8,1.2-1.1,2.7-0.9,4.2
	c0,0.3,0.2,0.7,0.3,1l0.5,1.1c0.3,0.8,0.5,1.6,0.6,2.4c0.1,0.9-0.1,1.7-0.4,2.5c-0.2,0.6-0.4,1.3-0.4,2c-0.1,1.5-0.1,3,0,4.5
	L155.4,248.2z"/>
<path class="st0" d="M87.7,188.4c0.6-2.2,1.2-4.4,1.8-6.5l1.9-6.5c1.3-4.3,2.6-8.6,3.9-13l0.2-0.7h0.8c3.4-0.1,6.7-0.1,10.1-0.2
	s6.7-0.1,10.1-0.1c6.7-0.1,13.4,0,20.1,0l10.1,0.1l10,0.3c6.7,0.2,13.4,0.5,20.1,0.9c-6.7,0.5-13.4,0.7-20.1,0.9l-10,0.3l-10.1,0.2
	c-6.7,0-13.4,0.1-20.1,0c-3.4,0-6.7,0-10.1-0.1s-6.7-0.1-10.1-0.2l1.1-0.8c-1.5,4.2-3.1,8.5-4.8,12.7l-2.5,6.4
	C89.4,184.2,88.6,186.3,87.7,188.4z"/>
<path class="st0" d="M410.5,308.8c-30.2,0.5-60.4,0.9-90.6,1l-22.6,0.2l-22.6,0.1l-45.3,0.1l-22.6,0.1l-22.6,0l-45.3,0l-22.6-0.1
	l-22.6-0.2l-45.3-0.4h-0.9l0.3-0.8l7.1-22l7.2-22l-6.5,22.2l-6.6,22.2l-0.6-0.8l45.3-0.4l22.6-0.2l22.6-0.1l45.3-0.1l22.6,0
	l22.6,0.1l45.3,0.1l22.6,0.1l22.6,0.2C350.1,308.1,380.3,308.3,410.5,308.8z"/>
<path class="st0" d="M195.9,253.9c0.6,0.1,1.3,0.2,1.9,0.3c-1.4,8.2-2.9,16.3-4.4,24.5c-1.8,9.8-3.7,19.5-5.7,29.2
	c1.3-9.8,2.7-19.6,4.2-29.4C193.2,270.3,194.6,262.1,195.9,253.9z"/>
<path class="st0" d="M207.6,190.8c-1.3,9.8-2.7,19.6-4.2,29.4c-0.1,0.8-0.2,1.6-0.4,2.3l-1.5-0.4c0.1-0.7,0.3-1.4,0.4-2.2
	C203.7,210.2,205.6,200.4,207.6,190.8z"/>
<path class="st0" d="M196,96.7c-1.9,6-3.8,12-5.6,18s-3.6,12-5.3,18c-3.5,12-6.4,24.2-8.5,36.6c-0.5,3.1-0.9,6.2-1.1,9.3
	c-0.3,3,0,6.1,0.9,9c0.4,1.4,1.2,2.6,2.4,3.5c1.2,0.9,2.5,1.5,4,1.6c3.1,0.5,6.2,0.7,9.3,0.6c6.2-0.3,12.4-1.6,18.2-3.9
	c5.8-2.3,11.5-5,16.8-8.3l0.4-0.3v0.5c0.3,3.9,0.6,7.9,1,11.8c0.4,3.9,0.8,7.9,1.2,11.8s0.9,7.8,1.5,11.7s1.1,7.8,2,11.6l0.2,1
	l-1-0.1c-4-0.4-8-1-11.9-1.7s-7.8-1.5-11.7-2.5c-7.8-1.9-15.4-4.3-22.9-7.1h-0.1l-0.1-0.1c-3.2-2.3-6.5-4.6-9.8-6.8
	c-3.3-2.2-6.6-4.2-10.2-6c-0.4-0.2-0.8-0.4-1.3-0.5c-0.2-0.1-0.4-0.1-0.6-0.1c-0.1,0-0.1,0-0.1,0c-0.1,0-0.1,0-0.2,0
	c-0.4,0.1-0.8,0.3-1.2,0.5c-0.4,0.2-0.8,0.5-1.2,0.7c-1.6,1.1-3.2,2.2-4.8,3.5s-3.1,2.5-4.6,3.8l-2.2,1.9l-1.1,1
	c-0.4,0.3-0.8,0.7-1,1l-0.3,0.4h-0.5c-1.6-0.1-3.2,0.1-4.8,0.5c-1.6,0.4-3,1.1-4.3,2c-0.6,0.5-1.2,1-1.7,1.7c-0.5,0.6-1,1.4-1.5,2.1
	c-1,1.4-2.2,2.8-3.3,4.1l-3.5,3.9c-0.6,0.6-1.1,1.3-1.7,1.9c-0.5,0.6-1,1.2-1.3,1.9c-0.1,0.2,0,0.2-0.1,0.1s0,0,0,0l0.1,0.1
	c0.1,0.1,0.1,0.1,0.2,0.2c0.3,0.3,0.6,0.5,0.9,0.6c0.7,0.3,1.5,0.5,2.2,0.5c1.6-0.1,3.2-0.6,4.6-1.5l1.5-0.9l-0.8,1.6
	c-0.9,1.8-1.8,3.7-2.6,5.6c-0.8,1.9-1.5,3.8-2.1,5.8c-0.3,1-0.4,2-0.4,3c0,0.5,0.1,0.9,0.3,1.4c0.2,0.4,0.7,0.6,1.1,0.6
	c1-0.1,2-0.4,2.9-0.9c0.5-0.2,0.9-0.5,1.4-0.8l1.3-0.9l0,0l0.1,0.1l0,0l-1.3,0.9c-0.4,0.3-0.9,0.6-1.3,0.8c-0.9,0.5-1.9,0.9-3,1
	c-0.3,0-0.6,0-0.9-0.1l-0.4-0.2c-0.1-0.1-0.2-0.2-0.3-0.3c-0.3-0.5-0.5-1-0.5-1.6c0-1.1,0.1-2.1,0.3-3.2c0.5-2,1.1-4.1,1.9-6
	c0.8-2,1.6-3.9,2.5-5.8l0.7,0.7c-1.5,1-3.3,1.6-5.1,1.8c-1,0.1-1.9-0.1-2.8-0.5c-0.4-0.2-0.9-0.5-1.2-0.8l-0.3-0.3l-0.1-0.1
	c-0.1-0.1-0.1-0.1-0.2-0.2c-0.2-0.4-0.2-0.8-0.1-1.2c0.2-0.5,0.4-0.9,0.7-1.3c0.3-0.4,0.5-0.7,0.8-1.1c0.5-0.7,1.1-1.4,1.7-2
	l3.4-3.9c1.1-1.3,2.2-2.6,3.2-4c0.5-0.7,0.9-1.4,1.5-2.1c0.6-0.7,1.2-1.4,1.9-2c1.5-1.1,3.1-2,4.9-2.4c1.8-0.5,3.6-0.7,5.4-0.7
	l-0.8,0.3c0.4-0.5,0.8-0.8,1.1-1.1l1.1-1c0.8-0.7,1.5-1.4,2.3-2c1.5-1.3,3.1-2.6,4.6-3.8c1.6-1.2,3.2-2.5,4.9-3.6
	c0.4-0.3,0.9-0.5,1.3-0.8c0.5-0.3,1-0.5,1.6-0.7c0.2-0.1,0.3-0.1,0.5-0.1c0.2,0,0.4,0,0.6,0c0.3,0,0.6,0.1,0.9,0.2
	c0.5,0.2,1,0.4,1.5,0.6c3.6,1.8,7.1,3.9,10.5,6.1c3.4,2.2,6.6,4.5,9.9,6.9l-0.2-0.1c7.4,2.8,15,5.2,22.7,7.1c3.8,1,7.7,1.9,11.6,2.6
	s7.8,1.4,11.7,1.8l-0.8,0.9c-0.8-3.9-1.3-7.8-1.8-11.8s-0.8-7.9-1.2-11.8l-1-11.8c-0.3-3.9-0.6-7.9-0.9-11.8l0.5,0.2
	c-5.4,3.2-11.1,6-16.9,8.4c-5.9,2.4-12.1,3.9-18.4,4.3c-3.2,0.2-6.4,0-9.5-0.4c-1.7-0.2-3.3-0.8-4.6-1.8c-1.4-1-2.4-2.5-2.9-4.1
	c-1-3.1-1.4-6.4-1.1-9.6c0.2-3.2,0.5-6.3,1-9.5c1-6.2,2.4-12.4,3.9-18.5s3.2-12.2,5-18.2c1.8-6,3.8-12,5.7-18s4.1-11.9,6.3-17.8
	L196,96.7z"/>
<path class="st0" d="M65.8,165.3l-20.3,60.8l3.6,1.2l20.4-60.7L65.8,165.3z M49.6,220.2c-0.6,0-1.1-0.5-1.1-1.1
	c0-0.6,0.5-1.1,1.1-1.1s1.1,0.5,1.1,1.1C50.7,219.7,50.2,220.2,49.6,220.2z M51.2,216c-0.6,0-1.1-0.5-1.1-1.1c0-0.6,0.5-1.1,1.1-1.1
	c0.6,0,1.1,0.5,1.1,1.1C52.3,215.5,51.8,216,51.2,216L51.2,216z M52.6,211.9c-0.6,0-1.1-0.5-1.1-1.1c0-0.6,0.5-1.1,1.1-1.1
	c0.6,0,1.1,0.5,1.1,1.1S53.2,211.9,52.6,211.9L52.6,211.9z"/>
<rect x="48.6" y="237.9" transform="matrix(7.271596e-02 -0.9974 0.9974 7.271596e-02 -155.9802 311.9281)" class="st0" width="82.4" height="3.8"/>
<polygon class="st0" points="67.6,195.1 76.7,205.8 79.2,197.9 70.2,187.4 "/>
<polygon class="st0" points="70.7,246.6 79.8,257.4 82.3,249.4 73.3,238.9 "/>
<path class="st0" d="M58.2,224.4c0.8-3.3,1.8-6.5,3-9.7c1.1-3.2,2.4-6.3,3.9-9.4C63.4,211.9,61.1,218.3,58.2,224.4z"/>
<path class="st0" d="M60.7,228.9c1.7-6.6,4-13,6.9-19.1C65.9,216.4,63.6,222.8,60.7,228.9z"/>
<path class="st0" d="M64.2,231.8c0.8-3.3,1.8-6.5,3-9.7c1.1-3.2,2.4-6.3,3.9-9.4c-0.8,3.3-1.8,6.5-3,9.7
	C67,225.6,65.7,228.8,64.2,231.8z"/>
<path class="st0" d="M71,230.7c0.5-3.4,1.2-6.7,2-10c0.8-3.3,1.8-6.6,2.9-9.8c-0.5,3.4-1.2,6.7-2,10C73.1,224.3,72.1,227.5,71,230.7
	z"/>
<path class="st0" d="M77.3,227.1c1.2-6.7,2.9-13.3,5.3-19.6c-0.6,3.4-1.3,6.7-2.2,10C79.6,220.7,78.5,223.9,77.3,227.1z"/>
<path class="st0" d="M81.4,233.7c0.3-3.4,0.8-6.7,1.5-10.1c0.6-3.3,1.5-6.6,2.5-9.9c-0.3,3.4-0.8,6.7-1.5,10.1
	C83.3,227.1,82.4,230.4,81.4,233.7z"/>
</svg>
