<?xml version="1.0" encoding="utf-8"?>
<!-- Generator: Adobe Illustrator 24.2.3, SVG Export Plug-In . SVG Version: 6.00 Build 0)  -->
<svg version="1.1" id="Layer_1" xmlns="http://www.w3.org/2000/svg" xmlns:xlink="http://www.w3.org/1999/xlink" x="0px" y="0px"
	 viewBox="0 0 441.9 370.7" style="enable-background:new 0 0 441.9 370.7;" xml:space="preserve">
<style type="text/css">
	.st0{fill:#2D3E50;}
	.st1{opacity:0.5;}
	.st2{fill:#FFFFFF;}
	.st3{fill:#2D3E50;stroke:#2E353A;stroke-width:1.1359;stroke-linecap:round;stroke-linejoin:round;}
	.st4{fill:#2E353A;}
	.st5{fill:none;stroke:#2E353A;stroke-width:0.568;stroke-linecap:round;stroke-linejoin:round;}
	.st6{fill:#FFFFFF;stroke:#2E353A;stroke-width:1.1359;stroke-linecap:round;stroke-linejoin:round;}
	.st7{fill:none;stroke:#2E353A;stroke-width:1.2105;stroke-linecap:round;stroke-linejoin:round;}
	.st8{fill:none;stroke:#2D3E50;stroke-width:1.1359;stroke-linecap:round;stroke-linejoin:round;}
	.st9{fill:#FFFFFF;stroke:#2E353A;stroke-width:1.2727;stroke-linecap:round;stroke-linejoin:round;}
	.st10{fill:#2E353A;stroke:#2E353A;stroke-width:1.2727;stroke-linecap:round;stroke-linejoin:round;}
	.st11{fill:#FFFFFF;stroke:#2E353A;stroke-width:1.4364;stroke-linecap:round;stroke-linejoin:round;}
	
		.st12{opacity:0.5;fill:#2D3E50;stroke:#2E353A;stroke-width:1.4364;stroke-linecap:round;stroke-linejoin:round;enable-background:new    ;}
	.st13{fill:none;stroke:#2E353A;stroke-width:0.7182;stroke-linecap:round;stroke-linejoin:round;}
	.st14{fill:#2D3E50;stroke:#2E353A;stroke-width:1.4364;stroke-linecap:round;stroke-linejoin:round;}
	.st15{fill:#2E353A;stroke:#2E353A;stroke-width:1.4364;stroke-linecap:round;stroke-linejoin:round;}
	.st16{fill:#FFFFFF;stroke:#2E353A;stroke-width:0.9473;stroke-miterlimit:10;}
	.st17{opacity:0.5;fill:#2D3E50;stroke:#2E353A;stroke-width:0.9473;stroke-miterlimit:10;enable-background:new    ;}
	.st18{fill:#2D3E50;stroke:#2E353A;stroke-width:0.9473;stroke-miterlimit:10;}
</style>
<g id="freepik--Plants--inject-1--inject-6">
	<path class="st0" d="M310.2,30.7c0,0,1.3-3.4,1.4-3.6c0.7-2.6,0.4-8.1-2.2-9.7c-1.7-1-4-0.4-4.9,1.4c0,0.1-0.1,0.2-0.1,0.3
		c-1,1.9-0.3,4.5,0.6,6.3C306,27.3,310.2,30.6,310.2,30.7z"/>
	<path class="st0" d="M370.4,55.8c-2.1-2.2-7.5-1.3-10-0.1c-0.2,0.1-3.3,2.1-3.3,2.2l0,0c-0.8,0.1-1.8,0.3-2.8,0.5
		c-1.8,0.4-3.9,0.8-6.1,1.5c-2.4,0.6-4.8,1.4-7.1,2.3c-2.6,1-5.1,2.3-7.5,3.7l-0.1,0.1c0.6-0.7,2.1-2.6,2.2-2.8
		c1.5-2.3,2.9-7.6,0.9-9.9c-1.4-1.5-3.7-1.6-5.1-0.2c-0.1,0.1-0.2,0.1-0.2,0.2c-1.5,1.5-1.7,4.2-1.4,6.2c0.3,2.3,3.1,6.4,3.3,6.8
		c-2.4,1.5-4.7,3.2-6.8,5.1c-1.3,1.1-2.5,2.2-3.7,3.3c0.5-0.6,0.9-1.1,1-1.2c1.5-2.3,2.9-7.6,0.9-9.9c-1.4-1.5-3.7-1.6-5.1-0.2
		c-0.1,0.1-0.2,0.1-0.2,0.2c-1.5,1.5-1.7,4.2-1.4,6.2s2.5,5.6,3.2,6.5l-1.4,1.3c-2.2,2.1-4.4,4.2-6.7,6.3c-0.8,0.7-1.6,1.4-2.4,2.1
		c0.4-0.5,0.8-1,0.8-1.1c1.5-2.3,2.9-7.6,0.9-9.9c-1.3-1.5-3.6-1.6-5.1-0.3c-0.1,0.1-0.2,0.1-0.2,0.2c-1.5,1.5-1.7,4.2-1.4,6.2
		s2.3,5.3,3.1,6.4c-0.8,0.7-1.7,1.3-2.5,1.9c-0.6,0.4-1.1,0.8-1.7,1.2l-1.8,1.1c-1.2,0.7-2.3,1.4-3.5,2c-0.8,0.4-1.6,0.8-2.3,1.3
		c0.8-0.7,2.3-2.1,2.4-2.2c1.5-1.9,2.5-4.1,2.9-6.4c0.2-0.2,0.3-0.4,0.5-0.6c1.1-1.7,0.5-3.9-1.2-5c-0.1-0.1-0.2-0.1-0.3-0.2
		c-2.1-1-5.3,0.4-7.6,2c0.1-1.5,0.1-2.5,0.1-2.5l-0.6,0.1l0.4-1c0.3-0.6,0.5-1.4,0.8-2c0.6-1.6,1.1-3.2,1.5-4.9
		c1.1,0.5,4.8,2.3,6.8,2.4c2,0.1,4.6-0.4,6-2.1c1.3-1.5,1.1-3.8-0.4-5.1c-0.1-0.1-0.2-0.1-0.3-0.2c-2.5-1.7-7.6,0.4-9.8,2.1
		c-0.1,0.1-1.5,1.5-2.3,2.3c0.3-1,0.5-2,0.8-3c0.7-3,1.3-6,1.9-9c0.2-0.9,0.4-1.8,0.6-2.8c0.4,0.2,4.8,2.4,7.1,2.5
		c2,0.1,4.6-0.4,6-2.1c1.3-1.5,1.1-3.8-0.4-5.1c-0.1-0.1-0.2-0.1-0.3-0.2c-2.5-1.7-7.6,0.4-9.8,2.1c-0.2,0.1-2.2,2.1-2.6,2.7
		c0.4-2,0.9-4,1.4-6c0.7-2.7,1.6-5.3,2.6-7.8c0.2,0.1,4.8,2.4,7.1,2.5c2,0.1,4.6-0.4,6-2.1c1.3-1.5,1.1-3.8-0.4-5.1
		c-0.1-0.1-0.2-0.1-0.3-0.2c-2.5-1.7-7.6,0.4-9.8,2.1c-0.2,0.1-2.3,2.3-2.7,2.7c0.1-0.1,0.1-0.3,0.2-0.5c1.1-2.5,2.4-5,4-7.3
		c0.8-1.3,1.7-2.4,2.6-3.6c0.8,0.5,4.6,2.9,6.7,3.2c2.1,0.3,4.6,0.1,6.2-1.4c1.5-1.4,1.5-3.7,0.2-5.1c-0.1-0.1-0.2-0.2-0.2-0.2
		c-2.3-1.9-7.6-0.5-9.9,1c-0.1,0.1-1.3,1-2.2,1.7c0.4-0.5,0.8-1,1.2-1.5c1.5-1.8,2.9-3.3,4.2-4.6c0.7-0.7,1.5-1.5,2.1-2.1
		c1.1,0.1,5.4,0.4,7.3-0.3c2-0.7,4.2-2,4.8-4.1c0.7-1.9-0.3-4-2.2-4.6c-0.1,0-0.2-0.1-0.3-0.1c-3-0.6-7,3.1-8.4,5.4
		c-0.1,0.2-1.6,3.6-1.5,3.6h0.1c-0.6,0.6-1.3,1.2-2,1.9c-1.3,1.3-2.8,2.8-4.4,4.6c-1.7,1.9-3.2,3.8-4.6,5.9c-1.6,2.3-3,4.7-4.2,7.3
		l0,0.1c0.1-0.9,0.3-3.4,0.3-3.6c-0.1-2.7-1.8-7.9-4.7-8.8c-1.9-0.5-3.9,0.7-4.4,2.6c0,0.1,0,0.2-0.1,0.3c-0.4,2.1,0.9,4.4,2.3,5.9
		c1.5,1.7,6.1,3.6,6.5,3.8c-1.1,2.6-2.1,5.3-2.9,8c-0.5,1.6-0.9,3.2-1.3,4.8c0.1-0.8,0.1-1.5,0.1-1.6c-0.1-2.7-1.8-7.9-4.7-8.8
		c-1.9-0.5-3.9,0.7-4.4,2.6c0,0.1,0,0.2-0.1,0.3c-0.4,2.1,0.9,4.4,2.3,5.9c1.4,1.5,5.2,3.3,6.3,3.7c-0.1,0.6-0.3,1.2-0.4,1.9
		c-0.7,3-1.4,6-2.1,8.9c-0.3,1-0.6,2-0.8,3c0.1-0.7,0.1-1.3,0.1-1.3c-0.1-2.7-1.8-7.9-4.7-8.8c-1.9-0.5-3.9,0.7-4.4,2.6
		c0,0.1,0,0.2-0.1,0.3c-0.4,2.1,0.9,4.4,2.3,5.9c1.4,1.5,4.9,3.1,6.1,3.6c-0.3,1-0.7,2-1,3c-0.3,0.7-0.5,1.3-0.8,2l-0.8,1.9
		c-0.6,0.1-1.4,0.3-2.2,0.4c-0.2-2.7-1.2-6.1-3.3-7.1c-1.8-0.8-4,0.1-4.8,1.9c0,0.1-0.1,0.2-0.1,0.3c-0.7,2,0.2,4.5,1.4,6.2
		c0.2,0.3,0.3,0.5,0.6,0.7c-3.6,1.5-6.8,3.7-9.4,6.5c-7.5,8.4-7,21.2-7,21.2s10.7-0.7,18.3-7.3c2.3-1.1,5.3-2.6,8.8-4.4
		c1.3-0.7,2.7-1.5,4.1-2.2c0.4,0.5,3.4,4.2,5.4,5.2c1.8,0.9,4.4,1.6,6.3,0.6c1.8-0.8,2.6-3,1.8-4.8c0-0.1-0.1-0.2-0.1-0.3
		c-1.6-2.6-7.1-2.9-9.7-2.2c-0.2,0-1.8,0.7-2.8,1.1c0.6-0.3,1.1-0.6,1.7-1c1.2-0.7,2.3-1.4,3.5-2.1l1.8-1.2c0.6-0.4,1.2-0.8,1.8-1.3
		c1.4-1,2.7-2.1,4-3.3c0.6,1,2.8,4.6,4.4,5.7c1.7,1.2,4.1,2.2,6.1,1.6c1.9-0.6,3-2.6,2.5-4.5c0-0.1-0.1-0.2-0.1-0.3
		c-1.2-2.8-6.6-3.9-9.3-3.6c-0.2,0-2.1,0.4-3.1,0.7c0.8-0.7,1.6-1.4,2.3-2.1c2.2-2.1,4.4-4.3,6.5-6.4c0.7-0.7,1.3-1.3,2-2
		c0.2,0.4,2.7,4.6,4.5,6c1.6,1.2,4.1,2.2,6.1,1.6c1.9-0.5,3-2.6,2.5-4.5c0-0.1-0.1-0.2-0.1-0.3c-1.2-2.8-6.5-3.9-9.3-3.6
		c-0.2,0-3,0.6-3.6,0.8c1.5-1.5,3-2.9,4.5-4.2c2-1.8,4.2-3.5,6.5-5.1c0.1,0.2,2.7,4.6,4.6,6c1.6,1.2,4.1,2.2,6.1,1.6
		c1.9-0.5,3-2.6,2.5-4.5c0-0.1-0.1-0.2-0.1-0.3c-1.2-2.8-6.6-3.9-9.3-3.6c-0.2,0-3.2,0.6-3.7,0.8c0.1-0.1,0.3-0.2,0.4-0.3
		c2.3-1.5,4.8-2.8,7.3-3.8c1.4-0.6,2.8-1.1,4.1-1.6c0.4,0.9,2.2,4.9,3.8,6.3s3.8,2.7,5.9,2.3c2-0.3,3.3-2.2,3-4.2
		c0-0.1,0-0.2-0.1-0.3c-0.9-2.9-6.1-4.6-8.8-4.6c-0.2,0-1.7,0.1-2.8,0.3c0.6-0.2,1.2-0.4,1.8-0.6c2.2-0.7,4.3-1.1,6.1-1.5
		c1-0.2,2-0.4,2.9-0.6c0.8,0.7,4.2,3.3,6.3,3.8c2,0.5,4.6,0.6,6.3-0.7c1.6-1.2,2-3.4,0.9-5.1C370.7,56.1,370.6,55.9,370.4,55.8z
		 M292.8,97.1c-1.6,0.8-3.1,1.5-4.5,2.2c2.3-3.4,3.9-7.2,4.7-11.3c0.4,0.1,0.8,0.2,1.3,0.3c0.1,2.3,1.9,6.4,2.2,6.9
		C295.2,95.9,294,96.5,292.8,97.1z"/>
	<path class="st0" d="M349,58.3c2-1.8,4.8-6.5,3.5-9.3c-0.9-1.8-3.1-2.5-4.9-1.6c-0.1,0-0.2,0.1-0.3,0.2c-1.9,1.1-2.7,3.6-2.9,5.6
		c-0.3,2.4,1.4,7.4,1.4,7.4S348.8,58.4,349,58.3z"/>
	<path class="st0" d="M261,35.7c0,0-15.5,15.7-15.6,35.2s15.3,35.3,15.3,35.3s15.5-15.7,15.6-35.2S261,35.7,261,35.7z"/>
	<path class="st0" d="M226.9,80.2c0,0-0.1,12.8,7.7,21s20.6,8.5,20.6,8.5s0.1-12.8-7.7-21C239.8,80.6,226.9,80.2,226.9,80.2z"/>
	<g class="st1">
		<path class="st2" d="M310.2,30.7c0,0,1.3-3.4,1.4-3.6c0.7-2.6,0.4-8.1-2.2-9.7c-1.7-1-4-0.4-4.9,1.4c0,0.1-0.1,0.2-0.1,0.3
			c-1,1.9-0.3,4.5,0.6,6.3C306,27.3,310.2,30.6,310.2,30.7z"/>
		<path class="st2" d="M370.4,55.8c-2.1-2.2-7.5-1.3-10-0.1c-0.2,0.1-3.3,2.1-3.3,2.2l0,0c-0.8,0.1-1.8,0.3-2.8,0.5
			c-1.8,0.4-3.9,0.8-6.1,1.5c-2.4,0.6-4.8,1.4-7.1,2.3c-2.6,1-5.1,2.3-7.5,3.7l-0.1,0.1c0.6-0.7,2.1-2.6,2.2-2.8
			c1.5-2.3,2.9-7.6,0.9-9.9c-1.4-1.5-3.7-1.6-5.1-0.2c-0.1,0.1-0.2,0.1-0.2,0.2c-1.5,1.5-1.7,4.2-1.4,6.2c0.3,2.3,3.1,6.4,3.3,6.8
			c-2.4,1.5-4.7,3.2-6.8,5.1c-1.3,1.1-2.5,2.2-3.7,3.3c0.5-0.6,0.9-1.1,1-1.2c1.5-2.3,2.9-7.6,0.9-9.9c-1.4-1.5-3.7-1.6-5.1-0.2
			c-0.1,0.1-0.2,0.1-0.2,0.2c-1.5,1.5-1.7,4.2-1.4,6.2s2.5,5.6,3.2,6.5l-1.4,1.3c-2.2,2.1-4.4,4.2-6.7,6.3c-0.8,0.7-1.6,1.4-2.4,2.1
			c0.4-0.5,0.8-1,0.8-1.1c1.5-2.3,2.9-7.6,0.9-9.9c-1.3-1.5-3.6-1.6-5.1-0.3c-0.1,0.1-0.2,0.1-0.2,0.2c-1.5,1.5-1.7,4.2-1.4,6.2
			s2.3,5.3,3.1,6.4c-0.8,0.7-1.7,1.3-2.5,1.9c-0.6,0.4-1.1,0.8-1.7,1.2l-1.8,1.1c-1.2,0.7-2.3,1.4-3.5,2c-0.8,0.4-1.6,0.8-2.3,1.3
			c0.8-0.7,2.3-2.1,2.4-2.2c1.5-1.9,2.5-4.1,2.9-6.4c0.2-0.2,0.3-0.4,0.5-0.6c1.1-1.7,0.5-3.9-1.2-5c-0.1-0.1-0.2-0.1-0.3-0.2
			c-2.1-1-5.3,0.4-7.6,2c0.1-1.5,0.1-2.5,0.1-2.5l-0.6,0.1l0.4-1c0.3-0.6,0.5-1.4,0.8-2c0.6-1.6,1.1-3.2,1.5-4.9
			c1.1,0.5,4.8,2.3,6.8,2.4c2,0.1,4.6-0.4,6-2.1c1.3-1.5,1.1-3.8-0.4-5.1c-0.1-0.1-0.2-0.1-0.3-0.2c-2.5-1.7-7.6,0.4-9.8,2.1
			c-0.1,0.1-1.5,1.5-2.3,2.3c0.3-1,0.5-2,0.8-3c0.7-3,1.3-6,1.9-9c0.2-0.9,0.4-1.8,0.6-2.8c0.4,0.2,4.8,2.4,7.1,2.5
			c2,0.1,4.6-0.4,6-2.1c1.3-1.5,1.1-3.8-0.4-5.1c-0.1-0.1-0.2-0.1-0.3-0.2c-2.5-1.7-7.6,0.4-9.8,2.1c-0.2,0.1-2.2,2.1-2.6,2.7
			c0.4-2,0.9-4,1.4-6c0.7-2.7,1.6-5.3,2.6-7.8c0.2,0.1,4.8,2.4,7.1,2.5c2,0.1,4.6-0.4,6-2.1c1.3-1.5,1.1-3.8-0.4-5.1
			c-0.1-0.1-0.2-0.1-0.3-0.2c-2.5-1.7-7.6,0.4-9.8,2.1c-0.2,0.1-2.3,2.3-2.7,2.7c0.1-0.1,0.1-0.3,0.2-0.5c1.1-2.5,2.4-5,4-7.3
			c0.8-1.3,1.7-2.4,2.6-3.6c0.8,0.5,4.6,2.9,6.7,3.2c2.1,0.3,4.6,0.1,6.2-1.4c1.5-1.4,1.5-3.7,0.2-5.1c-0.1-0.1-0.2-0.2-0.2-0.2
			c-2.3-1.9-7.6-0.5-9.9,1c-0.1,0.1-1.3,1-2.2,1.7c0.4-0.5,0.8-1,1.2-1.5c1.5-1.8,2.9-3.3,4.2-4.6c0.7-0.7,1.5-1.5,2.1-2.1
			c1.1,0.1,5.4,0.4,7.3-0.3c2-0.7,4.2-2,4.8-4.1c0.7-1.9-0.3-4-2.2-4.6c-0.1,0-0.2-0.1-0.3-0.1c-3-0.6-7,3.1-8.4,5.4
			c-0.1,0.2-1.6,3.6-1.5,3.6h0.1c-0.6,0.6-1.3,1.2-2,1.9c-1.3,1.3-2.8,2.8-4.4,4.6c-1.7,1.9-3.2,3.8-4.6,5.9c-1.6,2.3-3,4.7-4.2,7.3
			l0,0.1c0.1-0.9,0.3-3.4,0.3-3.6c-0.1-2.7-1.8-7.9-4.7-8.8c-1.9-0.5-3.9,0.7-4.4,2.6c0,0.1,0,0.2-0.1,0.3c-0.4,2.1,0.9,4.4,2.3,5.9
			c1.5,1.7,6.1,3.6,6.5,3.8c-1.1,2.6-2.1,5.3-2.9,8c-0.5,1.6-0.9,3.2-1.3,4.8c0.1-0.8,0.1-1.5,0.1-1.6c-0.1-2.7-1.8-7.9-4.7-8.8
			c-1.9-0.5-3.9,0.7-4.4,2.6c0,0.1,0,0.2-0.1,0.3c-0.4,2.1,0.9,4.4,2.3,5.9c1.4,1.5,5.2,3.3,6.3,3.7c-0.1,0.6-0.3,1.2-0.4,1.9
			c-0.7,3-1.4,6-2.1,8.9c-0.3,1-0.6,2-0.8,3c0.1-0.7,0.1-1.3,0.1-1.3c-0.1-2.7-1.8-7.9-4.7-8.8c-1.9-0.5-3.9,0.7-4.4,2.6
			c0,0.1,0,0.2-0.1,0.3c-0.4,2.1,0.9,4.4,2.3,5.9c1.4,1.5,4.9,3.1,6.1,3.6c-0.3,1-0.7,2-1,3c-0.3,0.7-0.5,1.3-0.8,2l-0.8,1.9
			c-0.6,0.1-1.4,0.3-2.2,0.4c-0.2-2.7-1.2-6.1-3.3-7.1c-1.8-0.8-4,0.1-4.8,1.9c0,0.1-0.1,0.2-0.1,0.3c-0.7,2,0.2,4.5,1.4,6.2
			c0.2,0.3,0.3,0.5,0.6,0.7c-3.6,1.5-6.8,3.7-9.4,6.5c-7.5,8.4-7,21.2-7,21.2s10.7-0.7,18.3-7.3c2.3-1.1,5.3-2.6,8.8-4.4
			c1.3-0.7,2.7-1.5,4.1-2.2c0.4,0.5,3.4,4.2,5.4,5.2c1.8,0.9,4.4,1.6,6.3,0.6c1.8-0.8,2.6-3,1.8-4.8c0-0.1-0.1-0.2-0.1-0.3
			c-1.6-2.6-7.1-2.9-9.7-2.2c-0.2,0-1.8,0.7-2.8,1.1c0.6-0.3,1.1-0.6,1.7-1c1.2-0.7,2.3-1.4,3.5-2.1l1.8-1.2
			c0.6-0.4,1.2-0.8,1.8-1.3c1.4-1,2.7-2.1,4-3.3c0.6,1,2.8,4.6,4.4,5.7c1.7,1.2,4.1,2.2,6.1,1.6c1.9-0.6,3-2.6,2.5-4.5
			c0-0.1-0.1-0.2-0.1-0.3c-1.2-2.8-6.6-3.9-9.3-3.6c-0.2,0-2.1,0.4-3.1,0.7c0.8-0.7,1.6-1.4,2.3-2.1c2.2-2.1,4.4-4.3,6.5-6.4
			c0.7-0.7,1.3-1.3,2-2c0.2,0.4,2.7,4.6,4.5,6c1.6,1.2,4.1,2.2,6.1,1.6c1.9-0.5,3-2.6,2.5-4.5c0-0.1-0.1-0.2-0.1-0.3
			c-1.2-2.8-6.5-3.9-9.3-3.6c-0.2,0-3,0.6-3.6,0.8c1.5-1.5,3-2.9,4.5-4.2c2-1.8,4.2-3.5,6.5-5.1c0.1,0.2,2.7,4.6,4.6,6
			c1.6,1.2,4.1,2.2,6.1,1.6c1.9-0.5,3-2.6,2.5-4.5c0-0.1-0.1-0.2-0.1-0.3c-1.2-2.8-6.6-3.9-9.3-3.6c-0.2,0-3.2,0.6-3.7,0.8
			c0.1-0.1,0.3-0.2,0.4-0.3c2.3-1.5,4.8-2.8,7.3-3.8c1.4-0.6,2.8-1.1,4.1-1.6c0.4,0.9,2.2,4.9,3.8,6.3s3.8,2.7,5.9,2.3
			c2-0.3,3.3-2.2,3-4.2c0-0.1,0-0.2-0.1-0.3c-0.9-2.9-6.1-4.6-8.8-4.6c-0.2,0-1.7,0.1-2.8,0.3c0.6-0.2,1.2-0.4,1.8-0.6
			c2.2-0.7,4.3-1.1,6.1-1.5c1-0.2,2-0.4,2.9-0.6c0.8,0.7,4.2,3.3,6.3,3.8c2,0.5,4.6,0.6,6.3-0.7c1.6-1.2,2-3.4,0.9-5.1
			C370.7,56.1,370.6,55.9,370.4,55.8z M292.8,97.1c-1.6,0.8-3.1,1.5-4.5,2.2c2.3-3.4,3.9-7.2,4.7-11.3c0.4,0.1,0.8,0.2,1.3,0.3
			c0.1,2.3,1.9,6.4,2.2,6.9C295.2,95.9,294,96.5,292.8,97.1z"/>
		<path class="st2" d="M349,58.3c2-1.8,4.8-6.5,3.5-9.3c-0.9-1.8-3.1-2.5-4.9-1.6c-0.1,0-0.2,0.1-0.3,0.2c-1.9,1.1-2.7,3.6-2.9,5.6
			c-0.3,2.4,1.4,7.4,1.4,7.4S348.8,58.4,349,58.3z"/>
		<path class="st2" d="M261,35.7c0,0-15.5,15.7-15.6,35.2s15.3,35.3,15.3,35.3s15.5-15.7,15.6-35.2S261,35.7,261,35.7z"/>
		<path class="st2" d="M226.9,80.2c0,0-0.1,12.8,7.7,21s20.6,8.5,20.6,8.5s0.1-12.8-7.7-21C239.8,80.6,226.9,80.2,226.9,80.2z"/>
	</g>
	<polygon class="st2" points="270.8,88.6 270.3,87.9 261.2,95.1 261.2,79.3 273.9,68.1 273.4,67.5 261.2,78.2 261.3,60.9 
		269.8,53.6 269.3,52.9 261.3,59.9 261.4,35.7 260.6,35.7 260.5,71.3 250.4,56.6 249.8,57.1 260.4,72.6 260.5,72.6 260.4,87.4 
		248.4,76.6 247.8,77.2 260.4,88.5 260.4,88.5 260.3,106.2 261.1,106.2 261.2,96.1 	"/>
	<polygon class="st2" points="294.1,80.2 293.5,79.6 280.1,94.6 281.3,84.9 280.5,84.9 279.2,95.7 279.2,95.7 273.8,101.7 
		272.8,92.8 272,92.9 273.1,102.5 266.3,110.1 266.9,110.7 270.7,106.4 277.7,106.8 277.8,106 271.4,105.6 277.2,99.1 287,99.1 
		287,98.3 277.9,98.3 284.3,91.2 290.8,91.2 290.8,90.4 285,90.4 	"/>
	<polygon class="st2" points="252.5,98.3 251.7,98.2 250.9,104.5 244.8,98.3 245.6,88.6 244.8,88.5 244.1,97.5 237.4,90.6 238,84.1 
		237.2,84.1 236.7,89.8 227.2,80 226.7,80.5 240.6,95 231,93.1 230.9,93.9 241.6,96.1 241.6,96 247.2,101.9 238.2,102.2 238.2,103 
		248,102.7 255,110 255.6,109.5 251.6,105.3 	"/>
</g>
<g id="freepik--Notebook--inject-1--inject-6">
	<polyline class="st3" points="258.4,290.9 351.2,256.1 351.8,248.7 259.8,283.5 258.4,290.9 	"/>
	<path class="st4" d="M242.8,167.9c-1.6,0-3.2-0.6-4.5-1.6c-1.6-1.3-2.6-3.1-2.9-5.2c-0.1-0.8,0.5-1.5,1.3-1.6
		c0.7-0.1,1.4,0.4,1.5,1.1c0.2,1.3,0.9,2.5,1.9,3.4c1.7,1.5,4.3,1.3,5.8-0.4c0.1-0.2,0.3-0.3,0.4-0.5c0.5-0.6,1.3-0.8,2-0.3
		c0.6,0.4,0.8,1.3,0.4,1.9c-1.1,1.7-2.8,2.8-4.8,3.1C243.5,167.9,243.2,167.9,242.8,167.9z"/>
	<path class="st4" d="M229.4,172.1c-3.6,0-6.8-2.8-7.4-6.8c-0.1-0.8,0.4-1.5,1.2-1.6c0,0,0,0,0,0c0.8-0.1,1.5,0.4,1.6,1.2
		c0.4,2.8,2.8,4.7,5.2,4.4c1.2-0.2,2.2-0.9,2.9-1.9c0.5-0.6,1.3-0.8,2-0.3c0.6,0.4,0.8,1.3,0.4,1.9c-1.1,1.7-2.8,2.8-4.8,3.1
		C230.1,172.1,229.8,172.1,229.4,172.1z"/>
	<path class="st4" d="M217.2,176.8c-1.6,0-3.2-0.6-4.5-1.6c-1.6-1.3-2.6-3.1-2.9-5.2c-0.1-0.8,0.5-1.5,1.3-1.6
		c0.7-0.1,1.4,0.4,1.5,1.1c0.2,1.3,0.9,2.5,1.9,3.4c0.9,0.8,2.1,1.1,3.3,0.9c1.2-0.2,2.2-0.9,2.9-1.9c0.6-0.6,1.5-0.5,2.1,0
		c0.4,0.4,0.5,1,0.3,1.5c-1.1,1.7-2.8,2.8-4.8,3.1C217.9,176.7,217.5,176.8,217.2,176.8z"/>
	<path class="st4" d="M203.8,180.6c-3.6,0-6.8-2.9-7.4-6.8c-0.2-0.8,0.3-1.5,1.1-1.7s1.5,0.3,1.7,1.1c0,0,0,0.1,0,0.1
		c0.4,2.8,2.8,4.7,5.2,4.4c1.2-0.2,2.2-0.9,2.9-1.9c0.4-0.7,1.2-0.9,1.9-0.5s0.9,1.2,0.5,1.9c0,0.1-0.1,0.1-0.1,0.2
		c-1.1,1.7-2.8,2.8-4.8,3.1C204.5,180.6,204.1,180.6,203.8,180.6z"/>
	<path class="st4" d="M190.1,186.1c-3.6,0-6.8-2.8-7.4-6.8c0.1-0.8,0.7-1.4,1.5-1.4c0.6,0,1.1,0.4,1.3,0.9c0.4,2.8,2.8,4.7,5.2,4.4
		c1.2-0.2,2.2-0.9,2.9-1.9c0.5-0.6,1.3-0.8,2-0.3c0.6,0.4,0.8,1.3,0.4,1.9c-1.1,1.7-2.8,2.8-4.8,3.1
		C190.8,186,190.4,186.1,190.1,186.1z"/>
	<path class="st4" d="M176.8,190.9c-1.6,0-3.2-0.6-4.5-1.6c-1.6-1.3-2.6-3.1-2.9-5.2c-0.1-0.8,0.5-1.5,1.3-1.6
		c0.7-0.1,1.4,0.4,1.5,1.1c0.2,1.3,0.9,2.5,1.9,3.4c1.7,1.5,4.3,1.3,5.8-0.4c0.1-0.2,0.3-0.3,0.4-0.5c0.6-0.6,1.5-0.5,2.1,0
		c0.4,0.4,0.5,1,0.3,1.5c-1.1,1.7-2.8,2.8-4.8,3.1C177.5,190.9,177.2,190.9,176.8,190.9z"/>
	<line class="st5" x1="261" y1="286.4" x2="337.7" y2="258.1"/>
	<line class="st5" x1="258.9" y1="288.8" x2="308.1" y2="270.6"/>
	<polyline class="st3" points="166,187.7 166,196.4 258.4,290.9 259.8,283.5 166,187.7 	"/>
	<line class="st5" x1="167.4" y1="194.5" x2="222.3" y2="249.4"/>
	<line class="st5" x1="193.3" y1="218.1" x2="250.5" y2="276.7"/>
	<polygon class="st6" points="166,187.7 259.8,283.5 351.8,248.7 256.4,157.3 	"/>
	<polygon class="st3" points="164.9,186.1 78,105.1 167,77.4 255.7,155.8 	"/>
	<line class="st7" x1="91.3" y1="105.6" x2="116.8" y2="97.7"/>
	<line class="st7" x1="95.1" y1="108.6" x2="120.5" y2="100.6"/>
	<path class="st4" d="M181.5,188.3c-0.3,0-0.5-0.1-0.8-0.2c-0.6-0.4-0.8-1.3-0.4-2c0.7-1.1,1-2.5,0.8-3.8c-0.3-2-1.7-3.7-3.7-4.3
		c-0.8-0.2-1.2-1-1-1.7c0.2-0.7,0.9-1.1,1.6-1c3.1,0.8,5.5,3.4,5.9,6.6c0.3,2-0.1,4.1-1.2,5.8C182.4,188.1,181.9,188.3,181.5,188.3z
		"/>
	<path class="st4" d="M194.7,183.5c-0.3,0-0.5-0.1-0.8-0.2c-0.7-0.4-0.8-1.3-0.4-2c0,0,0,0,0,0c0.7-1.1,1-2.5,0.8-3.8
		c-0.3-2-1.7-3.7-3.7-4.3c-0.8-0.1-1.3-0.9-1.2-1.6c0.1-0.8,0.9-1.3,1.6-1.2c0.1,0,0.1,0,0.2,0c3.1,0.8,5.5,3.4,5.9,6.6
		c0.3,2-0.1,4.1-1.2,5.8C195.6,183.2,195.2,183.5,194.7,183.5z"/>
	<path class="st4" d="M247.5,165.4c-0.8,0-1.4-0.7-1.4-1.5c0-0.2,0.1-0.5,0.2-0.7c0.7-1.1,1-2.5,0.8-3.8c-0.2-2.1-1.7-3.7-3.7-4.3
		c-0.8-0.2-1.2-0.9-1.1-1.7c0,0,0,0,0,0c0.2-0.8,0.9-1.2,1.7-1.1c3.1,0.8,5.5,3.4,5.9,6.6c0.3,2-0.1,4.1-1.2,5.8
		C248.4,165.1,247.9,165.4,247.5,165.4z"/>
	<path class="st4" d="M234.1,169.5c-0.3,0-0.5-0.1-0.8-0.2c-0.7-0.4-0.8-1.3-0.4-2c0,0,0,0,0,0c0.7-1.1,1-2.5,0.8-3.8
		c-0.3-2-1.7-3.7-3.7-4.3c-0.8-0.1-1.3-0.9-1.2-1.6c0.1-0.8,0.9-1.3,1.6-1.2c0.1,0,0.1,0,0.2,0c3.1,0.8,5.5,3.4,5.9,6.6
		c0.3,2-0.1,4.1-1.2,5.8C235,169.2,234.5,169.5,234.1,169.5z"/>
	<path class="st4" d="M221.8,174.2c-0.3,0-0.5-0.1-0.8-0.2c-0.6-0.4-0.8-1.3-0.4-2c0.7-1.1,1-2.5,0.8-3.8c-0.3-2-1.7-3.7-3.7-4.3
		c-0.8-0.1-1.3-0.9-1.2-1.6c0.1-0.8,0.9-1.3,1.6-1.2c0.1,0,0.1,0,0.2,0c3.1,0.8,5.5,3.4,5.9,6.6c0.3,2-0.1,4.1-1.2,5.8
		C222.7,174,222.3,174.2,221.8,174.2z"/>
	<path class="st4" d="M208.4,178c-0.3,0-0.5-0.1-0.8-0.2c-0.7-0.4-0.8-1.3-0.4-2c0,0,0,0,0,0c0.7-1.1,1-2.5,0.8-3.8
		c-0.3-2-1.7-3.7-3.7-4.3c-0.8,0-1.5-0.6-1.5-1.5c0-0.8,0.6-1.5,1.5-1.5c0.2,0,0.4,0,0.6,0.1c3.1,0.8,5.5,3.4,5.9,6.6
		c0.3,2-0.1,4.1-1.2,5.8C209.3,177.8,208.9,178,208.4,178z"/>
	<line class="st5" x1="334.1" y1="246.5" x2="337.7" y2="245.2"/>
	<line class="st5" x1="263.6" y1="272.6" x2="330.9" y2="247.7"/>
	<line class="st5" x1="265.5" y1="261.3" x2="329.7" y2="237.6"/>
	<line class="st5" x1="255.6" y1="265" x2="261.2" y2="262.9"/>
	<line class="st5" x1="247.6" y1="257.4" x2="321.7" y2="230"/>
	<line class="st5" x1="239.6" y1="249.8" x2="313.7" y2="222.5"/>
	<line class="st5" x1="302.6" y1="216" x2="305.7" y2="214.9"/>
	<line class="st5" x1="231.6" y1="242.3" x2="298.1" y2="217.7"/>
	<line class="st5" x1="223.6" y1="234.7" x2="297.7" y2="207.3"/>
	<line class="st5" x1="215.6" y1="227.1" x2="289.7" y2="199.7"/>
	<line class="st5" x1="207.6" y1="219.5" x2="281.7" y2="192.1"/>
	<line class="st5" x1="199.6" y1="211.9" x2="273.7" y2="184.6"/>
	<line class="st5" x1="263" y1="177.9" x2="265.7" y2="177"/>
	<line class="st5" x1="191.5" y1="204.3" x2="260.8" y2="178.8"/>
	<line class="st5" x1="205.7" y1="188.6" x2="257.7" y2="169.4"/>
	<line class="st5" x1="183.6" y1="196.8" x2="197.9" y2="191.5"/>
	<path class="st8" d="M209.3,216.4c7.5,1,6.8-11.9,4.9-16.2c-2.8,3.2-4.1,7.5-3.6,11.7c0.1,1,0.4,1.9,1,2.7c0.6,0.8,1.6,1.2,2.6,1
		c0.7-0.3,1.3-0.8,1.7-1.4c1.4-1.8,2.3-4.1,3.7-5.8c2,1.4,9.2,3.7,8.1-1.3c-0.6-2.8,0.8-2.4,2.3-1.1c0.6,0.6,1.6,0.3,2.3-0.1
		l7.3-3.2c0.9-0.5,1.9-0.8,3-0.9c3.5-0.2,5.8,3.1,9.2,0.8c1.5-1,1.8-3.6,3.6-4.5c1.3-0.7,2.9-0.8,4.4-1c5.1-0.7,7.8-3.4,12.5-5.9"/>
	<path class="st8" d="M215.1,224.4c2.8,0.5,5.2-2.1,7.7-2.9c3.2-1.1,4.6-2.4,7.6-3.7c4-1.7,8.8-2.5,7.9-8.6
		c-0.6,2.2-0.6,4.6-1.1,6.9c3.3,1.6,4.1-1.2,4.5-3.6c1.1,0,2.2-0.2,3.2-0.6c0,0.5,0.1,1,0.1,1.4c1.6,0.6,2.2,0.2,2.5-1.2
		c1.7-0.3,2.4-2,3.8-2.4c0.4,4.1,1.4,7.6,1.2,11.8c-2.8,0.7-3.2-4.1-2.5-6.1c0.7-2.1,2.8-3.2,3.6-5.4c0.2,0.3,0,0.6,0.1,0.9
		c3.5-2.1,8-1.5,11.5-4c1.1-0.8,1.9-2.3,3-2.8c2.5-1.2,3.3,0.2,5.1-2.5"/>
	<path class="st8" d="M240.4,248.3c5-1.5,7.3-14,5.8-18.6c-1.7-5.6-4,0.5-4.6,3.5c-0.4,2.4-1.1,8.7,1.1,10.5c5,4,8-4.2,8.6-8
		c0.2,2.3-1.2,5.2-0.6,7.7c4,0.5,6-2.9,5.8-6.3c1,1,1.3,2.5,0.7,3.8c3.8-0.3,3.2-6.7,3.6-9.3c-0.2,1.8-0.1,4,1.2,5.4
		c1,1.2,3,1.8,4.3,0.8c1.3-0.9,1-3.4-0.5-3.8v15.7c0,0.5,0,0.9-0.3,1.3c-0.5,0.7-1.8,0.6-2.4-0.1c-0.5-0.8-0.8-1.7-0.7-2.6
		c-0.1-5.1,1.5-12.2,5.5-15.7c0.2,0.5,0.3,1,0.2,1.6c0.8-0.3,1.4-0.9,1.6-1.7c0.3,1.2,0.9,2.6,2.1,2.4c0.4-0.1,0.7-0.3,1-0.6
		c1.9-1.6,4-2.6,5.3-4.9c0.2,0.6,0.4,1.1,0.6,1.7c0.3-1.1,1.4-1.8,2.4-2.3c1.6-0.7,3.3-1.2,5-1.3c1.5-0.1,3,0.1,4.4-0.5
		c0.6-0.3,1.1-0.7,1.7-1.1c1.5-1,3.2-1.6,5-1.7"/>
</g>
<g id="freepik--Glasses--inject-1--inject-6">
	<path class="st9" d="M180.6,110.4c0,0,11.6-14.6,15.5-19.8c3.9-5.2,6.8-9.2,6.8-9.2s2.1,1.6,1.5,3.5c-0.6,1.9-14.4,20.7-17.5,25.5
		c-3.1,4.8-2.6,10.8-2.4,12.9S178.5,118.5,180.6,110.4z"/>
	<path class="st10" d="M202.8,81.3c0,0,7.2-10,12.6-18.4c5.4-8.4,13.2-20.9,15-22.6c1.9-1.7,2.3,2.7,1.7,5.6s-7,11.1-11.3,17.8
		c-4.3,6.7-7,11.5-10.7,15.9c-3.7,4.4-3.5,4.6-5.8,5.2C202,85.5,202.4,83.2,202.8,81.3z"/>
	<path class="st10" d="M178.1,111.9c0.8-5.4,2.6-15.4,6.7-18.5c4.1-3.1,16.6-0.7,17.7-0.5s17.5,3.8,22.5,6.9c5,3.1,8.4,12,9.7,17.2
		c1.3,5.2,4,13.9,4.5,14.5c0,0,4.2,1.8,6.5,1.6c2.3-0.2,5.3-10.9,11.7-17.1c6.4-6.3,9.7-7.1,16.8-6.5s33.9,7.9,36.7,10.6
		c2.7,2.7,4.4,8.7,3.8,13.1c-0.6,4.4,0.3,9.2,0.3,10s2.5,3.5,1.9,5.8c-0.6,2.3-1,7.3-2.9,7.9c-1.9,0.7-15.6,0.3-25.8-1.1
		c-10.2-1.4-24.4-7.5-33.8-11.8c-9.4-4.3-14-6.2-20.8-6.1s-20.2,0.3-32.5-2.5c-12.3-2.8-20.6-8-23-10.2
		C175.8,122.7,177.3,117.3,178.1,111.9z M251.6,137.4c3.4,5,16.9,9.9,24.2,11.9c7.3,2,24.8,5.7,29.3,3.1c4.6-2.5,7-17.5,6.5-22.7
		s-2.5-8.1-2.5-8.1c-9-5.6-37.1-11.4-42.9-9.1s-11.4,9.8-13.4,15.9C250.8,134.5,251.6,137.4,251.6,137.4z M192.9,128.8
		c9,5.3,23.1,6.9,28.7,7.1c5.6,0.2,11-2.8,11.2-9.2c0.2-6.4-3.2-17.2-4.5-20.3c-1.3-3.1-5.4-5-5.4-5c-5.6-2.7-29-8.5-32.9-7.9
		c-4,0.7-7.4,6.7-8.2,15.4C181,117.7,184,123.5,192.9,128.8L192.9,128.8z"/>
	<path class="st9" d="M314.3,142.8c0,0,2.3,3.5,4,1s22.9-26.4,22.9-26.4s0.8-0.2,0.6,1.5c-0.2,1.7-22.5,31.6-23.3,33
		s-4.4,1.9-5.2,1.3C312.5,152.6,314.3,142.8,314.3,142.8z"/>
	<path class="st10" d="M339.7,118.3c1.2-2.2,2.3-4.4,3.3-6.7c2.3-5,3.6-14.8,4-25s0.7-16.2,2.6-14.4c1.9,1.9,0.3,11.9-0.1,19.8
		c-0.3,7.9-2.8,15.8-3.4,20c-0.5,3.1-2.9,8.1-4.5,8.1C339.9,120.2,340.1,119.7,339.7,118.3z"/>
</g>
<g id="freepik--Pencils--inject-1--inject-6">
	<polygon class="st11" points="202.5,248.6 211.6,259 198,255.9 101.3,196.8 105.7,189.5 	"/>
	<polygon class="st12" points="202.5,248.6 211.6,259 198,255.9 101.3,196.8 105.7,189.5 	"/>
	
		<rect x="149.6" y="166" transform="matrix(0.5219 -0.853 0.853 0.5219 -117.3496 236.0348)" class="st13" width="4.7" height="113.4"/>
	<polygon class="st11" points="202.5,248.7 198,255.9 211.6,259 	"/>
	<polygon class="st14" points="204.8,257.5 211.6,259 207.1,253.8 	"/>
	<path class="st11" d="M92.7,186.5L92.7,186.5c-1.2,2-0.6,4.6,1.4,5.9c0,0,0,0,0,0l7.2,4.4l4.5-7.3l-7.2-4.4
		C96.6,183.9,93.9,184.5,92.7,186.5z"/>
	<path class="st15" d="M92.7,186.5L92.7,186.5c-1.2,2-0.6,4.6,1.4,5.9c0,0,0,0,0,0l3.4,2.1l4.5-7.3l-3.4-2.1
		C96.6,183.9,93.9,184.5,92.7,186.5z"/>
	<path class="st16" d="M287.9,151.8l-2.5-1.8c-0.8-0.6-1.8-0.7-2.7-0.5c-2.7,0.8-7.8,2.8-9.2,4.4c-1.9,1.9-2.5,5.5-1.6,7.1
		c0.9,1.7,4.6,3.8,4.6,3.8l15.6-9.5L287.9,151.8z"/>
	<path class="st17" d="M287.9,151.8l-2.5-1.8c-0.8-0.6-1.8-0.7-2.7-0.5c-2.7,0.8-7.8,2.8-9.2,4.4c-1.9,1.9-2.5,5.5-1.6,7.1
		c0.9,1.7,4.6,3.8,4.6,3.8l15.6-9.5L287.9,151.8z"/>
	<path class="st16" d="M289.5,151.1l-12.3,5.6c0,0-4.2,2.4-2.9,9.6l72.3,53.2c0,0,2.5,1.8,7.1,0.3s9.2-6.9,10.2-11.4
		c1-4.5-2.2-5.9-2.8-6.4c-0.6-0.5-69.1-50.3-69.1-50.3C291.2,151.1,290.3,151,289.5,151.1z"/>
	<path class="st17" d="M289.5,151.1l-12.3,5.6c0,0-4.2,2.4-2.9,9.6l72.3,53.2c0,0,2.5,1.8,7.1,0.3s9.2-6.9,10.2-11.4
		c1-4.5-2.2-5.9-2.8-6.4c-0.6-0.5-69.1-50.3-69.1-50.3C291.2,151.1,290.3,151,289.5,151.1z"/>
	<path class="st16" d="M358.9,216.1c-4.6,4.2-10.1,5.7-12.3,3.3c-2.3-2.4-0.4-7.8,4.2-12.1c4.6-4.3,10.1-5.7,12.3-3.3
		C365.4,206.4,363.5,211.8,358.9,216.1z"/>
	<path class="st18" d="M358.9,216.1c-4.6,4.2-10.1,5.7-12.3,3.3c-2.3-2.4-0.4-7.8,4.2-12.1c4.6-4.3,10.1-5.7,12.3-3.3
		C365.4,206.4,363.5,211.8,358.9,216.1z"/>
	<path class="st10" d="M291.9,151.6c-0.7-0.5-1.6-0.7-2.4-0.5l-12.3,5.6c0,0-4.2,2.4-2.9,9.6l50,36.8c-0.4-1.7-0.3-4.2,1.6-7.1
		c1.8-2.8,9.7-7.2,14-9.4C319.6,171.7,291.9,151.6,291.9,151.6z"/>
	<path class="st16" d="M349.3,207.2L322.9,188c-1.3-0.9-1.6-2.8-0.7-4.1c0.2-0.3,0.6-0.6,0.9-0.8l4.1-2.2c1-0.5,2.2-0.5,3.1,0.2
		l27.9,20.2"/>
	<path class="st17" d="M349.3,207.2L322.9,188c-1.3-0.9-1.6-2.8-0.7-4.1c0.2-0.3,0.6-0.6,0.9-0.8l4.1-2.2c1-0.5,2.2-0.5,3.1,0.2
		l27.9,20.2"/>
</g>
</svg>
