<svg id="Icon" xmlns="http://www.w3.org/2000/svg" width="138" height="138" viewBox="0 0 138 138">
  <defs>
    <style>
      .cls-1 {
        fill-opacity: 0;
      }

      .cls-1, .cls-2 {
        stroke: #fff;
        stroke-linejoin: round;
        stroke-width: 4px;
      }

      .cls-2 {
        fill: #fff;
      }

      .cls-3 {
        fill: #2e3f50;
        fill-rule: evenodd;
      }
    </style>
  </defs>
  <circle id="Ellipse_2_copy_2" data-name="Ellipse 2 copy 2" class="cls-1" cx="69" cy="69" r="65"/>
  <circle id="Ellipse_2_copy_2-2" data-name="Ellipse 2 copy 2" class="cls-2" cx="69" cy="69" r="53"/>
  <path id="Forma_1" data-name="Forma 1" class="cls-3" d="M357.537,2611.16l-4.432,4.44a8.334,8.334,0,0,1-3.178,1.28,52.307,52.307,0,0,1-52.774-52.92,8.308,8.308,0,0,1,1.3-3.05l4.431-4.43a7.435,7.435,0,0,1,6.92-1.64l0.934,0.32a8.744,8.744,0,0,1,5.064,5.35l2.232,8.19a8.025,8.025,0,0,1-1.832,7.01l-2.963,2.96a31.438,31.438,0,0,0,22.111,22.13l2.963-2.96a8.018,8.018,0,0,1,7.01-1.84l8.189,2.24a8.751,8.751,0,0,1,5.349,5.06l0.31,0.94A7.428,7.428,0,0,1,357.537,2611.16Zm-22.784-27.72h4.178a8.357,8.357,0,0,0-8.357-8.36v4.18A4.188,4.188,0,0,1,334.753,2583.44Zm16.712,0a20.9,20.9,0,0,0-20.891-20.9v4.18a16.734,16.734,0,0,1,16.713,16.72h4.178ZM330.574,2550v4.18a29.291,29.291,0,0,1,29.248,29.26H364A33.433,33.433,0,0,0,330.574,2550Z" transform="translate(-261 -2514)"/>
</svg>
