<svg id="Icon" xmlns="http://www.w3.org/2000/svg" width="138" height="138" viewBox="0 0 138 138">
  <defs>
    <style>
      .cls-1 {
        fill-opacity: 0;
      }

      .cls-1, .cls-2 {
        stroke: #fff;
        stroke-linejoin: round;
        stroke-width: 4px;
      }

      .cls-2 {
        fill: #fff;
      }

      .cls-3 {
        fill: #2e3f50;
        fill-rule: evenodd;
      }
    </style>
  </defs>
  <circle class="cls-1" cx="69" cy="69" r="65"/>
  <circle id="Ellipse_2_copy" data-name="Ellipse 2 copy" class="cls-2" cx="69" cy="69" r="53"/>
  <path id="Forma_1" data-name="Forma 1" class="cls-3" d="M978.465,2554h-54.93a2.52,2.52,0,0,0-2.535,2.51v38.18a2.527,2.527,0,0,0,2.535,2.51h30.454l11.68,8.64c1.577,1.16,2.865.52,2.865-1.43v-7.22h9.929a2.521,2.521,0,0,0,2.535-2.51v-38.17A2.518,2.518,0,0,0,978.465,2554Zm-41.3,25.18a3.88,3.88,0,1,1,3.924-3.88A3.9,3.9,0,0,1,937.162,2579.18Zm9.915-3.88a3.924,3.924,0,1,1,3.924,3.88A3.9,3.9,0,0,1,947.077,2575.3Zm17.763,3.88a3.88,3.88,0,1,1,3.924-3.88A3.9,3.9,0,0,1,964.84,2579.18Z" transform="translate(-882 -2512)"/>
</svg>
